<?xml version="1.0" encoding="UTF-8"?><svg id="Layer_1" xmlns="http://www.w3.org/2000/svg" version="1.1" viewBox="0 0 940.16 1224.32">  <!-- Generator: Adobe Illustrator 29.7.1, SVG Export Plug-In . SVG Version: 2.1.1 Build 8)  -->  <defs>    <style>      .st0 {        fill: #00c7b4;      }      .st1 {        fill: #f30080;      }      .st2 {        fill: #573bb4;      }      .st3 {        fill: #003058;      }      .st4 {        fill: #f7a500;      }      .st5, .st6 {        fill: #fff7ef;      }      .st7 {        fill: #a5c700;      }      .st8 {        fill: #f63a00;      }      .st6 {        stroke: #003058;        stroke-miterlimit: 10;        stroke-width: 3px;      }      /* Puzzle Join Animation */      @keyframes puzzleJoin {        0% { opacity: 0; transform: translate(var(--dx, 0), var(--dy, 0)) scale(0.9); }        100% { opacity: 1; transform: translate(0, 0) scale(1); }      }      .p-piece { opacity: 0; animation: puzzleJoin 1.2s cubic-bezier(0.16, 1, 0.3, 1) forwards; }      .resilience { --dx: -150px; --dy: -100px; animation-delay: 1.7s; }      .courage { --dx: 0px; --dy: -150px; animation-delay: 1.9s; }      .perseverance { --dx: 150px; --dy: -100px; animation-delay: 2.1s; }      .habits { opacity: 0; animation: habitsPop 0.8s ease-out 2.7s forwards; transform-origin: 470px 612px; }      .kindness { --dx: -150px; --dy: 100px; animation-delay: 1.8s; }      .gratitude { --dx: 0px; --dy: 150px; animation-delay: 2.0s; }      .integrity { --dx: 150px; --dy: 100px; animation-delay: 2.2s; }      @keyframes habitsPop {        0% { opacity: 0; transform: scale(0.5); }        100% { opacity: 1; transform: scale(1); }      }      .bg-fade { opacity: 0; animation: fadeIn 1.5s forwards 2.9s; }      @keyframes fadeIn { to { opacity: 1; } }    </style>  </defs>  <g class="p-piece gratitude">    <rect class="st1" x="350.24" y="929.92" width="239.91" height="210.04" rx="5.57" ry="5.57"/>    <g>      <path class="st5" d="M414.03,1042.73c-1.22,0-2.35-.22-3.41-.67s-1.98-1.07-2.78-1.86-1.43-1.71-1.88-2.75c-.46-1.04-.68-2.16-.68-3.36s.23-2.32.68-3.36c.46-1.04,1.08-1.96,1.88-2.75s1.73-1.41,2.78-1.86c1.06-.45,2.19-.67,3.41-.67.75,0,1.48.08,2.18.24.7.16,1.35.4,1.94.72.24.13.42.3.54.52s.18.44.18.66c0,.38-.13.73-.38,1.03s-.58.46-.98.46c-.13,0-.26-.02-.4-.05s-.27-.08-.4-.14c-.4-.18-.82-.31-1.27-.41-.45-.1-.92-.14-1.42-.14-1.04,0-1.99.26-2.84.78-.86.52-1.54,1.22-2.04,2.09s-.76,1.84-.76,2.89.25,2,.76,2.88,1.18,1.58,2.04,2.1c.86.52,1.8.78,2.84.78.48,0,1.01-.05,1.58-.14s1.05-.22,1.42-.38l-.22.72v-4.1l.41.36h-2.66c-.42,0-.76-.14-1.04-.41s-.42-.62-.42-1.03.14-.76.42-1.03.63-.41,1.04-.41h3.94c.42,0,.76.14,1.03.42s.41.63.41,1.04v5.09c0,.32-.08.58-.23.79-.15.21-.32.38-.52.5-.74.45-1.54.8-2.41,1.07-.87.26-1.79.4-2.75.4v-.02h.01Z"/>      <path class="st5" d="M424.54,1042.49c-.45,0-.85-.14-1.2-.42s-.53-.63-.53-1.04v-13.87c0-.42.14-.76.42-1.04s.63-.42,1.04-.42h6.91c.83,0,1.61.22,2.34.66s1.32,1.05,1.76,1.82c.45.78.67,1.67.67,2.68,0,.61-.12,1.2-.37,1.78s-.58,1.1-1.01,1.56c-.42.46-.9.82-1.43,1.08l.02-.55c.45.24.82.52,1.12.85s.53.68.7,1.06.27.78.3,1.21c.06.4.11.75.13,1.06.02.3.07.56.14.77s.21.37.42.48c.35.21.57.51.66.9s0,.74-.28,1.04c-.18.21-.4.34-.67.4s-.54.06-.82,0c-.27-.06-.5-.13-.67-.23-.27-.16-.54-.4-.82-.71-.27-.31-.49-.73-.66-1.26s-.25-1.21-.25-2.04c0-.27-.05-.52-.14-.76-.1-.23-.23-.43-.41-.6s-.4-.3-.67-.38c-.27-.09-.59-.13-.96-.13h-4.85l.36-.55v5.21c0,.42-.11.76-.34,1.04s-.54.42-.94.42l.03-.02h0ZM425.47,1033.9h5.59c.29,0,.57-.13.84-.4.27-.26.5-.62.67-1.08.18-.46.26-.96.26-1.5,0-.7-.19-1.29-.56-1.76s-.78-.71-1.21-.71h-5.54l.29-.77v6.79l-.34-.58h0Z"/>      <path class="st5" d="M445.47,1029.46l-5.18,12.19c-.11.3-.28.54-.52.71-.23.17-.48.25-.76.25-.43,0-.75-.12-.96-.36s-.31-.54-.31-.89c0-.14.02-.3.07-.46l5.98-14.35c.13-.32.32-.57.59-.74s.55-.25.85-.22c.29,0,.56.08.8.25s.43.4.54.71l5.9,14.06c.08.21.12.4.12.58,0,.43-.14.78-.42,1.03s-.59.38-.92.38c-.29,0-.55-.09-.78-.26-.23-.18-.41-.42-.54-.72l-5.16-12.02.7-.14h0ZM441.03,1038.72l1.32-2.76h6.48l.46,2.76h-8.26Z"/>      <path class="st5" d="M453.82,1028.45c-.42,0-.76-.13-1.04-.38-.28-.26-.42-.59-.42-1.01s.14-.75.42-1,.63-.37,1.04-.37h10.66c.42,0,.76.13,1.04.38s.42.59.42,1.01-.14.75-.42,1-.63.37-1.04.37h-10.66ZM459.12,1042.49c-.45,0-.82-.14-1.1-.42s-.43-.63-.43-1.04v-13.92h3.12v13.92c0,.42-.15.76-.44,1.04s-.68.42-1.14.42h-.01,0Z"/>      <path class="st5" d="M471.46,1041.03c0,.42-.15.76-.46,1.04s-.66.42-1.06.42c-.45,0-.81-.14-1.08-.42s-.41-.63-.41-1.04v-13.87c0-.42.14-.76.43-1.04s.66-.42,1.1-.42c.38,0,.72.14,1.02.42s.44.63.44,1.04v13.87h.02Z"/>      <path class="st5" d="M475.44,1028.45c-.42,0-.76-.13-1.04-.38-.28-.26-.42-.59-.42-1.01s.14-.75.42-1,.63-.37,1.04-.37h10.66c.42,0,.76.13,1.04.38s.42.59.42,1.01-.14.75-.42,1-.63.37-1.04.37h-10.66ZM480.75,1042.49c-.45,0-.82-.14-1.1-.42s-.43-.63-.43-1.04v-13.92h3.12v13.92c0,.42-.15.76-.44,1.04s-.68.42-1.14.42h-.01,0Z"/>      <path class="st5" d="M502.01,1025.67c.42,0,.75.14,1.01.42s.38.63.38,1.04v8.69c0,1.33-.28,2.5-.85,3.53-.57,1.02-1.35,1.82-2.34,2.4s-2.14.86-3.46.86-2.47-.29-3.47-.86-1.78-1.38-2.35-2.4-.85-2.2-.85-3.53v-8.69c0-.42.14-.76.43-1.04s.66-.42,1.1-.42c.37,0,.7.14,1,.42s.44.63.44,1.04v8.69c0,.8.17,1.49.52,2.08.34.58.8,1.04,1.37,1.36s1.17.48,1.81.48c.69,0,1.33-.16,1.92-.48.59-.32,1.07-.77,1.44-1.36s.55-1.28.55-2.08v-8.69c0-.42.12-.76.36-1.04s.57-.42.98-.42h.01Z"/>      <path class="st5" d="M514.2,1025.69c1.15,0,2.18.22,3.07.65.9.43,1.65,1.04,2.27,1.81s1.08,1.67,1.39,2.69.47,2.1.47,3.25c0,1.55-.28,2.96-.84,4.24-.56,1.27-1.37,2.28-2.44,3.04s-2.37,1.13-3.92,1.13h-5.74c-.42,0-.76-.14-1.04-.42s-.42-.63-.42-1.04v-13.87c0-.42.14-.76.42-1.04s.63-.42,1.04-.42h5.74v-.02h0ZM513.96,1039.73c1.01,0,1.83-.26,2.47-.78s1.11-1.21,1.4-2.06c.3-.86.44-1.79.44-2.8,0-.75-.08-1.47-.25-2.15s-.43-1.28-.78-1.8-.8-.93-1.34-1.24-1.19-.46-1.94-.46h-4.2l.24-.22v11.76l-.14-.26h4.1Z"/>      <path class="st5" d="M525.62,1025.69h8.04c.42,0,.76.13,1.04.4.28.26.42.6.42,1.02s-.14.72-.42.97-.63.37-1.04.37h-6.72l.22-.41v4.68l-.19-.19h5.62c.42,0,.76.13,1.04.4.28.26.42.6.42,1.02s-.14.72-.42.97-.63.37-1.04.37h-5.54l.12-.19v4.85l-.19-.22h6.7c.42,0,.76.14,1.04.42s.42.6.42.97c0,.4-.14.73-.42.98-.28.26-.63.38-1.04.38h-8.04c-.42,0-.76-.14-1.04-.42s-.42-.63-.42-1.04v-13.87c0-.42.14-.76.42-1.04s.63-.42,1.04-.42h-.02Z"/>    </g>  </g>  <g class="p-piece habits">  <rect class="st3" x="350.24" y="507.14" width="239.91" height="210.04" rx="5.57" ry="5.57"/>  </g>  <rect class="st6" x="589.65" y="296.08" width="239.91" height="210.04" rx="5.57" ry="5.57"/>  <path class="st6" d="M584.58,718.22h-228.77c-3.08,0-5.57,2.49-5.57,5.57v198.9c0,3.08,2.49,5.57,5.57,5.57h91.04c-4.08,5.11-6.52,11.57-6.52,18.61,0,16.49,13.37,29.86,29.86,29.86s29.86-13.37,29.86-29.86c0-7.04-2.44-13.51-6.52-18.61h91.04c3.08,0,5.57-2.49,5.57-5.57v-198.9c0-3.08-2.49-5.57-5.57-5.57h.01Z"/>  <g>    <path class="st5" d="M411.89,577.01c.58,0,1.09.21,1.53.63s.67.94.67,1.57v20.81c0,.62-.23,1.15-.68,1.57s-.98.63-1.58.63c-.67,0-1.21-.21-1.62-.63s-.61-.94-.61-1.57v-20.81c0-.62.22-1.15.65-1.57s.98-.63,1.66-.63h-.02ZM411.78,587.49h16.06v4.14h-16.06v-4.14ZM427.84,577.01c.67,0,1.21.21,1.62.63s.61.94.61,1.57v20.81c0,.62-.21,1.15-.63,1.57s-.98.63-1.67.63c-.58,0-1.09-.21-1.53-.63s-.67-.94-.67-1.57v-20.81c0-.62.23-1.15.68-1.57.46-.42.98-.63,1.58-.63h.01Z"/>    <path class="st5" d="M444.72,582.67l-7.78,18.29c-.17.46-.43.81-.77,1.06-.35.25-.73.38-1.13.38-.65,0-1.13-.18-1.44-.54s-.47-.8-.47-1.33c0-.22.04-.44.11-.68l8.96-21.53c.19-.48.49-.85.88-1.12.4-.26.82-.37,1.28-.32.43,0,.83.13,1.21.38s.64.61.81,1.06l8.86,21.1c.12.31.18.6.18.86,0,.65-.21,1.17-.63,1.55s-.88.58-1.39.58c-.43,0-.82-.13-1.17-.4-.35-.26-.62-.62-.81-1.08l-7.74-18.04,1.04-.22h0ZM438.06,596.56l1.98-4.14h9.72l.68,4.14h-12.38Z"/>    <path class="st5" d="M469.74,577.01c2.3,0,4.02.54,5.15,1.62s1.69,2.68,1.69,4.79c0,1.13-.28,2.12-.83,2.97s-1.37,1.51-2.45,1.98-2.41.7-4,.7l.14-1.62c.74,0,1.6.1,2.56.31.96.2,1.89.56,2.79,1.08s1.64,1.24,2.23,2.16.88,2.11.88,3.55c0,1.58-.26,2.88-.77,3.89-.52,1.01-1.19,1.79-2.03,2.34s-1.74.93-2.7,1.13-1.88.31-2.77.31h-8.96c-.62,0-1.15-.21-1.57-.63s-.63-.94-.63-1.57v-20.81c0-.62.21-1.15.63-1.57s.94-.63,1.57-.63h9.07,0ZM469.09,581.26h-6.41l.47-.58v6.52l-.43-.32h6.48c.7,0,1.32-.23,1.87-.68s.83-1.12.83-1.98c0-1.03-.26-1.78-.77-2.25-.52-.47-1.19-.7-2.03-.7h-.01ZM469.38,591.13h-6.55l.32-.29v7.6l-.36-.36h6.84c1.1,0,1.98-.29,2.63-.88s.97-1.47.97-2.65c0-1.08-.22-1.86-.65-2.34-.43-.48-.95-.78-1.55-.9s-1.15-.18-1.66-.18h0Z"/>    <path class="st5" d="M486.55,600.02c0,.62-.23,1.15-.68,1.57s-.98.63-1.58.63c-.67,0-1.21-.21-1.62-.63s-.61-.94-.61-1.57v-20.81c0-.62.22-1.15.65-1.57s.98-.63,1.66-.63c.58,0,1.09.21,1.53.63s.67.94.67,1.57v20.81h-.02Z"/>    <path class="st5" d="M492.53,581.15c-.62,0-1.15-.19-1.57-.58s-.63-.89-.63-1.51.21-1.12.63-1.49.94-.56,1.57-.56h15.98c.62,0,1.15.19,1.57.58s.63.89.63,1.51-.21,1.12-.63,1.49-.94.56-1.57.56h-15.98ZM500.49,602.21c-.67,0-1.22-.21-1.66-.63-.43-.42-.65-.94-.65-1.57v-20.88h4.68v20.88c0,.62-.22,1.15-.67,1.57-.44.42-1.01.63-1.71.63h.01Z"/>    <path class="st5" d="M522.59,602.57c-1.68,0-3.19-.21-4.54-.63-1.34-.42-2.63-1.16-3.85-2.21-.31-.26-.55-.56-.72-.9s-.25-.67-.25-1.01c0-.55.2-1.04.59-1.46.4-.42.89-.63,1.49-.63.46,0,.86.14,1.22.43.91.74,1.82,1.31,2.72,1.69.9.38,2.01.58,3.33.58.89,0,1.7-.14,2.45-.41.74-.28,1.34-.65,1.8-1.12.46-.47.68-1,.68-1.6,0-.72-.22-1.33-.65-1.84s-1.09-.93-1.98-1.28c-.89-.35-2.02-.62-3.38-.81-1.3-.19-2.44-.49-3.42-.88-.98-.4-1.81-.9-2.47-1.51s-1.16-1.33-1.49-2.16-.5-1.76-.5-2.79c0-1.56.4-2.89,1.21-4,.8-1.1,1.89-1.94,3.26-2.52s2.88-.86,4.54-.86c1.56,0,3.01.23,4.34.7s2.42,1.06,3.26,1.78c.7.55,1.04,1.19,1.04,1.91,0,.53-.2,1.01-.61,1.44s-.89.65-1.44.65c-.36,0-.68-.11-.97-.32-.38-.34-.9-.65-1.55-.95-.65-.3-1.33-.55-2.05-.76-.72-.2-1.39-.31-2.02-.31-1.03,0-1.9.13-2.61.4-.71.26-1.24.62-1.6,1.08s-.54.98-.54,1.58c0,.72.21,1.31.63,1.78s1.03.84,1.82,1.12,1.74.52,2.84.74c1.44.26,2.71.58,3.8.94s2,.82,2.72,1.39c.72.56,1.26,1.27,1.62,2.12s.54,1.89.54,3.11c0,1.56-.43,2.9-1.3,4.03s-2,1.99-3.4,2.59-2.92.9-4.55.9h-.01Z"/>    <path class="st5" d="M421.36,632.16c0,1.8-.3,3.48-.9,5.04s-1.45,2.93-2.54,4.12-2.39,2.12-3.89,2.79-3.14,1.01-4.91,1.01-3.41-.34-4.9-1.01-2.78-1.6-3.87-2.79-1.94-2.56-2.54-4.12-.9-3.24-.9-5.04.3-3.48.9-5.04,1.45-2.93,2.54-4.12,2.38-2.12,3.87-2.79,3.12-1.01,4.9-1.01,3.41.34,4.91,1.01,2.8,1.6,3.89,2.79,1.94,2.56,2.54,4.12.9,3.24.9,5.04ZM416.68,632.16c0-1.61-.32-3.07-.97-4.37-.65-1.31-1.54-2.35-2.66-3.11-1.13-.77-2.44-1.15-3.92-1.15s-2.8.38-3.92,1.15c-1.13.77-2.01,1.8-2.65,3.1-.64,1.3-.95,2.76-.95,4.39s.32,3.07.95,4.37c.64,1.31,1.52,2.35,2.65,3.11,1.13.77,2.44,1.15,3.92,1.15s2.8-.38,3.92-1.15c1.13-.77,2.02-1.81,2.66-3.11.65-1.31.97-2.77.97-4.37h0Z"/>    <path class="st5" d="M427.77,644.76c-.67,0-1.22-.21-1.64-.63s-.63-.94-.63-1.57v-20.81c0-.62.21-1.15.63-1.57s.94-.63,1.57-.63h11.7c.62,0,1.15.2,1.57.59.42.4.63.91.63,1.53,0,.53-.21,1-.63,1.4s-.94.61-1.57.61h-9.72l.32-.43v7.24l-.25-.47h8.03c.62,0,1.15.2,1.57.59.42.4.63.91.63,1.53,0,.53-.21,1-.63,1.4-.42.41-.94.61-1.57.61h-8.1l.32-.32v8.71c0,.62-.22,1.15-.67,1.57-.44.42-.97.63-1.57.63v.02h.01Z"/>    <path class="st5" d="M458.08,619.52c.34,0,.69.09,1.06.27s.65.41.85.7l8.75,13.46-1.8-.07,8.96-13.39c.46-.65,1.04-.97,1.76-.97.58,0,1.09.2,1.55.61s.68.94.68,1.58v20.84c0,.62-.2,1.15-.61,1.57s-.95.63-1.62.63-1.22-.21-1.64-.63-.63-.94-.63-1.57v-16.96l1.4.32-7.34,11.2c-.22.26-.49.49-.81.68s-.65.28-.99.25c-.31.02-.63-.06-.95-.25s-.59-.42-.81-.68l-6.88-10.87.94-1.91v18.22c0,.62-.19,1.15-.58,1.57s-.89.63-1.51.63-1.09-.21-1.48-.63c-.38-.42-.58-.94-.58-1.57v-20.84c0-.6.22-1.12.67-1.55.44-.43.98-.65,1.6-.65h.01,0Z"/>    <path class="st5" d="M489.79,642.56c0,.62-.23,1.15-.68,1.57s-.98.63-1.58.63c-.67,0-1.21-.21-1.62-.63s-.61-.94-.61-1.57v-20.81c0-.62.22-1.15.65-1.57s.98-.63,1.66-.63c.58,0,1.09.21,1.53.63s.67.94.67,1.57v20.81h-.02Z"/>    <path class="st5" d="M514.31,619.56c.58,0,1.04.19,1.4.58.36.38.54.86.54,1.44v20.99c0,.62-.21,1.15-.63,1.57s-.94.63-1.57.63c-.31,0-.63-.05-.95-.16s-.57-.26-.74-.45l-14.15-17.96.94-.58v17.14c0,.58-.19,1.06-.56,1.44s-.86.58-1.46.58-1.04-.19-1.4-.58c-.36-.38-.54-.86-.54-1.44v-20.99c0-.62.21-1.15.63-1.57s.94-.63,1.57-.63c.33,0,.68.07,1.04.2s.62.33.79.59l13.72,17.5-.61.43v-16.7c0-.58.18-1.06.54-1.44s.84-.58,1.44-.58h0Z"/>    <path class="st5" d="M532.45,619.56c1.73,0,3.26.32,4.61.97,1.34.65,2.48,1.55,3.4,2.72s1.62,2.51,2.09,4.03c.47,1.52.7,3.15.7,4.88,0,2.33-.42,4.45-1.26,6.35-.84,1.91-2.06,3.43-3.65,4.55-1.6,1.13-3.56,1.69-5.89,1.69h-8.6c-.62,0-1.15-.21-1.57-.63s-.63-.94-.63-1.57v-20.81c0-.62.21-1.15.63-1.57s.94-.63,1.57-.63h8.6v.02h0ZM532.09,640.62c1.51,0,2.75-.39,3.71-1.17s1.66-1.81,2.11-3.1c.44-1.28.67-2.68.67-4.19,0-1.13-.13-2.2-.38-3.22s-.64-1.92-1.17-2.7c-.53-.78-1.2-1.4-2.02-1.85-.82-.46-1.79-.68-2.92-.68h-6.3l.36-.32v17.64l-.22-.4h6.16Z"/>  </g>  <g>    <path class="st3" d="M440.39,833.63c-.45,0-.81-.14-1.09-.42s-.42-.63-.42-1.04v-13.87c0-.42.14-.76.42-1.04s.63-.42,1.04-.42h7.8c.42,0,.76.13,1.04.4.28.26.42.6.42,1.02,0,.35-.14.66-.42.94-.28.27-.63.41-1.04.41h-6.48l.22-.29v4.82l-.17-.31h5.35c.42,0,.76.13,1.04.4.28.26.42.6.42,1.02,0,.35-.14.66-.42.94-.28.27-.63.41-1.04.41h-5.4l.22-.22v5.81c0,.42-.15.76-.44,1.04-.3.28-.64.42-1.04.42v-.02h0Z"/>    <path class="st3" d="M464.22,827.22c0,1.31-.29,2.47-.88,3.47-.58,1-1.37,1.78-2.35,2.34s-2.08.84-3.3.84-2.32-.28-3.3-.84-1.77-1.34-2.35-2.34c-.58-1-.88-2.16-.88-3.47s.29-2.47.88-3.47,1.37-1.78,2.35-2.35c.98-.57,2.08-.85,3.3-.85s2.32.28,3.3.85c.98.57,1.77,1.35,2.35,2.35s.88,2.16.88,3.47ZM461.34,827.22c0-.82-.16-1.52-.49-2.12s-.77-1.07-1.32-1.4c-.55-.34-1.16-.5-1.84-.5s-1.28.17-1.84.5c-.55.34-.99.8-1.32,1.4-.33.6-.49,1.31-.49,2.12s.16,1.5.49,2.1.77,1.07,1.32,1.4c.55.34,1.16.5,1.84.5s1.28-.17,1.84-.5.99-.8,1.32-1.4c.33-.6.49-1.3.49-2.1Z"/>    <path class="st3" d="M472.45,820.55c.91,0,1.71.1,2.39.29s1.21.46,1.58.8c.38.34.56.76.56,1.24,0,.32-.1.62-.29.9s-.47.42-.84.42c-.26,0-.47-.04-.64-.11s-.32-.16-.44-.28c-.13-.11-.28-.22-.46-.31-.16-.1-.4-.17-.73-.23-.33-.06-.57-.08-.73-.08-.82,0-1.51.18-2.08.53-.57.35-1,.83-1.31,1.43-.3.6-.46,1.29-.46,2.08s.16,1.45.47,2.05.74,1.08,1.3,1.43c.55.35,1.19.53,1.91.53.4,0,.74-.02,1.03-.07s.53-.12.72-.22c.22-.13.42-.26.6-.41.18-.14.44-.22.79-.22.42,0,.74.13.96.4.22.26.34.59.34.97s-.22.76-.67,1.09-1.04.59-1.76.79c-.73.2-1.52.3-2.36.3-1.26,0-2.36-.29-3.29-.88-.93-.58-1.64-1.38-2.15-2.39-.5-1.01-.76-2.14-.76-3.38,0-1.31.27-2.47.8-3.47s1.28-1.78,2.23-2.35c.95-.57,2.04-.85,3.28-.85h.01Z"/>    <path class="st3" d="M488.75,820.79c.42,0,.76.14,1.03.42.27.28.41.63.41,1.04v6.1c0,1.7-.47,3.04-1.42,4.03-.94.99-2.3,1.49-4.08,1.49s-3.13-.5-4.07-1.49-1.4-2.34-1.4-4.03v-6.1c0-.42.14-.76.41-1.04s.62-.42,1.03-.42.76.14,1.03.42c.27.28.41.63.41,1.04v6.1c0,.98.22,1.7.65,2.17s1.08.71,1.94.71,1.54-.24,1.97-.71c.43-.47.65-1.2.65-2.17v-6.1c0-.42.14-.76.41-1.04.27-.28.62-.42,1.03-.42Z"/>    <path class="st3" d="M492.56,831.64c-.16-.22-.23-.51-.22-.86.02-.35.22-.66.62-.91.26-.16.53-.23.82-.2.29.02.57.17.84.44.46.46.95.82,1.46,1.08s1.15.38,1.92.38c.24-.02.5-.05.79-.11s.54-.18.76-.38.32-.51.32-.92c0-.35-.12-.63-.36-.84s-.56-.38-.95-.53c-.39-.14-.83-.28-1.31-.41-.5-.14-1-.3-1.52-.48s-1-.4-1.43-.68c-.43-.28-.78-.65-1.06-1.12-.27-.46-.41-1.05-.41-1.75,0-.8.22-1.48.67-2.04s1.03-.99,1.74-1.3,1.46-.46,2.24-.46c.5,0,1.02.06,1.56.18s1.06.31,1.56.58c.5.26.91.61,1.25,1.04.18.24.28.53.31.86.03.34-.12.64-.46.91-.24.19-.52.28-.84.25-.32-.02-.58-.13-.79-.32-.27-.35-.64-.63-1.09-.84s-.98-.31-1.57-.31c-.24,0-.5.03-.78.08-.28.06-.52.18-.73.36-.21.18-.31.48-.31.88,0,.37.12.66.36.88.24.22.56.39.97.53s.84.27,1.31.4c.48.13.97.28,1.46.46.5.18.95.41,1.37.7s.75.66,1.01,1.12.38,1.04.38,1.74c0,.82-.24,1.51-.72,2.09s-1.08,1.01-1.8,1.31-1.46.44-2.21.44c-.94,0-1.89-.16-2.83-.49s-1.73-.91-2.35-1.74l.02-.02h0Z"/>  </g>  <g>    <path class="st3" d="M685.06,391.79c.4,0,.75.13,1.04.4.3.26.44.6.44,1,0,.21-.05.42-.14.65l-5.93,13.87c-.14.32-.35.56-.61.71s-.53.23-.8.23c-.26-.02-.5-.1-.74-.25s-.42-.37-.55-.66l-5.93-13.92c-.05-.1-.08-.2-.1-.3-.02-.1-.02-.2-.02-.3,0-.46.17-.82.5-1.07s.66-.37.96-.37c.61,0,1.05.31,1.32.94l5.26,12.36-.84.02,4.82-12.38c.27-.61.71-.91,1.32-.91v-.02h0Z"/>    <path class="st3" d="M699.03,395.56c.42,0,.76.14,1.03.41s.41.62.41,1.06v10.15c0,.42-.14.76-.41,1.04-.27.28-.62.42-1.03.42s-.76-.14-1.03-.42-.41-.63-.41-1.04v-1.18l.53.22c0,.21-.11.46-.34.76-.22.3-.53.59-.91.88s-.84.53-1.36.73c-.52.2-1.08.3-1.69.3-1.1,0-2.1-.28-3-.85s-1.6-1.35-2.12-2.35-.78-2.15-.78-3.44.26-2.47.78-3.47,1.22-1.78,2.1-2.35,1.86-.85,2.93-.85c.69,0,1.32.1,1.9.31s1.08.47,1.5.79.75.64.98.97.35.6.35.83l-.86.31v-1.75c0-.42.14-.76.41-1.04.27-.28.62-.42,1.03-.42v-.02h-.01ZM694.18,406.24c.7,0,1.32-.18,1.85-.53.53-.35.94-.83,1.24-1.44s.44-1.29.44-2.04-.15-1.46-.44-2.06c-.3-.61-.71-1.09-1.24-1.44-.53-.35-1.14-.53-1.85-.53s-1.3.18-1.82.53c-.53.35-.94.83-1.24,1.44s-.44,1.3-.44,2.06.15,1.43.44,2.04c.3.61.71,1.09,1.24,1.44.53.35,1.14.53,1.82.53Z"/>    <path class="st3" d="M706.71,407.18c0,.42-.14.76-.42,1.04-.28.28-.63.42-1.04.42s-.74-.14-1.01-.42-.41-.63-.41-1.04v-14.83c0-.42.14-.76.42-1.04s.63-.42,1.04-.42.76.14,1.02.42.4.63.4,1.04v14.83h0Z"/>    <path class="st3" d="M719.48,395.8c.42,0,.76.14,1.03.42s.41.63.41,1.04v6.1c0,1.7-.47,3.04-1.42,4.03-.94.99-2.3,1.49-4.08,1.49s-3.13-.5-4.07-1.49-1.4-2.34-1.4-4.03v-6.1c0-.42.14-.76.41-1.04.27-.28.62-.42,1.03-.42s.76.14,1.03.42.41.63.41,1.04v6.1c0,.98.22,1.7.65,2.17.43.47,1.08.71,1.94.71s1.54-.24,1.97-.71.65-1.2.65-2.17v-6.1c0-.42.14-.76.41-1.04.27-.28.62-.42,1.03-.42Z"/>    <path class="st3" d="M730.09,408.88c-1.36,0-2.54-.28-3.54-.85s-1.77-1.34-2.3-2.32c-.54-.98-.8-2.08-.8-3.31,0-1.44.29-2.67.88-3.68s1.35-1.8,2.29-2.34,1.94-.82,3-.82c.82,0,1.59.17,2.32.5.73.34,1.37.8,1.93,1.38s1,1.26,1.33,2.03.49,1.58.49,2.45c-.02.38-.17.7-.46.94-.29.24-.62.36-1.01.36h-9.17l-.72-2.4h8.81l-.53.48v-.65c-.03-.46-.2-.88-.49-1.25-.3-.37-.66-.66-1.1-.88s-.91-.32-1.4-.32-.93.06-1.34.19c-.42.13-.78.34-1.08.65-.3.3-.54.71-.72,1.22s-.26,1.16-.26,1.94c0,.86.18,1.6.54,2.2s.82,1.06,1.39,1.37,1.17.47,1.81.47c.59,0,1.06-.05,1.42-.14.35-.1.64-.21.85-.35.22-.14.41-.25.59-.35.29-.14.56-.22.82-.22.35,0,.64.12.88.36.23.24.35.52.35.84,0,.43-.22.82-.67,1.18-.42.35-1,.66-1.75.92s-1.53.4-2.33.4h-.03,0Z"/>    <path class="st3" d="M737.46,406.65c-.16-.22-.23-.51-.22-.86.02-.35.22-.66.62-.91.26-.16.53-.23.82-.2s.57.17.84.44c.46.46.95.82,1.46,1.08s1.15.38,1.92.38c.24-.02.5-.05.79-.11s.54-.18.76-.38c.22-.2.32-.51.32-.92,0-.35-.12-.63-.36-.84s-.56-.38-.95-.53c-.39-.14-.83-.28-1.31-.41-.5-.14-1-.3-1.52-.48s-1-.4-1.43-.68-.78-.65-1.06-1.12c-.27-.46-.41-1.05-.41-1.75,0-.8.22-1.48.67-2.04s1.03-.99,1.74-1.3c.71-.3,1.46-.46,2.24-.46.5,0,1.02.06,1.56.18s1.06.31,1.56.58c.5.26.91.61,1.25,1.04.18.24.28.53.31.86.03.34-.12.64-.46.91-.24.19-.52.28-.84.25-.32-.02-.58-.13-.79-.32-.27-.35-.64-.63-1.09-.84-.46-.21-.98-.31-1.57-.31-.24,0-.5.03-.78.08-.28.06-.52.18-.73.36-.21.18-.31.48-.31.88,0,.37.12.66.36.88s.56.39.97.53.84.27,1.31.4c.48.13.97.28,1.46.46.5.18.95.41,1.37.7s.75.66,1.01,1.12.38,1.04.38,1.74c0,.82-.24,1.51-.72,2.09s-1.08,1.01-1.8,1.31-1.46.44-2.21.44c-.94,0-1.89-.16-2.83-.49s-1.73-.91-2.35-1.74l.02-.02h0Z"/>  </g>  <g class="p-piece courage">    <rect class="st7" x="350.23" y="84.63" width="239.91" height="210.04" rx="5.57" ry="5.57"/>    <g>      <path class="st5" d="M427.59,181.22c.42.21.66.54.73.98.07.45-.04.86-.35,1.22-.21.29-.48.45-.8.48s-.66-.03-1-.19c-.38-.18-.79-.31-1.21-.41s-.87-.14-1.33-.14c-.86,0-1.64.14-2.32.41s-1.26.66-1.74,1.16c-.48.5-.84,1.1-1.09,1.79s-.37,1.45-.37,2.28c0,.98.14,1.82.42,2.54s.67,1.32,1.16,1.8c.5.48,1.08.84,1.75,1.07s1.4.35,2.18.35c.43,0,.86-.04,1.3-.12.43-.08.85-.22,1.25-.43.34-.16.67-.22,1-.17s.6.22.83.5c.32.4.44.81.35,1.24-.09.42-.33.73-.73.92-.42.21-.84.38-1.28.52s-.88.24-1.33.31-.9.11-1.37.11c-1.15,0-2.24-.18-3.28-.55-1.03-.37-1.95-.91-2.76-1.63s-1.44-1.62-1.91-2.7c-.46-1.08-.7-2.33-.7-3.76,0-1.23.21-2.37.64-3.41s1.02-1.94,1.8-2.7,1.69-1.35,2.75-1.78c1.06-.42,2.21-.64,3.46-.64.7,0,1.39.08,2.06.24s1.3.39,1.9.7h-.01Z"/>      <path class="st5" d="M446.33,188.8c0,1.2-.2,2.32-.6,3.36s-.96,1.96-1.69,2.75-1.59,1.41-2.59,1.86-2.09.67-3.28.67-2.27-.22-3.26-.67-1.85-1.07-2.58-1.86c-.73-.79-1.29-1.71-1.69-2.75s-.6-2.16-.6-3.36.2-2.32.6-3.36.96-1.96,1.69-2.75,1.59-1.41,2.58-1.86,2.08-.67,3.26-.67,2.28.22,3.28.67,1.86,1.07,2.59,1.86,1.29,1.71,1.69,2.75.6,2.16.6,3.36ZM443.21,188.8c0-1.07-.22-2.04-.65-2.92-.43-.87-1.02-1.56-1.78-2.08-.75-.51-1.62-.77-2.62-.77s-1.86.26-2.62.77c-.75.51-1.34,1.2-1.76,2.06s-.64,1.84-.64,2.93.21,2.04.64,2.92c.42.87,1.01,1.56,1.76,2.08.75.51,1.62.77,2.62.77s1.86-.26,2.62-.77c.75-.51,1.34-1.2,1.78-2.08.43-.87.65-1.84.65-2.92h0Z"/>      <path class="st5" d="M461.02,180.38c.42,0,.75.14,1.01.42s.38.63.38,1.04v8.69c0,1.33-.28,2.5-.85,3.53-.57,1.02-1.35,1.82-2.34,2.4s-2.14.86-3.46.86-2.47-.29-3.47-.86-1.78-1.38-2.35-2.4-.85-2.2-.85-3.53v-8.69c0-.42.14-.76.43-1.04s.66-.42,1.1-.42c.37,0,.7.14,1,.42s.44.63.44,1.04v8.69c0,.8.17,1.49.52,2.08.34.58.8,1.04,1.37,1.36s1.17.48,1.81.48c.69,0,1.33-.16,1.92-.48s1.07-.77,1.44-1.36.55-1.28.55-2.08v-8.69c0-.42.12-.76.36-1.04s.57-.42.98-.42h.01Z"/>      <path class="st5" d="M467.74,197.2c-.45,0-.85-.14-1.2-.42s-.53-.63-.53-1.04v-13.87c0-.42.14-.76.42-1.04s.63-.42,1.04-.42h6.91c.83,0,1.61.22,2.34.66s1.32,1.05,1.76,1.82c.45.78.67,1.67.67,2.68,0,.61-.12,1.2-.37,1.78s-.58,1.1-1.01,1.56c-.42.46-.9.82-1.43,1.08l.02-.55c.45.24.82.52,1.12.85s.53.68.7,1.06.27.78.3,1.21c.06.4.11.75.13,1.06.02.3.07.56.14.77s.21.37.42.48c.35.21.57.51.66.9s0,.74-.28,1.04c-.18.21-.4.34-.67.4s-.54.06-.82,0c-.27-.06-.5-.13-.67-.23-.27-.16-.54-.4-.82-.71-.27-.31-.49-.73-.66-1.26s-.25-1.21-.25-2.04c0-.27-.05-.52-.14-.76-.1-.23-.23-.43-.41-.6-.18-.17-.4-.3-.67-.38-.27-.09-.59-.13-.96-.13h-4.85l.36-.55v5.21c0,.42-.11.76-.34,1.04s-.54.42-.94.42l.03-.02h0ZM468.68,188.61h5.59c.29,0,.57-.13.84-.4.27-.26.5-.62.67-1.08.18-.46.26-.96.26-1.5,0-.7-.19-1.29-.56-1.76s-.78-.71-1.21-.71h-5.54l.29-.77v6.79l-.34-.58h0Z"/>      <path class="st5" d="M488.67,184.17l-5.18,12.19c-.11.3-.28.54-.52.71-.23.17-.48.25-.76.25-.43,0-.75-.12-.96-.36s-.31-.54-.31-.89c0-.14.02-.3.07-.46l5.98-14.35c.13-.32.32-.57.59-.74s.55-.25.85-.22c.29,0,.56.08.8.25s.43.4.54.71l5.9,14.06c.08.21.12.4.12.58,0,.43-.14.78-.42,1.03s-.59.38-.92.38c-.29,0-.55-.09-.78-.26-.23-.18-.41-.42-.54-.72l-5.16-12.02.7-.14h0ZM484.23,193.43l1.32-2.76h6.48l.46,2.76h-8.26Z"/>      <path class="st5" d="M505.64,197.44c-1.22,0-2.35-.22-3.41-.67s-1.98-1.07-2.78-1.86-1.43-1.71-1.88-2.75c-.46-1.04-.68-2.16-.68-3.36s.23-2.32.68-3.36c.46-1.04,1.08-1.96,1.88-2.75s1.73-1.41,2.78-1.86c1.06-.45,2.19-.67,3.41-.67.75,0,1.48.08,2.18.24s1.35.4,1.94.72c.24.13.42.3.54.52s.18.44.18.66c0,.38-.13.73-.38,1.03s-.58.46-.98.46c-.13,0-.26-.02-.4-.05s-.27-.08-.4-.14c-.4-.18-.82-.31-1.27-.41s-.92-.14-1.42-.14c-1.04,0-1.99.26-2.84.78-.86.52-1.54,1.22-2.04,2.09s-.76,1.84-.76,2.89.25,2,.76,2.88,1.18,1.58,2.04,2.1c.86.52,1.8.78,2.84.78.48,0,1.01-.05,1.58-.14s1.05-.22,1.42-.38l-.22.72v-4.1l.41.36h-2.66c-.42,0-.76-.14-1.04-.41s-.42-.62-.42-1.03.14-.76.42-1.03.63-.41,1.04-.41h3.94c.42,0,.76.14,1.03.42s.41.63.41,1.04v5.09c0,.32-.08.58-.23.79-.15.21-.32.38-.52.5-.74.45-1.54.8-2.41,1.07-.87.26-1.79.4-2.75.4v-.02h.01Z"/>      <path class="st5" d="M515.88,180.4h8.04c.42,0,.76.13,1.04.4.28.26.42.6.42,1.02s-.14.72-.42.97-.63.37-1.04.37h-6.72l.22-.41v4.68l-.19-.19h5.62c.42,0,.76.13,1.04.4.28.26.42.6.42,1.02s-.14.72-.42.97-.63.37-1.04.37h-5.54l.12-.19v4.85l-.19-.22h6.7c.42,0,.76.14,1.04.42s.42.6.42.97c0,.4-.14.73-.42.98-.28.26-.63.38-1.04.38h-8.04c-.42,0-.76-.14-1.04-.42s-.42-.63-.42-1.04v-13.87c0-.42.14-.76.42-1.04s.63-.42,1.04-.42h-.02Z"/>    </g>  </g>  <g class="p-piece resilience">    <rect class="st4" x="110.83" y="84.63" width="239.91" height="210.04" rx="5.57" ry="5.57"/>    <g>      <path class="st5" d="M168.62,197.19c-.45,0-.85-.14-1.2-.42s-.53-.63-.53-1.04v-13.87c0-.42.14-.76.42-1.04s.63-.42,1.04-.42h6.91c.83,0,1.61.22,2.34.66s1.32,1.05,1.76,1.82c.45.78.67,1.67.67,2.68,0,.61-.12,1.2-.37,1.78s-.58,1.1-1.01,1.56c-.42.46-.9.82-1.43,1.08l.02-.55c.45.24.82.52,1.12.85s.53.68.7,1.06.27.78.3,1.21c.06.4.11.75.13,1.06.02.3.07.56.14.77s.21.37.42.48c.35.21.57.51.66.9s0,.74-.28,1.04c-.18.21-.4.34-.67.4s-.54.06-.82,0c-.27-.06-.5-.13-.67-.23-.27-.16-.54-.4-.82-.71-.27-.31-.49-.73-.66-1.26s-.25-1.21-.25-2.04c0-.27-.05-.52-.14-.76s-.23-.43-.41-.6-.4-.3-.67-.38c-.27-.09-.59-.13-.96-.13h-4.85l.36-.55v5.21c0,.42-.11.76-.34,1.04-.22.28-.54.42-.94.42l.03-.02h0ZM169.56,188.6h5.59c.29,0,.57-.13.84-.4.27-.26.5-.62.67-1.08.18-.46.26-.96.26-1.5,0-.7-.19-1.29-.56-1.76-.38-.47-.78-.71-1.21-.71h-5.54l.29-.77v6.79l-.34-.58h0Z"/>      <path class="st5" d="M184.84,180.39h8.04c.42,0,.76.13,1.04.4.28.26.42.6.42,1.02s-.14.72-.42.97-.63.37-1.04.37h-6.72l.22-.41v4.68l-.19-.19h5.62c.42,0,.76.13,1.04.4.28.26.42.6.42,1.02s-.14.72-.42.97-.63.37-1.04.37h-5.54l.12-.19v4.85l-.19-.22h6.7c.42,0,.76.14,1.04.42s.42.6.42.97c0,.4-.14.73-.42.98-.28.26-.63.38-1.04.38h-8.04c-.42,0-.76-.14-1.04-.42s-.42-.63-.42-1.04v-13.87c0-.42.14-.76.42-1.04s.63-.42,1.04-.42h-.02,0Z"/>      <path class="st5" d="M202.51,197.43c-1.12,0-2.13-.14-3.02-.42s-1.75-.77-2.57-1.48c-.21-.18-.37-.38-.48-.6s-.17-.45-.17-.67c0-.37.13-.69.4-.97.26-.28.6-.42,1-.42.3,0,.58.1.82.29.61.5,1.21.87,1.81,1.13.6.26,1.34.38,2.22.38.59,0,1.14-.09,1.63-.28s.9-.43,1.2-.74c.3-.31.46-.67.46-1.07,0-.48-.14-.89-.43-1.22s-.73-.62-1.32-.85c-.59-.23-1.34-.41-2.26-.54-.86-.13-1.62-.32-2.28-.59-.66-.26-1.2-.6-1.64-1.01-.44-.41-.77-.89-1-1.44-.22-.55-.34-1.17-.34-1.86,0-1.04.27-1.93.8-2.66.54-.74,1.26-1.3,2.17-1.68.91-.38,1.92-.58,3.02-.58,1.04,0,2,.16,2.89.47s1.61.71,2.17,1.19c.46.37.7.79.7,1.27,0,.35-.14.67-.41.96-.27.29-.59.43-.96.43-.24,0-.46-.07-.65-.22-.26-.22-.6-.44-1.03-.64s-.89-.37-1.37-.5c-.48-.14-.93-.2-1.34-.2-.69,0-1.27.09-1.74.26-.47.18-.83.42-1.07.72s-.36.66-.36,1.06c0,.48.14.88.42,1.19s.68.56,1.21.74c.53.18,1.16.35,1.9.49.96.18,1.8.38,2.53.62.73.24,1.33.55,1.81.92.48.38.84.85,1.08,1.42.24.57.36,1.26.36,2.08,0,1.04-.29,1.94-.86,2.69s-1.33,1.33-2.27,1.73-1.95.6-3.04.6h0Z"/>      <path class="st5" d="M214.43,195.73c0,.42-.15.76-.46,1.04-.3.28-.66.42-1.06.42-.45,0-.81-.14-1.08-.42s-.41-.63-.41-1.04v-13.87c0-.42.14-.76.43-1.04s.66-.42,1.1-.42c.38,0,.72.14,1.02.42s.44.63.44,1.04v13.87h.02Z"/>      <path class="st5" d="M227.3,194.38c.42,0,.76.13,1.04.4.28.26.42.6.42,1.02s-.14.73-.42,1c-.28.26-.63.4-1.04.4h-7.8c-.42,0-.76-.14-1.04-.42s-.42-.63-.42-1.04v-13.87c0-.42.14-.76.43-1.04s.66-.42,1.1-.42c.38,0,.72.14,1.02.42s.44.63.44,1.04v12.94l-.53-.41h6.79v-.02h0Z"/>      <path class="st5" d="M234.52,195.73c0,.42-.15.76-.46,1.04-.3.28-.66.42-1.06.42-.45,0-.81-.14-1.08-.42s-.41-.63-.41-1.04v-13.87c0-.42.14-.76.43-1.04s.66-.42,1.1-.42c.38,0,.72.14,1.02.42s.44.63.44,1.04v13.87h.02Z"/>      <path class="st5" d="M239.59,180.39h8.04c.42,0,.76.13,1.04.4.28.26.42.6.42,1.02s-.14.72-.42.97-.63.37-1.04.37h-6.72l.22-.41v4.68l-.19-.19h5.62c.42,0,.76.13,1.04.4.28.26.42.6.42,1.02s-.14.72-.42.97-.63.37-1.04.37h-5.54l.12-.19v4.85l-.19-.22h6.7c.42,0,.76.14,1.04.42s.42.6.42.97c0,.4-.14.73-.42.98-.28.26-.63.38-1.04.38h-8.04c-.42,0-.76-.14-1.04-.42s-.42-.63-.42-1.04v-13.87c0-.42.14-.76.42-1.04s.63-.42,1.04-.42h-.02,0Z"/>      <path class="st5" d="M264.59,180.39c.38,0,.7.13.94.38.24.26.36.58.36.96v13.99c0,.42-.14.76-.42,1.04s-.63.42-1.04.42c-.21,0-.42-.04-.64-.11s-.38-.17-.49-.3l-9.43-11.98.62-.38v11.42c0,.38-.12.7-.37.96-.25.26-.57.38-.97.38s-.7-.13-.94-.38-.36-.58-.36-.96v-13.99c0-.42.14-.76.42-1.04s.63-.42,1.04-.42c.22,0,.46.04.7.13s.42.22.53.4l9.14,11.66-.41.29v-11.14c0-.38.12-.7.36-.96.24-.26.56-.38.96-.38h0Z"/>      <path class="st5" d="M281.25,181.21c.42.21.66.54.73.98.07.45-.04.86-.35,1.22-.21.29-.48.45-.8.48-.33.03-.66-.03-1-.19-.38-.18-.79-.31-1.21-.41s-.87-.14-1.33-.14c-.86,0-1.64.14-2.32.41s-1.26.66-1.74,1.16c-.48.5-.84,1.1-1.09,1.79-.25.69-.37,1.45-.37,2.28,0,.98.14,1.82.42,2.54.28.72.67,1.32,1.16,1.8s1.08.84,1.75,1.07,1.4.35,2.18.35c.43,0,.86-.04,1.3-.12.43-.08.85-.22,1.25-.43.34-.16.67-.22,1-.17s.6.22.83.5c.32.4.44.81.35,1.24-.09.42-.33.73-.73.92-.42.21-.84.38-1.28.52s-.88.24-1.33.31c-.45.07-.9.11-1.37.11-1.15,0-2.24-.18-3.28-.55s-1.95-.91-2.76-1.63-1.44-1.62-1.91-2.7c-.46-1.08-.7-2.33-.7-3.76,0-1.23.21-2.37.64-3.41.42-1.04,1.02-1.94,1.8-2.7s1.69-1.35,2.75-1.78c1.06-.42,2.21-.64,3.46-.64.7,0,1.39.08,2.06.24s1.3.39,1.9.7h-.01Z"/>      <path class="st5" d="M286,180.39h8.04c.42,0,.76.13,1.04.4.28.26.42.6.42,1.02s-.14.72-.42.97-.63.37-1.04.37h-6.72l.22-.41v4.68l-.19-.19h5.62c.42,0,.76.13,1.04.4.28.26.42.6.42,1.02s-.14.72-.42.97-.63.37-1.04.37h-5.54l.12-.19v4.85l-.19-.22h6.7c.42,0,.76.14,1.04.42s.42.6.42.97c0,.4-.14.73-.42.98-.28.26-.63.38-1.04.38h-8.04c-.42,0-.76-.14-1.04-.42s-.42-.63-.42-1.04v-13.87c0-.42.14-.76.42-1.04s.63-.42,1.04-.42h-.02Z"/>    </g>  </g>  <g class="p-piece perseverance">    <rect class="st8" x="589.65" y="84.63" width="239.91" height="210.04" rx="5.57" ry="5.57"/>    <g>      <path class="st5" d="M627.84,180.39c.83,0,1.61.24,2.34.72.73.48,1.32,1.13,1.76,1.94.45.82.67,1.73.67,2.74s-.22,1.9-.67,2.71c-.45.82-1.04,1.47-1.76,1.96-.73.49-1.51.73-2.34.73h-4.42l.24-.43v4.97c0,.42-.13.76-.38,1.04s-.59.42-1.01.42-.73-.14-.98-.42-.38-.63-.38-1.04v-13.87c0-.42.14-.76.42-1.04s.63-.42,1.04-.42h5.47ZM627.84,188.46c.3,0,.6-.13.89-.38s.53-.59.72-1,.29-.84.29-1.28-.1-.9-.29-1.3c-.19-.4-.43-.72-.72-.97s-.58-.37-.89-.37h-4.46l.29-.43v6.12l-.26-.38h4.44-.01,0Z"/>      <path class="st5" d="M636.84,180.39h8.04c.42,0,.76.13,1.04.4.28.26.42.6.42,1.02s-.14.72-.42.97-.63.37-1.04.37h-6.72l.22-.41v4.68l-.19-.19h5.62c.42,0,.76.13,1.04.4.28.26.42.6.42,1.02s-.14.72-.42.97-.63.37-1.04.37h-5.54l.12-.19v4.85l-.19-.22h6.7c.42,0,.76.14,1.04.42.28.28.42.6.42.97,0,.4-.14.73-.42.98-.28.26-.63.38-1.04.38h-8.04c-.42,0-.76-.14-1.04-.42s-.42-.63-.42-1.04v-13.87c0-.42.14-.76.42-1.04s.63-.42,1.04-.42h-.02Z"/>      <path class="st5" d="M650.84,197.19c-.45,0-.85-.14-1.2-.42-.35-.28-.53-.63-.53-1.04v-13.87c0-.42.14-.76.42-1.04s.63-.42,1.04-.42h6.91c.83,0,1.61.22,2.34.66.73.44,1.32,1.05,1.76,1.82.45.78.67,1.67.67,2.68,0,.61-.12,1.2-.37,1.78s-.58,1.1-1.01,1.56c-.42.46-.9.82-1.43,1.08l.02-.55c.45.24.82.52,1.12.85s.53.68.7,1.06.27.78.3,1.21c.06.4.11.75.13,1.06.02.3.07.56.14.77s.21.37.42.48c.35.21.57.51.66.9.09.39,0,.74-.28,1.04-.18.21-.4.34-.67.4s-.54.06-.82,0c-.27-.06-.5-.13-.67-.23-.27-.16-.54-.4-.82-.71-.27-.31-.49-.73-.66-1.26s-.25-1.21-.25-2.04c0-.27-.05-.52-.14-.76-.1-.23-.23-.43-.41-.6s-.4-.3-.67-.38c-.27-.09-.59-.13-.96-.13h-4.85l.36-.55v5.21c0,.42-.11.76-.34,1.04s-.54.42-.94.42l.03-.02h0ZM651.77,188.6h5.59c.29,0,.57-.13.84-.4.27-.26.5-.62.67-1.08.18-.46.26-.96.26-1.5,0-.7-.19-1.29-.56-1.76s-.78-.71-1.21-.71h-5.54l.29-.77v6.79l-.34-.58h0Z"/>      <path class="st5" d="M671,197.43c-1.12,0-2.13-.14-3.02-.42-.9-.28-1.75-.77-2.57-1.48-.21-.18-.37-.38-.48-.6s-.17-.45-.17-.67c0-.37.13-.69.4-.97.26-.28.6-.42,1-.42.3,0,.58.1.82.29.61.5,1.21.87,1.81,1.13s1.34.38,2.22.38c.59,0,1.14-.09,1.63-.28s.9-.43,1.2-.74c.3-.31.46-.67.46-1.07,0-.48-.14-.89-.43-1.22s-.73-.62-1.32-.85-1.34-.41-2.26-.54c-.86-.13-1.62-.32-2.28-.59-.66-.26-1.2-.6-1.64-1.01-.44-.41-.77-.89-1-1.44-.22-.55-.34-1.17-.34-1.86,0-1.04.27-1.93.8-2.66.54-.74,1.26-1.3,2.17-1.68s1.92-.58,3.02-.58c1.04,0,2,.16,2.89.47s1.61.71,2.17,1.19c.46.37.7.79.7,1.27,0,.35-.14.67-.41.96-.27.29-.59.43-.96.43-.24,0-.46-.07-.65-.22-.26-.22-.6-.44-1.03-.64s-.89-.37-1.37-.5c-.48-.14-.93-.2-1.34-.2-.69,0-1.27.09-1.74.26-.47.18-.83.42-1.07.72s-.36.66-.36,1.06c0,.48.14.88.42,1.19s.68.56,1.21.74,1.16.35,1.9.49c.96.18,1.8.38,2.53.62.73.24,1.33.55,1.81.92.48.38.84.85,1.08,1.42s.36,1.26.36,2.08c0,1.04-.29,1.94-.86,2.69s-1.33,1.33-2.27,1.73-1.95.6-3.04.6h.01Z"/>      <path class="st5" d="M681.39,180.39h8.04c.42,0,.76.13,1.04.4.28.26.42.6.42,1.02s-.14.72-.42.97-.63.37-1.04.37h-6.72l.22-.41v4.68l-.19-.19h5.62c.42,0,.76.13,1.04.4.28.26.42.6.42,1.02s-.14.72-.42.97-.63.37-1.04.37h-5.54l.12-.19v4.85l-.19-.22h6.7c.42,0,.76.14,1.04.42.28.28.42.6.42.97,0,.4-.14.73-.42.98-.28.26-.63.38-1.04.38h-8.04c-.42,0-.76-.14-1.04-.42s-.42-.63-.42-1.04v-13.87c0-.42.14-.76.42-1.04s.63-.42,1.04-.42h-.02Z"/>      <path class="st5" d="M705.92,180.35c.4,0,.75.13,1.04.4.3.26.44.6.44,1,0,.21-.05.42-.14.65l-5.93,13.87c-.14.32-.35.56-.61.71s-.53.23-.8.23c-.26-.02-.5-.1-.74-.25s-.42-.37-.55-.66l-5.93-13.92c-.05-.1-.08-.2-.1-.3s-.02-.2-.02-.3c0-.46.17-.82.5-1.07s.66-.37.96-.37c.61,0,1.05.31,1.32.94l5.26,12.36-.84.02,4.82-12.38c.27-.61.71-.91,1.32-.91v-.02h0Z"/>      <path class="st5" d="M711.39,180.39h8.04c.42,0,.76.13,1.04.4.28.26.42.6.42,1.02s-.14.72-.42.97-.63.37-1.04.37h-6.72l.22-.41v4.68l-.19-.19h5.62c.42,0,.76.13,1.04.4.28.26.42.6.42,1.02s-.14.72-.42.97-.63.37-1.04.37h-5.54l.12-.19v4.85l-.19-.22h6.7c.42,0,.76.14,1.04.42.28.28.42.6.42.97,0,.4-.14.73-.42.98-.28.26-.63.38-1.04.38h-8.04c-.42,0-.76-.14-1.04-.42s-.42-.63-.42-1.04v-13.87c0-.42.14-.76.42-1.04s.63-.42,1.04-.42h-.02Z"/>      <path class="st5" d="M725.38,197.19c-.45,0-.85-.14-1.2-.42-.35-.28-.53-.63-.53-1.04v-13.87c0-.42.14-.76.42-1.04s.63-.42,1.04-.42h6.91c.83,0,1.61.22,2.34.66s1.32,1.05,1.76,1.82c.45.78.67,1.67.67,2.68,0,.61-.12,1.2-.37,1.78s-.58,1.1-1.01,1.56c-.42.46-.9.82-1.43,1.08l.02-.55c.45.24.82.52,1.12.85s.53.68.7,1.06.27.78.3,1.21c.06.4.11.75.13,1.06.02.3.07.56.14.77s.21.37.42.48c.35.21.57.51.66.9s0,.74-.28,1.04c-.18.21-.4.34-.67.4s-.54.06-.82,0c-.27-.06-.5-.13-.67-.23-.27-.16-.54-.4-.82-.71-.27-.31-.49-.73-.66-1.26s-.25-1.21-.25-2.04c0-.27-.05-.52-.14-.76-.1-.23-.23-.43-.41-.6-.18-.17-.4-.3-.67-.38-.27-.09-.59-.13-.96-.13h-4.85l.36-.55v5.21c0,.42-.11.76-.34,1.04s-.54.42-.94.42l.03-.02h0ZM726.32,188.6h5.59c.29,0,.57-.13.84-.4.27-.26.5-.62.67-1.08.18-.46.26-.96.26-1.5,0-.7-.19-1.29-.56-1.76s-.78-.71-1.21-.71h-5.54l.29-.77v6.79l-.34-.58h0Z"/>      <path class="st5" d="M746.31,184.16l-5.18,12.19c-.11.3-.28.54-.52.71-.23.17-.48.25-.76.25-.43,0-.75-.12-.96-.36s-.31-.54-.31-.89c0-.14.02-.3.07-.46l5.98-14.35c.13-.32.32-.57.59-.74s.55-.25.85-.22c.29,0,.56.08.8.25s.43.4.54.71l5.9,14.06c.08.21.12.4.12.58,0,.43-.14.78-.42,1.03s-.59.38-.92.38c-.29,0-.55-.09-.78-.26-.23-.18-.41-.42-.54-.72l-5.16-12.02.7-.14h0ZM741.87,193.43l1.32-2.76h6.48l.46,2.76h-8.26Z"/>      <path class="st5" d="M768.22,180.39c.38,0,.7.13.94.38.24.26.36.58.36.96v13.99c0,.42-.14.76-.42,1.04s-.63.42-1.04.42c-.21,0-.42-.04-.64-.11s-.38-.17-.49-.3l-9.43-11.98.62-.38v11.42c0,.38-.12.7-.37.96s-.57.38-.97.38-.7-.13-.94-.38-.36-.58-.36-.96v-13.99c0-.42.14-.76.42-1.04s.63-.42,1.04-.42c.22,0,.46.04.7.13s.42.22.53.4l9.14,11.66-.41.29v-11.14c0-.38.12-.7.36-.96s.56-.38.96-.38h0Z"/>      <path class="st5" d="M784.87,181.21c.42.21.66.54.73.98.07.45-.04.86-.35,1.22-.21.29-.48.45-.8.48s-.66-.03-1-.19c-.38-.18-.79-.31-1.21-.41-.42-.1-.87-.14-1.33-.14-.86,0-1.64.14-2.32.41s-1.26.66-1.74,1.16-.84,1.1-1.09,1.79-.37,1.45-.37,2.28c0,.98.14,1.82.42,2.54s.67,1.32,1.16,1.8c.5.48,1.08.84,1.75,1.07s1.4.35,2.18.35c.43,0,.86-.04,1.3-.12.43-.08.85-.22,1.25-.43.34-.16.67-.22,1-.17s.6.22.83.5c.32.4.44.81.35,1.24-.09.42-.33.73-.73.92-.42.21-.84.38-1.28.52s-.88.24-1.33.31-.9.11-1.37.11c-1.15,0-2.24-.18-3.28-.55-1.03-.37-1.95-.91-2.76-1.63s-1.44-1.62-1.91-2.7c-.46-1.08-.7-2.33-.7-3.76,0-1.23.21-2.37.64-3.41s1.02-1.94,1.8-2.7,1.69-1.35,2.75-1.78c1.06-.42,2.21-.64,3.46-.64.7,0,1.39.08,2.06.24s1.3.39,1.9.7h0Z"/>      <path class="st5" d="M789.63,180.39h8.04c.42,0,.76.13,1.04.4.28.26.42.6.42,1.02s-.14.72-.42.97-.63.37-1.04.37h-6.72l.22-.41v4.68l-.19-.19h5.62c.42,0,.76.13,1.04.4.28.26.42.6.42,1.02s-.14.72-.42.97-.63.37-1.04.37h-5.54l.12-.19v4.85l-.19-.22h6.7c.42,0,.76.14,1.04.42.28.28.42.6.42.97,0,.4-.14.73-.42.98-.28.26-.63.38-1.04.38h-8.04c-.42,0-.76-.14-1.04-.42s-.42-.63-.42-1.04v-13.87c0-.42.14-.76.42-1.04s.63-.42,1.04-.42h-.02Z"/>    </g>  </g>  <g class="p-piece kindness">    <rect class="st2" x="110.34" y="929.55" width="239.91" height="210.04" rx="5.57" ry="5.57"/>    <g>      <path class="st5" d="M175.01,1042.12c-.45,0-.81-.14-1.08-.42s-.41-.63-.41-1.04v-13.87c0-.42.14-.76.43-1.04s.66-.42,1.1-.42.8.14,1.07.42c.26.28.4.63.4,1.04v13.87c0,.42-.14.76-.41,1.04s-.64.42-1.1.42h0ZM185.38,1025.2c.38,0,.7.16.95.47s.37.63.37.95c0,.34-.14.65-.43.94l-10.06,9.62-.12-3.43,8.11-7.99c.37-.37.76-.55,1.18-.55h0ZM185.09,1042.12c-.45,0-.81-.18-1.08-.55l-5.54-7.3,2.18-2.23,5.74,7.58c.22.3.34.63.34.98,0,.45-.17.81-.5,1.09-.34.28-.71.42-1.13.42h0Z"/>      <path class="st5" d="M192.25,1040.66c0,.42-.15.76-.46,1.04-.3.28-.66.42-1.06.42-.45,0-.81-.14-1.08-.42s-.41-.63-.41-1.04v-13.87c0-.42.14-.76.43-1.04s.66-.42,1.1-.42c.38,0,.72.14,1.02.42s.44.63.44,1.04v13.87h.02Z"/>      <path class="st5" d="M208.59,1025.32c.38,0,.7.13.94.38.24.26.36.58.36.96v13.99c0,.42-.14.76-.42,1.04s-.63.42-1.04.42c-.21,0-.42-.04-.64-.11s-.38-.17-.49-.3l-9.43-11.98.62-.38v11.42c0,.38-.12.7-.37.96s-.57.38-.97.38-.7-.13-.94-.38-.36-.58-.36-.96v-13.99c0-.42.14-.76.42-1.04s.63-.42,1.04-.42c.22,0,.46.04.7.13s.42.22.53.4l9.14,11.66-.41.29v-11.14c0-.38.12-.7.36-.96s.56-.38.96-.38h0Z"/>      <path class="st5" d="M220.69,1025.32c1.15,0,2.18.22,3.07.65.9.43,1.65,1.04,2.27,1.81s1.08,1.67,1.39,2.69.47,2.1.47,3.25c0,1.55-.28,2.96-.84,4.24-.56,1.27-1.37,2.28-2.44,3.04s-2.37,1.13-3.92,1.13h-5.74c-.42,0-.76-.14-1.04-.42s-.42-.63-.42-1.04v-13.87c0-.42.14-.76.42-1.04s.63-.42,1.04-.42h5.74v-.02h0ZM220.45,1039.36c1.01,0,1.83-.26,2.47-.78s1.11-1.21,1.4-2.06.44-1.79.44-2.8c0-.75-.08-1.47-.25-2.15s-.43-1.28-.78-1.8-.8-.93-1.34-1.24c-.54-.3-1.19-.46-1.94-.46h-4.2l.24-.22v11.76l-.14-.26h4.1,0Z"/>      <path class="st5" d="M243.39,1025.32c.38,0,.7.13.94.38.24.26.36.58.36.96v13.99c0,.42-.14.76-.42,1.04s-.63.42-1.04.42c-.21,0-.42-.04-.64-.11s-.38-.17-.49-.3l-9.43-11.98.62-.38v11.42c0,.38-.12.7-.37.96s-.57.38-.97.38-.7-.13-.94-.38-.36-.58-.36-.96v-13.99c0-.42.14-.76.42-1.04s.63-.42,1.04-.42c.22,0,.46.04.7.13s.42.22.53.4l9.14,11.66-.41.29v-11.14c0-.38.12-.7.36-.96s.56-.38.96-.38h0Z"/>      <path class="st5" d="M249.75,1025.32h8.04c.42,0,.76.13,1.04.4.28.26.42.6.42,1.02s-.14.72-.42.97-.63.37-1.04.37h-6.72l.22-.41v4.68l-.19-.19h5.62c.42,0,.76.13,1.04.4.28.26.42.6.42,1.02s-.14.72-.42.97-.63.37-1.04.37h-5.54l.12-.19v4.85l-.19-.22h6.7c.42,0,.76.14,1.04.42s.42.6.42.97c0,.4-.14.73-.42.98-.28.26-.63.38-1.04.38h-8.04c-.42,0-.76-.14-1.04-.42s-.42-.63-.42-1.04v-13.87c0-.42.14-.76.42-1.04s.63-.42,1.04-.42h-.02Z"/>      <path class="st5" d="M267.41,1042.36c-1.12,0-2.13-.14-3.02-.42s-1.75-.77-2.57-1.48c-.21-.18-.37-.38-.48-.6s-.17-.45-.17-.67c0-.37.13-.69.4-.97.26-.28.6-.42,1-.42.3,0,.58.1.82.29.61.5,1.21.87,1.81,1.13s1.34.38,2.22.38c.59,0,1.14-.09,1.63-.28s.9-.43,1.2-.74c.3-.31.46-.67.46-1.07,0-.48-.14-.89-.43-1.22s-.73-.62-1.32-.85-1.34-.41-2.26-.54c-.86-.13-1.62-.32-2.28-.59-.66-.26-1.2-.6-1.64-1.01s-.77-.89-1-1.44c-.22-.55-.34-1.17-.34-1.86,0-1.04.27-1.93.8-2.66.54-.74,1.26-1.3,2.17-1.68s1.92-.58,3.02-.58c1.04,0,2,.16,2.89.47s1.61.71,2.17,1.19c.46.37.7.79.7,1.27,0,.35-.14.67-.41.96-.27.29-.59.43-.96.43-.24,0-.46-.07-.65-.22-.26-.22-.6-.44-1.03-.64s-.89-.37-1.37-.5c-.48-.14-.93-.2-1.34-.2-.69,0-1.27.09-1.74.26-.47.18-.83.42-1.07.72s-.36.66-.36,1.06c0,.48.14.88.42,1.19s.68.56,1.21.74c.53.18,1.16.35,1.9.49.96.18,1.8.38,2.53.62s1.33.55,1.81.92c.48.38.84.85,1.08,1.42.24.57.36,1.26.36,2.08,0,1.04-.29,1.94-.86,2.69s-1.33,1.33-2.27,1.73-1.95.6-3.04.6h0Z"/>      <path class="st5" d="M281.74,1042.36c-1.12,0-2.13-.14-3.02-.42s-1.75-.77-2.57-1.48c-.21-.18-.37-.38-.48-.6s-.17-.45-.17-.67c0-.37.13-.69.4-.97.26-.28.6-.42,1-.42.3,0,.58.1.82.29.61.5,1.21.87,1.81,1.13s1.34.38,2.22.38c.59,0,1.14-.09,1.63-.28s.9-.43,1.2-.74c.3-.31.46-.67.46-1.07,0-.48-.14-.89-.43-1.22s-.73-.62-1.32-.85-1.34-.41-2.26-.54c-.86-.13-1.62-.32-2.28-.59-.66-.26-1.2-.6-1.64-1.01s-.77-.89-1-1.44c-.22-.55-.34-1.17-.34-1.86,0-1.04.27-1.93.8-2.66.54-.74,1.26-1.3,2.17-1.68s1.92-.58,3.02-.58c1.04,0,2,.16,2.89.47s1.61.71,2.17,1.19c.46.37.7.79.7,1.27,0,.35-.14.67-.41.96-.27.29-.59.43-.96.43-.24,0-.46-.07-.65-.22-.26-.22-.6-.44-1.03-.64s-.89-.37-1.37-.5c-.48-.14-.93-.2-1.34-.2-.69,0-1.27.09-1.74.26-.47.18-.83.42-1.07.72s-.36.66-.36,1.06c0,.48.14.88.42,1.19s.68.56,1.21.74c.53.18,1.16.35,1.9.49.96.18,1.8.38,2.53.62s1.33.55,1.81.92c.48.38.84.85,1.08,1.42.24.57.36,1.26.36,2.08,0,1.04-.29,1.94-.86,2.69s-1.33,1.33-2.27,1.73-1.95.6-3.04.6h0Z"/>    </g>  </g>  <rect class="st6" x="589.65" y="507.14" width="239.91" height="210.04" rx="5.57" ry="5.57"/>  <g>    <path class="st3" d="M670.52,589.24c1.15,0,2.18.22,3.07.65.9.43,1.65,1.04,2.27,1.81s1.08,1.67,1.39,2.69.47,2.1.47,3.25c0,1.55-.28,2.96-.84,4.24-.56,1.27-1.37,2.28-2.44,3.04s-2.37,1.13-3.92,1.13h-5.74c-.42,0-.76-.14-1.04-.42s-.42-.63-.42-1.04v-13.87c0-.42.14-.76.42-1.04s.63-.42,1.04-.42h5.74v-.02h0ZM670.28,603.28c1.01,0,1.83-.26,2.47-.78.64-.52,1.11-1.21,1.4-2.06.3-.86.44-1.79.44-2.8,0-.75-.08-1.47-.25-2.15s-.43-1.28-.78-1.8c-.35-.52-.8-.93-1.34-1.24s-1.19-.46-1.94-.46h-4.2l.24-.22v11.76l-.14-.26h4.1Z"/>    <path class="st3" d="M686.48,606.28c-1.36,0-2.54-.28-3.54-.85s-1.77-1.34-2.3-2.32-.8-2.08-.8-3.31c0-1.44.29-2.67.88-3.68s1.35-1.8,2.29-2.34,1.94-.82,3-.82c.82,0,1.59.17,2.32.5.73.34,1.37.8,1.93,1.38s1,1.26,1.33,2.03.49,1.58.49,2.45c-.02.38-.17.7-.46.94s-.62.36-1.01.36h-9.17l-.72-2.4h8.81l-.53.48v-.65c-.03-.46-.2-.88-.49-1.25-.3-.37-.66-.66-1.1-.88s-.91-.32-1.4-.32-.93.06-1.34.19-.78.34-1.08.65c-.3.3-.54.71-.72,1.22s-.26,1.16-.26,1.94c0,.86.18,1.6.54,2.2s.82,1.06,1.39,1.37,1.17.47,1.81.47c.59,0,1.06-.05,1.42-.14s.64-.21.85-.35c.22-.14.41-.25.59-.35.29-.14.56-.22.82-.22.35,0,.64.12.88.36.23.24.35.52.35.84,0,.43-.22.82-.67,1.18-.42.35-1,.66-1.75.92s-1.53.4-2.33.4h-.03,0Z"/>    <path class="st3" d="M700.3,592.96c.91,0,1.71.1,2.39.29s1.21.46,1.58.8c.38.34.56.76.56,1.24,0,.32-.1.62-.29.9s-.47.42-.84.42c-.26,0-.47-.04-.64-.11s-.32-.16-.44-.28c-.13-.11-.28-.22-.46-.31-.16-.1-.4-.17-.73-.23-.33-.06-.57-.08-.73-.08-.82,0-1.51.18-2.08.53s-1,.83-1.31,1.43c-.3.6-.46,1.29-.46,2.08s.16,1.45.47,2.05.74,1.08,1.3,1.43c.55.35,1.19.53,1.91.53.4,0,.74-.02,1.03-.07s.53-.12.72-.22c.22-.13.42-.26.6-.41.18-.14.44-.22.79-.22.42,0,.74.13.96.4.22.26.34.59.34.97s-.22.76-.67,1.09-1.04.59-1.76.79c-.73.2-1.52.3-2.36.3-1.26,0-2.36-.29-3.29-.88-.93-.58-1.64-1.38-2.15-2.39-.5-1.01-.76-2.14-.76-3.38,0-1.31.27-2.47.8-3.47s1.28-1.78,2.23-2.35c.95-.57,2.04-.85,3.28-.85h.01Z"/>    <path class="st3" d="M708.32,591.64c-.54,0-.93-.09-1.15-.26-.22-.18-.34-.49-.34-.94v-.46c0-.46.12-.78.37-.95s.63-.25,1.14-.25c.56,0,.95.09,1.18.26.22.18.34.49.34.94v.46c0,.46-.12.78-.36.95s-.63.25-1.18.25ZM709.78,604.57c0,.42-.14.76-.41,1.04-.27.28-.62.42-1.03.42s-.76-.14-1.03-.42-.41-.63-.41-1.04v-9.91c0-.42.14-.76.41-1.04s.62-.42,1.03-.42.76.14,1.03.42.41.63.41,1.04v9.91Z"/>    <path class="st3" d="M711.99,604.04c-.16-.22-.23-.51-.22-.86.02-.35.22-.66.62-.91.26-.16.53-.23.82-.2.29.02.57.17.84.44.46.46.95.82,1.46,1.08s1.15.38,1.92.38c.24-.02.5-.05.79-.11s.54-.18.76-.38c.22-.2.32-.51.32-.92,0-.35-.12-.63-.36-.84s-.56-.38-.95-.53c-.39-.14-.83-.28-1.31-.41-.5-.14-1-.3-1.52-.48s-1-.4-1.43-.68-.78-.65-1.06-1.12c-.27-.46-.41-1.05-.41-1.75,0-.8.22-1.48.67-2.04s1.03-.99,1.74-1.3,1.46-.46,2.24-.46c.5,0,1.02.06,1.56.18s1.06.31,1.56.58c.5.26.91.61,1.25,1.04.18.24.28.53.31.86.03.34-.12.64-.46.91-.24.19-.52.28-.84.25-.32-.02-.58-.13-.79-.32-.27-.35-.64-.63-1.09-.84s-.98-.31-1.57-.31c-.24,0-.5.03-.78.08-.28.06-.52.18-.73.36-.21.18-.31.48-.31.88,0,.37.12.66.36.88s.56.39.97.53.84.27,1.31.4c.48.13.97.28,1.46.46.5.18.95.41,1.37.7s.75.66,1.01,1.12.38,1.04.38,1.74c0,.82-.24,1.51-.72,2.09s-1.08,1.01-1.8,1.31-1.46.44-2.21.44c-.94,0-1.89-.16-2.83-.49s-1.73-.91-2.35-1.74l.02-.02h0Z"/>    <path class="st3" d="M725.55,591.64c-.54,0-.93-.09-1.15-.26-.22-.18-.34-.49-.34-.94v-.46c0-.46.12-.78.37-.95s.63-.25,1.14-.25c.56,0,.95.09,1.18.26.22.18.34.49.34.94v.46c0,.46-.12.78-.36.95s-.63.25-1.18.25ZM727.01,604.57c0,.42-.14.76-.41,1.04-.27.28-.62.42-1.03.42s-.76-.14-1.03-.42-.41-.63-.41-1.04v-9.91c0-.42.14-.76.41-1.04s.62-.42,1.03-.42.76.14,1.03.42.41.63.41,1.04v9.91Z"/>    <path class="st3" d="M742.42,599.63c0,1.31-.29,2.47-.88,3.47-.58,1-1.37,1.78-2.35,2.34s-2.08.84-3.3.84-2.32-.28-3.3-.84-1.77-1.34-2.35-2.34c-.58-1-.88-2.16-.88-3.47s.29-2.47.88-3.47,1.37-1.78,2.35-2.35,2.08-.85,3.3-.85,2.32.28,3.3.85,1.77,1.35,2.35,2.35.88,2.16.88,3.47ZM739.54,599.63c0-.82-.16-1.52-.49-2.12s-.77-1.07-1.32-1.4c-.55-.34-1.16-.5-1.84-.5s-1.28.17-1.84.5c-.55.34-.99.8-1.32,1.4s-.49,1.31-.49,2.12.16,1.5.49,2.1.77,1.07,1.32,1.4c.55.34,1.16.5,1.84.5s1.28-.17,1.84-.5.99-.8,1.32-1.4.49-1.3.49-2.1Z"/>    <path class="st3" d="M751.81,592.96c1.18,0,2.08.25,2.7.74s1.04,1.16,1.27,1.98c.23.82.35,1.74.35,2.75v6.14c0,.42-.14.76-.41,1.04-.27.28-.62.42-1.03.42s-.76-.14-1.03-.42-.41-.63-.41-1.04v-6.14c0-.53-.07-1-.2-1.43-.14-.42-.38-.76-.73-1.02s-.86-.38-1.51-.38-1.18.13-1.62.38-.78.6-1.01,1.02c-.23.42-.35.9-.35,1.43v6.14c0,.42-.14.76-.41,1.04-.27.28-.62.42-1.03.42s-.76-.14-1.03-.42-.41-.63-.41-1.04v-9.91c0-.42.14-.76.41-1.04s.62-.42,1.03-.42.76.14,1.03.42.41.63.41,1.04v1.03l-.36-.07c.14-.27.35-.56.62-.88.27-.31.59-.6.96-.88.37-.27.78-.49,1.25-.66.46-.17.97-.25,1.51-.25h0Z"/>    <path class="st3" d="M671.08,616.56c.22,0,.46.06.71.18s.44.28.56.47l5.83,8.98-1.2-.05,5.98-8.93c.3-.43.7-.65,1.18-.65.38,0,.73.14,1.03.41.3.27.46.62.46,1.06v13.9c0,.42-.14.76-.41,1.04-.27.28-.63.42-1.08.42s-.81-.14-1.09-.42-.42-.63-.42-1.04v-11.3l.94.22-4.9,7.46c-.14.18-.32.33-.54.46s-.44.18-.66.17c-.21.02-.42-.04-.64-.17-.22-.13-.4-.28-.54-.46l-4.58-7.25.62-1.27v12.14c0,.42-.13.76-.38,1.04s-.59.42-1.01.42-.73-.14-.98-.42-.38-.63-.38-1.04v-13.9c0-.4.15-.74.44-1.03.3-.29.65-.43,1.07-.43h-.01Z"/>    <path class="st3" d="M699.5,620.31c.42,0,.76.14,1.03.41s.41.62.41,1.06v10.15c0,.42-.14.76-.41,1.04-.27.28-.62.42-1.03.42s-.76-.14-1.03-.42-.41-.63-.41-1.04v-1.18l.53.22c0,.21-.11.46-.34.76-.22.3-.53.59-.91.88s-.84.53-1.36.73c-.52.2-1.08.3-1.69.3-1.1,0-2.1-.28-3-.85s-1.6-1.35-2.12-2.35-.78-2.15-.78-3.44.26-2.47.78-3.47,1.22-1.78,2.1-2.35,1.86-.85,2.93-.85c.69,0,1.32.1,1.9.31s1.08.47,1.5.79.75.64.98.97.35.6.35.83l-.86.31v-1.75c0-.42.14-.76.41-1.04.27-.28.62-.42,1.03-.42v-.02h-.01ZM694.65,630.99c.7,0,1.32-.18,1.85-.53.53-.35.94-.83,1.24-1.44s.44-1.29.44-2.04-.15-1.46-.44-2.06-.71-1.09-1.24-1.44c-.53-.35-1.14-.53-1.85-.53s-1.3.18-1.82.53c-.53.35-.94.83-1.24,1.44s-.44,1.3-.44,2.06.15,1.43.44,2.04c.3.61.71,1.09,1.24,1.44.53.35,1.14.53,1.82.53Z"/>    <path class="st3" d="M705.74,633.39c-.42,0-.76-.14-1.03-.42s-.41-.63-.41-1.04v-14.83c0-.42.14-.76.41-1.04.27-.28.62-.42,1.03-.42s.76.14,1.03.42.41.63.41,1.04v14.83c0,.42-.14.76-.41,1.04-.27.28-.62.42-1.03.42ZM713.37,620.55c.37,0,.69.15.96.46.27.3.41.6.41.89,0,.38-.19.74-.58,1.08l-7.22,6.65-.12-3.31,5.5-5.3c.3-.3.66-.46,1.06-.46h-.01ZM713.73,633.36c-.42,0-.77-.16-1.06-.48l-4.44-4.7,2.18-2.02,4.32,4.7c.3.32.46.68.46,1.08s-.16.76-.49,1.02-.65.4-.97.4h0Z"/>    <path class="st3" d="M718.96,618.99c-.54,0-.93-.09-1.15-.26-.22-.18-.34-.49-.34-.94v-.46c0-.46.12-.78.37-.95s.63-.25,1.14-.25c.56,0,.95.09,1.18.26.22.18.34.49.34.94v.46c0,.46-.12.78-.36.95s-.63.25-1.18.25ZM720.43,631.92c0,.42-.14.76-.41,1.04-.27.28-.62.42-1.03.42s-.76-.14-1.03-.42-.41-.63-.41-1.04v-9.91c0-.42.14-.76.41-1.04s.62-.42,1.03-.42.76.14,1.03.42.41.63.41,1.04v9.91Z"/>    <path class="st3" d="M730.24,620.31c1.18,0,2.08.25,2.7.74s1.04,1.16,1.27,1.98c.23.82.35,1.74.35,2.75v6.14c0,.42-.14.76-.41,1.04-.27.28-.62.42-1.03.42s-.76-.14-1.03-.42-.41-.63-.41-1.04v-6.14c0-.53-.07-1-.2-1.43-.14-.42-.38-.76-.73-1.02s-.86-.38-1.51-.38-1.18.13-1.62.38-.78.6-1.01,1.02c-.23.42-.35.9-.35,1.43v6.14c0,.42-.14.76-.41,1.04-.27.28-.62.42-1.03.42s-.76-.14-1.03-.42-.41-.63-.41-1.04v-9.91c0-.42.14-.76.41-1.04s.62-.42,1.03-.42.76.14,1.03.42.41.63.41,1.04v1.03l-.36-.07c.14-.27.35-.56.62-.88.27-.31.59-.6.96-.88.37-.27.78-.49,1.25-.66.46-.17.97-.25,1.51-.25h0Z"/>    <path class="st3" d="M743.01,620.31c.67,0,1.29.1,1.85.31s1.04.47,1.45.79c.41.32.73.64.96.97.23.33.35.6.35.83l-.62.31v-1.75c0-.42.14-.76.41-1.04.27-.28.62-.42,1.03-.42s.76.14,1.03.41.41.62.41,1.06v10.68c0,1.39-.3,2.51-.9,3.35-.6.84-1.39,1.45-2.36,1.82-.98.38-2.02.56-3.14.56-.32,0-.74-.04-1.25-.12s-1-.18-1.46-.29-.82-.22-1.06-.31c-.48-.21-.81-.47-1-.78-.18-.31-.22-.64-.11-1,.14-.46.38-.78.7-.95s.66-.19,1.01-.06c.16.05.42.14.79.29s.77.28,1.21.4.83.18,1.16.18c1.2,0,2.09-.24,2.66-.72.58-.48.86-1.14.86-1.99v-2.09l.29.22c0,.21-.11.46-.32.76s-.51.59-.89.88-.82.53-1.33.73-1.06.3-1.63.3c-1.14,0-2.16-.28-3.07-.85-.91-.57-1.63-1.35-2.16-2.35s-.79-2.15-.79-3.44.26-2.47.79-3.47,1.24-1.78,2.14-2.35,1.9-.85,3-.85v-.02h0ZM743.47,622.95c-.72,0-1.35.18-1.9.53-.54.35-.97.83-1.27,1.44s-.46,1.3-.46,2.06.15,1.43.46,2.04c.3.61.73,1.09,1.27,1.44s1.18.53,1.9.53,1.38-.18,1.92-.53.97-.83,1.27-1.44c.3-.61.46-1.29.46-2.04s-.15-1.46-.46-2.06c-.3-.61-.73-1.09-1.27-1.44-.54-.35-1.18-.53-1.92-.53Z"/>  </g>  <g class="p-piece integrity">    <rect class="st0" x="590.2" y="929.92" width="239.91" height="210.04" rx="5.57" ry="5.57"/>    <g>      <path class="st5" d="M653.77,1041.02c0,.42-.15.76-.46,1.04s-.66.42-1.06.42c-.45,0-.81-.14-1.08-.42s-.41-.63-.41-1.04v-13.87c0-.42.14-.76.43-1.04s.66-.42,1.1-.42c.38,0,.72.14,1.02.42.3.28.44.63.44,1.04v13.87h.02Z"/>      <path class="st5" d="M670.12,1025.68c.38,0,.7.13.94.38.24.26.36.58.36.96v13.99c0,.42-.14.76-.42,1.04s-.63.42-1.04.42c-.21,0-.42-.04-.64-.11s-.38-.17-.49-.3l-9.43-11.98.62-.38v11.42c0,.38-.12.7-.37.96s-.57.38-.97.38-.7-.13-.94-.38-.36-.58-.36-.96v-13.99c0-.42.14-.76.42-1.04s.63-.42,1.04-.42c.22,0,.46.04.7.13s.42.22.53.4l9.14,11.66-.41.29v-11.14c0-.38.12-.7.36-.96s.56-.38.96-.38h0Z"/>      <path class="st5" d="M675.4,1028.44c-.42,0-.76-.13-1.04-.38-.28-.26-.42-.59-.42-1.01s.14-.75.42-1,.63-.37,1.04-.37h10.66c.42,0,.76.13,1.04.38s.42.59.42,1.01-.14.75-.42,1-.63.37-1.04.37h-10.66ZM680.7,1042.48c-.45,0-.82-.14-1.1-.42s-.43-.63-.43-1.04v-13.92h3.12v13.92c0,.42-.15.76-.44,1.04s-.68.42-1.14.42h-.01Z"/>      <path class="st5" d="M691.5,1025.68h8.04c.42,0,.76.13,1.04.4.28.26.42.6.42,1.02s-.14.72-.42.97-.63.37-1.04.37h-6.72l.22-.41v4.68l-.19-.19h5.62c.42,0,.76.13,1.04.4.28.26.42.6.42,1.02s-.14.72-.42.97-.63.37-1.04.37h-5.54l.12-.19v4.85l-.19-.22h6.7c.42,0,.76.14,1.04.42.28.28.42.6.42.97,0,.4-.14.73-.42.98-.28.26-.63.38-1.04.38h-8.04c-.42,0-.76-.14-1.04-.42s-.42-.63-.42-1.04v-13.87c0-.42.14-.76.42-1.04s.63-.42,1.04-.42h-.02Z"/>      <path class="st5" d="M711.68,1042.72c-1.22,0-2.35-.22-3.41-.67s-1.98-1.07-2.78-1.86-1.43-1.71-1.88-2.75c-.46-1.04-.68-2.16-.68-3.36s.23-2.32.68-3.36c.46-1.04,1.08-1.96,1.88-2.75s1.73-1.41,2.78-1.86c1.06-.45,2.19-.67,3.41-.67.75,0,1.48.08,2.18.24s1.35.4,1.94.72c.24.13.42.3.54.52s.18.44.18.66c0,.38-.13.73-.38,1.03s-.58.46-.98.46c-.13,0-.26-.02-.4-.05s-.27-.08-.4-.14c-.4-.18-.82-.31-1.27-.41s-.92-.14-1.42-.14c-1.04,0-1.99.26-2.84.78-.86.52-1.54,1.22-2.04,2.09s-.76,1.84-.76,2.89.25,2,.76,2.88,1.18,1.58,2.04,2.1,1.8.78,2.84.78c.48,0,1.01-.05,1.58-.14s1.05-.22,1.42-.38l-.22.72v-4.1l.41.36h-2.66c-.42,0-.76-.14-1.04-.41-.28-.27-.42-.62-.42-1.03s.14-.76.42-1.03.63-.41,1.04-.41h3.94c.42,0,.76.14,1.03.42s.41.63.41,1.04v5.09c0,.32-.08.58-.23.79-.15.21-.32.38-.52.5-.74.45-1.54.8-2.41,1.07-.87.26-1.79.4-2.75.4v-.02h.01Z"/>      <path class="st5" d="M722.2,1042.48c-.45,0-.85-.14-1.2-.42-.35-.28-.53-.63-.53-1.04v-13.87c0-.42.14-.76.42-1.04s.63-.42,1.04-.42h6.91c.83,0,1.61.22,2.34.66s1.32,1.05,1.76,1.82c.45.78.67,1.67.67,2.68,0,.61-.12,1.2-.37,1.78s-.58,1.1-1.01,1.56c-.42.46-.9.82-1.43,1.08l.02-.55c.45.24.82.52,1.12.85s.53.68.7,1.06.27.78.3,1.21c.06.4.11.75.13,1.06.02.3.07.56.14.77s.21.37.42.48c.35.21.57.51.66.9.09.39,0,.74-.28,1.04-.18.21-.4.34-.67.4s-.54.06-.82,0c-.27-.06-.5-.13-.67-.23-.27-.16-.54-.4-.82-.71-.27-.31-.49-.73-.66-1.26s-.25-1.21-.25-2.04c0-.27-.05-.52-.14-.76-.1-.23-.23-.43-.41-.6s-.4-.3-.67-.38c-.27-.09-.59-.13-.96-.13h-4.85l.36-.55v5.21c0,.42-.11.76-.34,1.04s-.54.42-.94.42l.03-.02h0ZM723.13,1033.89h5.59c.29,0,.57-.13.84-.4.27-.26.5-.62.67-1.08.18-.46.26-.96.26-1.5,0-.7-.19-1.29-.56-1.76s-.78-.71-1.21-.71h-5.54l.29-.77v6.79l-.34-.58h0Z"/>      <path class="st5" d="M739.96,1041.02c0,.42-.15.76-.46,1.04s-.66.42-1.06.42c-.45,0-.81-.14-1.08-.42s-.41-.63-.41-1.04v-13.87c0-.42.14-.76.43-1.04s.66-.42,1.1-.42c.38,0,.72.14,1.02.42.3.28.44.63.44,1.04v13.87h.02Z"/>      <path class="st5" d="M743.94,1028.44c-.42,0-.76-.13-1.04-.38-.28-.26-.42-.59-.42-1.01s.14-.75.42-1,.63-.37,1.04-.37h10.66c.42,0,.76.13,1.04.38s.42.59.42,1.01-.14.75-.42,1-.63.37-1.04.37h-10.66ZM749.24,1042.48c-.45,0-.82-.14-1.1-.42s-.43-.63-.43-1.04v-13.92h3.12v13.92c0,.42-.15.76-.44,1.04s-.68.42-1.14.42h-.01Z"/>      <path class="st5" d="M769.52,1025.61c.37,0,.7.14,1,.42s.44.64.44,1.07c0,.14-.02.29-.06.44s-.11.3-.2.44l-5.45,7.8.43-1.66v6.89c0,.42-.14.76-.42,1.04-.28.28-.6.42-.97.42-.4,0-.74-.14-1.02-.42s-.42-.63-.42-1.04v-6.7l.19.77-5.18-6.89c-.16-.21-.27-.41-.34-.6-.06-.19-.1-.37-.1-.53,0-.43.17-.78.5-1.06s.68-.41,1.03-.41c.45,0,.84.22,1.18.67l4.61,6.36-.67-.1,4.25-6.22c.34-.48.74-.72,1.2-.72v.03h0Z"/>    </g>  </g>  <g>  <circle class="st3" cx="470.19" cy="732.8" r="29.86"/>  <path class="st6" d="M368.11,793.37c-6.48,0-12.47,2.07-17.36,5.57v-75.17c0-3.07-2.49-5.57-5.57-5.57H116.4c-3.07,0-5.57,2.49-5.57,5.57v198.91c0,3.07,2.49,5.57,5.57,5.57h228.78c3.07,0,5.57-2.49,5.57-5.57v-75.17c4.89,3.5,10.89,5.57,17.36,5.57,16.49,0,29.86-13.37,29.86-29.86s-13.37-29.86-29.86-29.86h0Z"/>  <path class="st6" d="M110.83,711.61c0,3.07,2.49,5.57,5.57,5.57h91.27c-4.21,5.15-6.74,11.72-6.74,18.89,0,16.49,13.37,29.86,29.86,29.86s29.86-13.37,29.86-29.86c0-7.17-2.53-13.75-6.74-18.89h91.27c3.07,0,5.57-2.49,5.57-5.57v-198.91c0-3.07-2.49-5.57-5.57-5.57H116.4c-3.07.01-5.57,2.5-5.57,5.58,0,0,0,198.9,0,198.9Z"/>  <path class="st6" d="M345.18,296.07h-90.69c3.86-5.03,6.16-11.32,6.16-18.16,0-16.49-13.37-29.86-29.86-29.86s-29.86,13.37-29.86,29.86c0,6.83,2.3,13.12,6.16,18.16h-90.69c-3.07,0-5.57,2.49-5.57,5.57v198.91c0,3.07,2.49,5.57,5.57,5.57h91.27c-4.21,5.15-6.74,11.72-6.74,18.89,0,16.49,13.37,29.86,29.86,29.86s29.86-13.37,29.86-29.86c0-7.17-2.53-13.75-6.74-18.89h91.27c3.07,0,5.57-2.49,5.57-5.57v-198.91c0-3.07-2.49-5.57-5.57-5.57h0Z"/>  <path class="st6" d="M607.51,371.23c-6.48,0-12.47,2.07-17.36,5.57v-75.16c0-3.07-2.49-5.57-5.57-5.57h-228.78c-3.07,0-5.57,2.49-5.57,5.57v75.17c-4.89-3.5-10.89-5.57-17.36-5.57-16.49,0-29.86,13.37-29.86,29.86s13.37,29.86,29.86,29.86c6.48,0,12.47-2.07,17.36-5.57v75.17c0,3.07,2.49,5.57,5.57,5.57h228.78c3.07,0,5.57-2.49,5.57-5.57v-75.17c4.89,3.5,10.89,5.57,17.36,5.57,16.49,0,29.86-13.37,29.86-29.86s-13.37-29.86-29.86-29.86h0Z"/>  <circle class="st7" cx="470.19" cy="314.64" r="29.86"/>  <circle class="st8" cx="709.6" cy="314.64" r="29.86"/>  <circle class="st3" cx="607.51" cy="612.16" r="29.86"/>  <circle class="st3" cx="332.88" cy="612.16" r="29.86"/>  </g>  <g>    <path class="st3" d="M178.4,394.6c-.42,0-.76-.13-1.04-.38-.28-.26-.42-.59-.42-1.01s.14-.75.42-1,.63-.37,1.04-.37h10.66c.42,0,.76.13,1.04.38.28.26.42.59.42,1.01s-.14.75-.42,1-.63.37-1.04.37h-10.66ZM183.7,408.64c-.45,0-.82-.14-1.1-.42-.29-.28-.43-.63-.43-1.04v-13.92h3.12v13.92c0,.42-.15.76-.44,1.04-.3.28-.68.42-1.14.42h0Z"/>    <path class="st3" d="M199.54,395.56c1.15,0,2.03.25,2.63.74.6.5,1.01,1.16,1.24,1.98.22.82.34,1.74.34,2.75v6.14c0,.42-.14.76-.41,1.04s-.62.42-1.03.42-.76-.14-1.03-.42-.41-.63-.41-1.04v-6.14c0-.53-.06-1-.19-1.43-.13-.42-.36-.76-.7-1.02-.34-.26-.82-.38-1.44-.38s-1.13.13-1.56.38c-.43.26-.76.6-.97,1.02-.22.42-.32.9-.32,1.43v6.14c0,.42-.14.76-.41,1.04s-.62.42-1.03.42-.76-.14-1.03-.42-.41-.63-.41-1.04v-14.83c0-.42.14-.76.41-1.04s.62-.42,1.03-.42.76.14,1.03.42.41.63.41,1.04v5.95l-.36-.07c.14-.27.34-.56.6-.88s.57-.6.94-.88c.37-.27.78-.49,1.22-.66s.94-.25,1.46-.25h-.01Z"/>    <path class="st3" d="M219.31,402.23c0,1.31-.29,2.47-.88,3.47s-1.37,1.78-2.35,2.34-2.08.84-3.3.84-2.32-.28-3.3-.84-1.77-1.34-2.35-2.34-.88-2.16-.88-3.47.29-2.47.88-3.47,1.37-1.78,2.35-2.35,2.08-.85,3.3-.85,2.32.28,3.3.85,1.77,1.35,2.35,2.35.88,2.16.88,3.47ZM216.44,402.23c0-.82-.16-1.52-.49-2.12s-.77-1.07-1.32-1.4-1.16-.5-1.84-.5-1.28.17-1.84.5c-.55.34-.99.8-1.32,1.4s-.49,1.31-.49,2.12.16,1.5.49,2.1.77,1.07,1.32,1.4c.55.34,1.16.5,1.84.5s1.28-.17,1.84-.5c.55-.34.99-.8,1.32-1.4s.49-1.3.49-2.1Z"/>    <path class="st3" d="M231.36,395.8c.42,0,.76.14,1.03.42s.41.63.41,1.04v6.1c0,1.7-.47,3.04-1.42,4.03-.94.99-2.3,1.49-4.08,1.49s-3.13-.5-4.07-1.49-1.4-2.34-1.4-4.03v-6.1c0-.42.14-.76.41-1.04s.62-.42,1.03-.42.76.14,1.03.42.41.63.41,1.04v6.1c0,.98.22,1.7.65,2.17s1.08.71,1.94.71,1.54-.24,1.97-.71.65-1.2.65-2.17v-6.1c0-.42.14-.76.41-1.04s.62-.42,1.03-.42Z"/>    <path class="st3" d="M241.01,395.56c.67,0,1.29.1,1.85.31.56.21,1.04.47,1.45.79s.73.64.96.97c.23.33.35.6.35.83l-.62.31v-1.75c0-.42.14-.76.41-1.04s.62-.42,1.03-.42.76.14,1.03.41.41.62.41,1.06v10.68c0,1.39-.3,2.51-.9,3.35-.6.84-1.39,1.45-2.36,1.82-.98.38-2.02.56-3.14.56-.32,0-.74-.04-1.25-.12s-1-.18-1.46-.29-.82-.22-1.06-.31c-.48-.21-.81-.47-1-.78-.18-.31-.22-.64-.11-1,.14-.46.38-.78.7-.95s.66-.19,1.01-.06c.16.05.42.14.79.29s.77.28,1.21.4.83.18,1.16.18c1.2,0,2.09-.24,2.66-.72s.86-1.14.86-1.99v-2.09l.29.22c0,.21-.11.46-.32.76-.22.3-.51.59-.89.88s-.82.53-1.33.73-1.06.3-1.63.3c-1.14,0-2.16-.28-3.07-.85s-1.63-1.35-2.16-2.35-.79-2.15-.79-3.44.26-2.47.79-3.47,1.24-1.78,2.14-2.35,1.9-.85,3-.85v-.02h0ZM241.47,398.2c-.72,0-1.35.18-1.9.53-.54.35-.97.83-1.27,1.44s-.46,1.3-.46,2.06.15,1.43.46,2.04c.3.61.73,1.09,1.27,1.44.54.35,1.18.53,1.9.53s1.38-.18,1.92-.53.97-.83,1.27-1.44.46-1.29.46-2.04-.15-1.46-.46-2.06c-.3-.61-.73-1.09-1.27-1.44-.54-.35-1.18-.53-1.92-.53Z"/>    <path class="st3" d="M257.74,395.56c1.15,0,2.03.25,2.63.74.6.5,1.01,1.16,1.24,1.98.22.82.34,1.74.34,2.75v6.14c0,.42-.14.76-.41,1.04s-.62.42-1.03.42-.76-.14-1.03-.42-.41-.63-.41-1.04v-6.14c0-.53-.06-1-.19-1.43-.13-.42-.36-.76-.7-1.02-.34-.26-.82-.38-1.44-.38s-1.13.13-1.56.38c-.43.26-.76.6-.97,1.02-.22.42-.32.9-.32,1.43v6.14c0,.42-.14.76-.41,1.04s-.62.42-1.03.42-.76-.14-1.03-.42-.41-.63-.41-1.04v-14.83c0-.42.14-.76.41-1.04s.62-.42,1.03-.42.76.14,1.03.42.41.63.41,1.04v5.95l-.36-.07c.14-.27.34-.56.6-.88s.57-.6.94-.88c.37-.27.78-.49,1.22-.66.44-.17.94-.25,1.46-.25h0Z"/>    <path class="st3" d="M265.2,396.04h5.69c.38,0,.7.13.96.38s.38.58.38.96-.13.68-.38.92-.58.37-.96.37h-5.69c-.38,0-.7-.13-.96-.38-.26-.26-.38-.58-.38-.96s.13-.68.38-.92.58-.37.96-.37ZM267.77,393.04c.42,0,.76.14,1.02.42.26.28.4.63.4,1.04v10.68c0,.22.04.41.13.55s.21.25.36.31.32.1.49.1c.19,0,.37-.04.53-.11s.34-.11.55-.11.43.1.61.31.28.5.28.86c0,.45-.24.82-.73,1.1-.49.29-1.01.43-1.57.43-.34,0-.71-.03-1.12-.08-.41-.06-.79-.19-1.15-.41s-.66-.55-.9-1-.36-1.06-.36-1.85v-10.8c0-.42.14-.76.42-1.04s.63-.42,1.04-.42v.02h0Z"/>    <path class="st3" d="M274.61,406.65c-.16-.22-.23-.51-.22-.86.02-.35.22-.66.62-.91.26-.16.53-.23.82-.2s.57.17.84.44c.46.46.95.82,1.46,1.08.51.26,1.15.38,1.92.38.24-.02.5-.05.79-.11s.54-.18.76-.38.32-.51.32-.92c0-.35-.12-.63-.36-.84s-.56-.38-.95-.53c-.39-.14-.83-.28-1.31-.41-.5-.14-1-.3-1.52-.48s-1-.4-1.43-.68-.78-.65-1.06-1.12c-.27-.46-.41-1.05-.41-1.75,0-.8.22-1.48.67-2.04s1.03-.99,1.74-1.3c.71-.3,1.46-.46,2.24-.46.5,0,1.02.06,1.56.18s1.06.31,1.56.58c.5.26.91.61,1.25,1.04.18.24.28.53.31.86.03.34-.12.64-.46.91-.24.19-.52.28-.84.25-.32-.02-.58-.13-.79-.32-.27-.35-.64-.63-1.09-.84-.46-.21-.98-.31-1.57-.31-.24,0-.5.03-.78.08-.28.06-.52.18-.73.36-.21.18-.31.48-.31.88,0,.37.12.66.36.88s.56.39.97.53.84.27,1.31.4c.48.13.97.28,1.46.46.5.18.95.41,1.37.7s.75.66,1.01,1.12.38,1.04.38,1.74c0,.82-.24,1.51-.72,2.09s-1.08,1.01-1.8,1.31-1.46.44-2.21.44c-.94,0-1.89-.16-2.83-.49s-1.73-.91-2.35-1.74l.02-.02h0Z"/>  </g>  <g>    <path class="st3" d="M195.61,604.42h8.04c.42,0,.76.13,1.04.4.28.26.42.6.42,1.02s-.14.72-.42.97-.63.37-1.04.37h-6.72l.22-.41v4.68l-.19-.19h5.62c.42,0,.76.13,1.04.4.28.26.42.6.42,1.02s-.14.72-.42.97-.63.37-1.04.37h-5.54l.12-.19v4.85l-.19-.22h6.7c.42,0,.76.14,1.04.42s.42.6.42.97c0,.4-.14.73-.42.98-.28.26-.63.38-1.04.38h-8.04c-.42,0-.76-.14-1.04-.42s-.42-.63-.42-1.04v-13.87c0-.42.14-.76.42-1.04s.63-.42,1.04-.42h-.02,0Z"/>    <path class="st3" d="M214.5,608.62c.38,0,.7.12.96.37s.38.56.38.95-.13.7-.38.95-.58.37-.96.37h-6.36c-.38,0-.71-.12-.96-.37s-.38-.56-.38-.95.13-.7.38-.95.58-.37.96-.37h6.36ZM214.24,603.46c.35,0,.7.05,1.03.14.34.1.62.25.84.47s.34.5.34.85c0,.4-.12.72-.35.95s-.5.35-.8.35c-.14,0-.36-.04-.65-.11s-.57-.11-.84-.11c-.4,0-.71.09-.92.26-.22.18-.36.38-.44.61s-.12.44-.12.61v12.26c0,.42-.14.76-.41,1.04s-.62.42-1.03.42-.76-.14-1.03-.42-.41-.63-.41-1.04v-12.24c0-1.14.4-2.1,1.2-2.88s2-1.18,3.6-1.18v.02h0ZM224.99,608.62c.38,0,.7.12.96.37s.38.56.38.95-.13.7-.38.95-.58.37-.96.37h-6.36c-.38,0-.7-.12-.96-.37s-.38-.56-.38-.95.13-.7.38-.95.58-.37.96-.37h6.36ZM224.73,603.46c.35,0,.7.05,1.03.14.34.1.62.25.84.47s.34.5.34.85c0,.4-.12.72-.35.95s-.5.35-.8.35c-.14,0-.36-.04-.65-.11s-.57-.11-.84-.11c-.4,0-.71.09-.92.26-.22.18-.36.38-.44.61s-.12.44-.12.61v12.26c0,.42-.14.76-.41,1.04s-.62.42-1.03.42-.76-.14-1.03-.42-.41-.63-.41-1.04v-12.24c0-1.14.4-2.1,1.2-2.88s2-1.18,3.6-1.18v.02h0Z"/>    <path class="st3" d="M241.07,614.81c0,1.31-.29,2.47-.88,3.47-.58,1-1.37,1.78-2.35,2.34s-2.08.84-3.3.84-2.32-.28-3.3-.84-1.77-1.34-2.35-2.34-.88-2.16-.88-3.47.29-2.47.88-3.47,1.37-1.78,2.35-2.35,2.08-.85,3.3-.85,2.32.28,3.3.85c.98.57,1.77,1.35,2.35,2.35s.88,2.16.88,3.47ZM238.19,614.81c0-.82-.16-1.52-.49-2.12s-.77-1.07-1.32-1.4c-.55-.34-1.16-.5-1.84-.5s-1.28.17-1.84.5c-.55.34-.99.8-1.32,1.4-.33.6-.49,1.31-.49,2.12s.16,1.5.49,2.1.77,1.07,1.32,1.4c.55.34,1.16.5,1.84.5s1.28-.17,1.84-.5.99-.8,1.32-1.4c.33-.6.49-1.3.49-2.1Z"/>    <path class="st3" d="M245.03,621.22c-.42,0-.76-.14-1.03-.42s-.41-.63-.41-1.04v-9.91c0-.42.14-.76.41-1.04s.62-.42,1.03-.42.76.14,1.03.42.41.63.41,1.04v2.26l-.17-1.61c.18-.38.4-.72.68-1.02s.6-.54.95-.74c.35-.2.73-.35,1.13-.44.4-.1.8-.14,1.2-.14.48,0,.88.14,1.21.41s.49.59.49.96c0,.53-.14.91-.41,1.14s-.57.35-.89.35c-.3,0-.58-.06-.83-.17s-.53-.17-.85-.17c-.29,0-.58.07-.88.2-.3.14-.57.35-.82.64s-.45.64-.6,1.07c-.15.42-.23.92-.23,1.5v5.69c0,.42-.14.76-.41,1.04s-.62.42-1.03.42l.02-.02h0Z"/>    <path class="st3" d="M254.15,608.62h5.69c.38,0,.7.13.96.38s.38.58.38.96-.13.68-.38.92-.58.37-.96.37h-5.69c-.38,0-.7-.13-.96-.38s-.38-.58-.38-.96.13-.68.38-.92.58-.37.96-.37ZM256.72,605.62c.42,0,.76.14,1.02.42s.4.63.4,1.04v10.68c0,.22.04.41.13.55s.21.25.36.31.32.1.49.1c.19,0,.37-.04.53-.11s.34-.11.55-.11.43.1.61.31.28.5.28.86c0,.45-.24.82-.73,1.1-.49.29-1.01.43-1.57.43-.34,0-.71-.03-1.12-.08-.41-.06-.79-.19-1.15-.41s-.66-.55-.9-1-.36-1.06-.36-1.85v-10.8c0-.42.14-.76.42-1.04s.63-.42,1.04-.42v.02h0Z"/>  </g>  <g>    <path class="st3" d="M171.39,830.78c-.45,0-.85-.14-1.2-.42-.35-.28-.53-.63-.53-1.04v-13.87c0-.42.14-.76.42-1.04s.63-.42,1.04-.42h6.91c.83,0,1.61.22,2.34.66s1.32,1.05,1.76,1.82c.45.78.67,1.67.67,2.68,0,.61-.12,1.2-.37,1.78s-.58,1.1-1.01,1.56c-.42.46-.9.82-1.43,1.08l.02-.55c.45.24.82.52,1.12.85.3.33.53.68.7,1.06s.27.78.3,1.21c.06.4.11.75.13,1.06.02.3.07.56.14.77s.21.37.42.48c.35.21.57.51.66.9s0,.74-.28,1.04c-.18.21-.4.34-.67.4s-.54.06-.82,0c-.27-.06-.5-.13-.67-.23-.27-.16-.54-.4-.82-.71-.27-.31-.49-.73-.66-1.26s-.25-1.21-.25-2.04c0-.27-.05-.52-.14-.76-.1-.23-.23-.43-.41-.6s-.4-.3-.67-.38c-.27-.09-.59-.13-.96-.13h-4.85l.36-.55v5.21c0,.42-.11.76-.34,1.04s-.54.42-.94.42l.03-.02h0ZM172.32,822.19h5.59c.29,0,.57-.13.84-.4.27-.26.5-.62.67-1.08.18-.46.26-.96.26-1.5,0-.7-.19-1.29-.56-1.76s-.78-.71-1.21-.71h-5.54l.29-.77v6.79l-.34-.58h0Z"/>    <path class="st3" d="M191.83,831.02c-1.36,0-2.54-.28-3.54-.85-1-.57-1.77-1.34-2.3-2.32s-.8-2.08-.8-3.31c0-1.44.29-2.67.88-3.68s1.35-1.8,2.29-2.34,1.94-.82,3-.82c.82,0,1.59.17,2.32.5.73.34,1.37.8,1.93,1.38s1,1.26,1.33,2.03.49,1.58.49,2.45c-.02.38-.17.7-.46.94s-.62.36-1.01.36h-9.17l-.72-2.4h8.81l-.53.48v-.65c-.03-.46-.2-.88-.49-1.25-.3-.37-.66-.66-1.1-.88-.44-.22-.91-.32-1.4-.32s-.93.06-1.34.19-.78.34-1.08.65c-.3.3-.54.71-.72,1.22-.18.51-.26,1.16-.26,1.94,0,.86.18,1.6.54,2.2.36.6.82,1.06,1.39,1.37s1.17.47,1.81.47c.59,0,1.06-.05,1.42-.14s.64-.21.85-.35c.22-.14.41-.25.59-.35.29-.14.56-.22.82-.22.35,0,.64.12.88.36.23.24.35.52.35.84,0,.43-.22.82-.67,1.18-.42.35-1,.66-1.75.92s-1.53.4-2.33.4h-.03Z"/>    <path class="st3" d="M206.81,818.18c.38,0,.7.12.96.37s.38.56.38.95-.13.7-.38.95-.58.37-.96.37h-6.36c-.38,0-.71-.12-.96-.37s-.38-.56-.38-.95.13-.7.38-.95.58-.37.96-.37h6.36ZM206.55,813.02c.35,0,.7.05,1.03.14.34.1.62.25.84.47s.34.5.34.85c0,.4-.12.72-.35.95s-.5.35-.8.35c-.14,0-.36-.04-.65-.11s-.57-.11-.84-.11c-.4,0-.71.09-.92.26-.22.18-.36.38-.44.61s-.12.44-.12.61v12.26c0,.42-.14.76-.41,1.04-.27.28-.62.42-1.03.42s-.76-.14-1.03-.42c-.27-.28-.41-.63-.41-1.04v-12.24c0-1.14.4-2.1,1.2-2.88s2-1.18,3.6-1.18v.02h0ZM213.55,829.32c0,.42-.14.76-.42,1.04-.28.28-.63.42-1.04.42s-.74-.14-1.01-.42c-.27-.28-.41-.63-.41-1.04v-14.83c0-.42.14-.76.42-1.04.28-.28.63-.42,1.04-.42s.76.14,1.02.42c.26.28.4.63.4,1.04v14.83h0Z"/>    <path class="st3" d="M222.96,831.02c-1.36,0-2.54-.28-3.54-.85-1-.57-1.77-1.34-2.3-2.32s-.8-2.08-.8-3.31c0-1.44.29-2.67.88-3.68s1.35-1.8,2.29-2.34,1.94-.82,3-.82c.82,0,1.59.17,2.32.5.73.34,1.37.8,1.93,1.38s1,1.26,1.33,2.03.49,1.58.49,2.45c-.02.38-.17.7-.46.94s-.62.36-1.01.36h-9.17l-.72-2.4h8.81l-.53.48v-.65c-.03-.46-.2-.88-.49-1.25-.3-.37-.66-.66-1.1-.88-.44-.22-.91-.32-1.4-.32s-.93.06-1.34.19-.78.34-1.08.65c-.3.3-.54.71-.72,1.22-.18.51-.26,1.16-.26,1.94,0,.86.18,1.6.54,2.2.36.6.82,1.06,1.39,1.37s1.17.47,1.81.47c.59,0,1.06-.05,1.42-.14s.64-.21.85-.35c.22-.14.41-.25.59-.35.29-.14.56-.22.82-.22.35,0,.64.12.88.36.23.24.35.52.35.84,0,.43-.22.82-.67,1.18-.42.35-1,.66-1.75.92s-1.53.4-2.33.4h-.03Z"/>    <path class="st3" d="M236.79,817.7c.91,0,1.71.1,2.39.29s1.21.46,1.58.8c.38.34.56.76.56,1.24,0,.32-.1.62-.29.9s-.47.42-.84.42c-.26,0-.47-.04-.64-.11s-.32-.16-.44-.28c-.13-.11-.28-.22-.46-.31-.16-.1-.4-.17-.73-.23s-.57-.08-.73-.08c-.82,0-1.51.18-2.08.53-.57.35-1,.83-1.31,1.43-.3.6-.46,1.29-.46,2.08s.16,1.45.47,2.05.74,1.08,1.3,1.43c.55.35,1.19.53,1.91.53.4,0,.74-.02,1.03-.07s.53-.12.72-.22c.22-.13.42-.26.6-.41.18-.14.44-.22.79-.22.42,0,.74.13.96.4.22.26.34.59.34.97s-.22.76-.67,1.09-1.04.59-1.76.79c-.73.2-1.52.3-2.36.3-1.26,0-2.36-.29-3.29-.88-.93-.58-1.64-1.38-2.15-2.39-.5-1.01-.76-2.14-.76-3.38,0-1.31.27-2.47.8-3.47s1.28-1.78,2.23-2.35c.95-.57,2.04-.85,3.28-.85h0,0Z"/>    <path class="st3" d="M243.7,818.18h5.69c.38,0,.7.13.96.38s.38.58.38.96-.13.68-.38.92-.58.37-.96.37h-5.69c-.38,0-.7-.13-.96-.38s-.38-.58-.38-.96.13-.68.38-.92.58-.37.96-.37ZM246.27,815.18c.42,0,.76.14,1.02.42s.4.63.4,1.04v10.68c0,.22.04.41.13.55s.21.25.36.31.32.1.49.1c.19,0,.37-.04.53-.11s.34-.11.55-.11.43.1.61.31.28.5.28.86c0,.45-.24.82-.73,1.1-.49.29-1.01.43-1.57.43-.34,0-.71-.03-1.12-.08-.41-.06-.79-.19-1.15-.41s-.66-.55-.9-1-.36-1.06-.36-1.85v-10.8c0-.42.14-.76.42-1.04.28-.28.63-.42,1.04-.42v.02h0Z"/>    <path class="st3" d="M254.62,816.38c-.54,0-.93-.09-1.15-.26-.22-.18-.34-.49-.34-.94v-.46c0-.46.12-.78.37-.95s.63-.25,1.14-.25c.56,0,.95.09,1.18.26.22.18.34.49.34.94v.46c0,.46-.12.78-.36.95s-.63.25-1.18.25h0ZM256.08,829.32c0,.42-.14.76-.41,1.04-.27.28-.62.42-1.03.42s-.76-.14-1.03-.42-.41-.63-.41-1.04v-9.91c0-.42.14-.76.41-1.04s.62-.42,1.03-.42.76.14,1.03.42c.27.28.41.63.41,1.04v9.91Z"/>    <path class="st3" d="M271.49,824.37c0,1.31-.29,2.47-.88,3.47-.58,1-1.37,1.78-2.35,2.34s-2.08.84-3.3.84-2.32-.28-3.3-.84c-.98-.56-1.77-1.34-2.35-2.34-.58-1-.88-2.16-.88-3.47s.29-2.47.88-3.47,1.37-1.78,2.35-2.35c.98-.57,2.08-.85,3.3-.85s2.32.28,3.3.85c.98.57,1.77,1.35,2.35,2.35s.88,2.16.88,3.47ZM268.61,824.37c0-.82-.16-1.52-.49-2.12s-.77-1.07-1.32-1.4c-.55-.34-1.16-.5-1.84-.5s-1.28.17-1.84.5c-.55.34-.99.8-1.32,1.4-.33.6-.49,1.31-.49,2.12s.16,1.5.49,2.1.77,1.07,1.32,1.4c.55.34,1.16.5,1.84.5s1.28-.17,1.84-.5.99-.8,1.32-1.4c.33-.6.49-1.3.49-2.1Z"/>    <path class="st3" d="M280.87,817.7c1.18,0,2.08.25,2.7.74s1.04,1.16,1.27,1.98c.23.82.35,1.74.35,2.75v6.14c0,.42-.14.76-.41,1.04-.27.28-.62.42-1.03.42s-.76-.14-1.03-.42c-.27-.28-.41-.63-.41-1.04v-6.14c0-.53-.07-1-.2-1.43-.14-.42-.38-.76-.73-1.02s-.86-.38-1.51-.38-1.18.13-1.62.38-.78.6-1.01,1.02c-.23.42-.35.9-.35,1.43v6.14c0,.42-.14.76-.41,1.04-.27.28-.62.42-1.03.42s-.76-.14-1.03-.42-.41-.63-.41-1.04v-9.91c0-.42.14-.76.41-1.04s.62-.42,1.03-.42.76.14,1.03.42c.27.28.41.63.41,1.04v1.03l-.36-.07c.14-.27.35-.56.62-.88.27-.31.59-.6.96-.88.37-.27.78-.49,1.25-.66.46-.17.97-.25,1.51-.25h0Z"/>  </g>  <path class="st6" d="M829.56,723.77c0-3.07-2.49-5.57-5.57-5.57h-228.78c-3.07,0-5.57,2.49-5.57,5.57v75.17c-4.89-3.5-10.89-5.57-17.36-5.57-16.49,0-29.86,13.37-29.86,29.86s13.37,29.86,29.86,29.86c6.48,0,12.47-2.07,17.36-5.57v75.17c0,3.07,2.49,5.57,5.57,5.57h228.78c3.07,0,5.57-2.49,5.57-5.57v-198.92h0Z"/>  <g>    <path class="st3" d="M419.88,391.84h8.04c.42,0,.76.13,1.04.4.28.26.42.6.42,1.02s-.14.72-.42.97-.63.37-1.04.37h-6.72l.22-.41v4.68l-.19-.19h5.62c.42,0,.76.13,1.04.4.28.26.42.6.42,1.02s-.14.72-.42.97-.63.37-1.04.37h-5.54l.12-.19v4.85l-.19-.22h6.7c.42,0,.76.14,1.04.42s.42.6.42.97c0,.4-.14.73-.42.98-.28.26-.63.38-1.04.38h-8.04c-.42,0-.76-.14-1.04-.42s-.42-.63-.42-1.04v-13.87c0-.42.14-.76.42-1.04s.63-.42,1.04-.42h-.02Z"/>    <path class="st3" d="M438.65,395.56c1.28,0,2.22.31,2.83.92.61.62,1.01,1.41,1.2,2.39l-.41-.22.19-.38c.19-.37.49-.76.89-1.19.4-.42.88-.78,1.45-1.08s1.2-.44,1.91-.44c1.15,0,2.03.25,2.63.74.6.5,1.01,1.16,1.24,1.98.22.82.34,1.74.34,2.75v6.14c0,.42-.14.76-.41,1.04s-.62.42-1.03.42-.76-.14-1.03-.42-.41-.63-.41-1.04v-6.14c0-.53-.06-1-.19-1.43-.13-.42-.36-.76-.7-1.02-.34-.26-.82-.38-1.44-.38s-1.13.13-1.56.38c-.43.26-.76.6-.97,1.02-.22.42-.32.9-.32,1.43v6.14c0,.42-.14.76-.41,1.04s-.62.42-1.03.42-.76-.14-1.03-.42-.41-.63-.41-1.04v-6.14c0-.53-.06-1-.19-1.43-.13-.42-.36-.76-.7-1.02-.34-.26-.82-.38-1.44-.38s-1.13.13-1.56.38c-.43.26-.76.6-.97,1.02-.22.42-.32.9-.32,1.43v6.14c0,.42-.14.76-.41,1.04s-.62.42-1.03.42-.76-.14-1.03-.42-.41-.63-.41-1.04v-9.91c0-.42.14-.76.41-1.04s.62-.42,1.03-.42.76.14,1.03.42.41.63.41,1.04v1.03l-.36-.07c.14-.27.34-.56.6-.88s.57-.6.94-.88c.37-.27.78-.49,1.22-.66s.94-.25,1.46-.25h-.01,0Z"/>    <path class="st3" d="M466.49,402.23c0,1.31-.29,2.47-.88,3.47s-1.37,1.78-2.35,2.34-2.08.84-3.3.84-2.32-.28-3.3-.84-1.77-1.34-2.35-2.34-.88-2.16-.88-3.47.29-2.47.88-3.47,1.37-1.78,2.35-2.35,2.08-.85,3.3-.85,2.32.28,3.3.85,1.77,1.35,2.35,2.35.88,2.16.88,3.47ZM463.61,402.23c0-.82-.16-1.52-.49-2.12s-.77-1.07-1.32-1.4-1.16-.5-1.84-.5-1.28.17-1.84.5c-.55.34-.99.8-1.32,1.4-.33.6-.49,1.31-.49,2.12s.16,1.5.49,2.1.77,1.07,1.32,1.4c.55.34,1.16.5,1.84.5s1.28-.17,1.84-.5c.55-.34.99-.8,1.32-1.4s.49-1.3.49-2.1Z"/>    <path class="st3" d="M469.15,396.04h5.69c.38,0,.7.13.96.38s.38.58.38.96-.13.68-.38.92-.58.37-.96.37h-5.69c-.38,0-.7-.13-.96-.38-.26-.26-.38-.58-.38-.96s.13-.68.38-.92.58-.37.96-.37ZM471.72,393.04c.42,0,.76.14,1.02.42s.4.63.4,1.04v10.68c0,.22.04.41.13.55s.21.25.36.31.32.1.49.1c.19,0,.37-.04.53-.11.16-.07.34-.11.55-.11s.43.1.61.31.28.5.28.86c0,.45-.24.82-.73,1.1-.49.29-1.01.43-1.57.43-.34,0-.71-.03-1.12-.08-.41-.06-.79-.19-1.15-.41s-.66-.55-.9-1-.36-1.06-.36-1.85v-10.8c0-.42.14-.76.42-1.04s.63-.42,1.04-.42v.02h0Z"/>    <path class="st3" d="M480.07,394.24c-.54,0-.93-.09-1.15-.26-.22-.18-.34-.49-.34-.94v-.46c0-.46.12-.78.37-.95s.63-.25,1.14-.25c.56,0,.95.09,1.18.26.22.18.34.49.34.94v.46c0,.46-.12.78-.36.95s-.63.25-1.18.25h0ZM481.54,407.18c0,.42-.14.76-.41,1.04s-.62.42-1.03.42-.76-.14-1.03-.42-.41-.63-.41-1.04v-9.91c0-.42.14-.76.41-1.04s.62-.42,1.03-.42.76.14,1.03.42.41.63.41,1.04v9.91Z"/>    <path class="st3" d="M496.94,402.23c0,1.31-.29,2.47-.88,3.47s-1.37,1.78-2.35,2.34-2.08.84-3.3.84-2.32-.28-3.3-.84-1.77-1.34-2.35-2.34-.88-2.16-.88-3.47.29-2.47.88-3.47,1.37-1.78,2.35-2.35,2.08-.85,3.3-.85,2.32.28,3.3.85,1.77,1.35,2.35,2.35.88,2.16.88,3.47ZM494.06,402.23c0-.82-.16-1.52-.49-2.12s-.77-1.07-1.32-1.4-1.16-.5-1.84-.5-1.28.17-1.84.5c-.55.34-.99.8-1.32,1.4-.33.6-.49,1.31-.49,2.12s.16,1.5.49,2.1.77,1.07,1.32,1.4c.55.34,1.16.5,1.84.5s1.28-.17,1.84-.5c.55-.34.99-.8,1.32-1.4s.49-1.3.49-2.1Z"/>    <path class="st3" d="M506.33,395.56c1.18,0,2.08.25,2.7.74.62.5,1.04,1.16,1.27,1.98.23.82.35,1.74.35,2.75v6.14c0,.42-.14.76-.41,1.04s-.62.42-1.03.42-.76-.14-1.03-.42-.41-.63-.41-1.04v-6.14c0-.53-.07-1-.2-1.43-.14-.42-.38-.76-.73-1.02-.35-.26-.86-.38-1.51-.38s-1.18.13-1.62.38c-.44.26-.78.6-1.01,1.02s-.35.9-.35,1.43v6.14c0,.42-.14.76-.41,1.04s-.62.42-1.03.42-.76-.14-1.03-.42-.41-.63-.41-1.04v-9.91c0-.42.14-.76.41-1.04s.62-.42,1.03-.42.76.14,1.03.42.41.63.41,1.04v1.03l-.36-.07c.14-.27.35-.56.62-.88.27-.31.59-.6.96-.88.37-.27.78-.49,1.25-.66.46-.17.97-.25,1.51-.25h0Z"/>    <path class="st3" d="M513.02,406.65c-.16-.22-.23-.51-.22-.86.02-.35.22-.66.62-.91.26-.16.53-.23.82-.2s.57.17.84.44c.46.46.95.82,1.46,1.08s1.15.38,1.92.38c.24-.02.5-.05.79-.11s.54-.18.76-.38c.22-.2.32-.51.32-.92,0-.35-.12-.63-.36-.84s-.56-.38-.95-.53c-.39-.14-.83-.28-1.31-.41-.5-.14-1-.3-1.52-.48s-1-.4-1.43-.68-.78-.65-1.06-1.12c-.27-.46-.41-1.05-.41-1.75,0-.8.22-1.48.67-2.04s1.03-.99,1.74-1.3c.71-.3,1.46-.46,2.24-.46.5,0,1.02.06,1.56.18s1.06.31,1.56.58c.5.26.91.61,1.25,1.04.18.24.28.53.31.86.03.34-.12.64-.46.91-.24.19-.52.28-.84.25-.32-.02-.58-.13-.79-.32-.27-.35-.64-.63-1.09-.84-.46-.21-.98-.31-1.57-.31-.24,0-.5.03-.78.08-.28.06-.52.18-.73.36-.21.18-.31.48-.31.88,0,.37.12.66.36.88s.56.39.97.53.84.27,1.31.4c.48.13.97.28,1.46.46.5.18.95.41,1.37.7s.75.66,1.01,1.12.38,1.04.38,1.74c0,.82-.24,1.51-.72,2.09s-1.08,1.01-1.8,1.31-1.46.44-2.21.44c-.94,0-1.89-.16-2.83-.49s-1.73-.91-2.35-1.74l.02-.02h0Z"/>  </g>  <g>    <path class="st3" d="M650.73,830.78c-.45,0-.85-.14-1.2-.42-.35-.28-.53-.63-.53-1.04v-13.87c0-.42.14-.76.42-1.04s.63-.42,1.04-.42h6.91c.83,0,1.61.22,2.34.66.73.44,1.32,1.05,1.76,1.82.45.78.67,1.67.67,2.68,0,.61-.12,1.2-.37,1.78s-.58,1.1-1.01,1.56c-.42.46-.9.82-1.43,1.08l.02-.55c.45.24.82.52,1.12.85.3.33.53.68.7,1.06s.27.78.3,1.21c.06.4.11.75.13,1.06.02.3.07.56.14.77s.21.37.42.48c.35.21.57.51.66.9.09.39,0,.74-.28,1.04-.18.21-.4.34-.67.4-.27.06-.54.06-.82,0-.27-.06-.5-.13-.67-.23-.27-.16-.54-.4-.82-.71-.27-.31-.49-.73-.66-1.26s-.25-1.21-.25-2.04c0-.27-.05-.52-.14-.76-.1-.23-.23-.43-.41-.6s-.4-.3-.67-.38c-.27-.09-.59-.13-.96-.13h-4.85l.36-.55v5.21c0,.42-.11.76-.34,1.04s-.54.42-.94.42l.03-.02h0ZM651.66,822.19h5.59c.29,0,.57-.13.84-.4.27-.26.5-.62.67-1.08.18-.46.26-.96.26-1.5,0-.7-.19-1.29-.56-1.76s-.78-.71-1.21-.71h-5.54l.29-.77v6.79l-.34-.58h0Z"/>    <path class="st3" d="M671.17,831.02c-1.36,0-2.54-.28-3.54-.85-1-.57-1.77-1.34-2.3-2.32s-.8-2.08-.8-3.31c0-1.44.29-2.67.88-3.68s1.35-1.8,2.29-2.34,1.94-.82,3-.82c.82,0,1.59.17,2.32.5.73.34,1.37.8,1.93,1.38s1,1.26,1.33,2.03.49,1.58.49,2.45c-.02.38-.17.7-.46.94s-.62.36-1.01.36h-9.17l-.72-2.4h8.81l-.53.48v-.65c-.03-.46-.2-.88-.49-1.25-.3-.37-.66-.66-1.1-.88-.44-.22-.91-.32-1.4-.32s-.93.06-1.34.19-.78.34-1.08.65c-.3.3-.54.71-.72,1.22-.18.51-.26,1.16-.26,1.94,0,.86.18,1.6.54,2.2.36.6.82,1.06,1.39,1.37s1.17.47,1.81.47c.59,0,1.06-.05,1.42-.14s.64-.21.85-.35c.22-.14.41-.25.59-.35.29-.14.56-.22.82-.22.35,0,.64.12.88.36.23.24.35.52.35.84,0,.43-.22.82-.67,1.18-.42.35-1,.66-1.75.92s-1.53.4-2.33.4h-.03,0Z"/>    <path class="st3" d="M684.49,817.7c.67,0,1.29.1,1.85.31s1.04.47,1.45.79c.41.32.73.64.96.97.23.33.35.6.35.83l-.62.31v-1.75c0-.42.14-.76.41-1.04.27-.28.62-.42,1.03-.42s.76.14,1.03.41.41.62.41,1.06v10.68c0,1.39-.3,2.51-.9,3.35-.6.84-1.39,1.45-2.36,1.82-.98.38-2.02.56-3.14.56-.32,0-.74-.04-1.25-.12s-1-.18-1.46-.29-.82-.22-1.06-.31c-.48-.21-.81-.47-1-.78-.18-.31-.22-.64-.11-1,.14-.46.38-.78.7-.95s.66-.19,1.01-.06c.16.05.42.14.79.29s.77.28,1.21.4.83.18,1.16.18c1.2,0,2.09-.24,2.66-.72.58-.48.86-1.14.86-1.99v-2.09l.29.22c0,.21-.11.46-.32.76s-.51.59-.89.88-.82.53-1.33.73c-.51.2-1.06.3-1.63.3-1.14,0-2.16-.28-3.07-.85-.91-.57-1.63-1.35-2.16-2.35s-.79-2.15-.79-3.44.26-2.47.79-3.47,1.24-1.78,2.14-2.35c.9-.57,1.9-.85,3-.85v-.02h0ZM684.95,820.34c-.72,0-1.35.18-1.9.53-.54.35-.97.83-1.27,1.44s-.46,1.3-.46,2.06.15,1.43.46,2.04c.3.61.73,1.09,1.27,1.44s1.18.53,1.9.53,1.38-.18,1.92-.53.97-.83,1.27-1.44c.3-.61.46-1.29.46-2.04s-.15-1.46-.46-2.06c-.3-.61-.73-1.09-1.27-1.44-.54-.35-1.18-.53-1.92-.53Z"/>    <path class="st3" d="M703.81,817.94c.42,0,.76.14,1.03.42.27.28.41.63.41,1.04v6.1c0,1.7-.47,3.04-1.42,4.03-.94.99-2.3,1.49-4.08,1.49s-3.13-.5-4.07-1.49-1.4-2.34-1.4-4.03v-6.1c0-.42.14-.76.41-1.04s.62-.42,1.03-.42.76.14,1.03.42c.27.28.41.63.41,1.04v6.1c0,.98.22,1.7.65,2.17.43.47,1.08.71,1.94.71s1.54-.24,1.97-.71c.43-.47.65-1.2.65-2.17v-6.1c0-.42.14-.76.41-1.04.27-.28.62-.42,1.03-.42Z"/>    <path class="st3" d="M711.49,829.32c0,.42-.14.76-.42,1.04s-.63.42-1.04.42-.74-.14-1.01-.42c-.27-.28-.41-.63-.41-1.04v-14.83c0-.42.14-.76.42-1.04s.63-.42,1.04-.42.76.14,1.02.42c.26.28.4.63.4,1.04v14.83h0Z"/>    <path class="st3" d="M725.37,817.7c.42,0,.76.14,1.03.41.27.27.41.62.41,1.06v10.15c0,.42-.14.76-.41,1.04-.27.28-.62.42-1.03.42s-.76-.14-1.03-.42c-.27-.28-.41-.63-.41-1.04v-1.18l.53.22c0,.21-.11.46-.34.76-.22.3-.53.59-.91.88s-.84.53-1.36.73c-.52.2-1.08.3-1.69.3-1.1,0-2.1-.28-3-.85-.9-.57-1.6-1.35-2.12-2.35s-.78-2.15-.78-3.44.26-2.47.78-3.47,1.22-1.78,2.1-2.35c.88-.57,1.86-.85,2.93-.85.69,0,1.32.1,1.9.31s1.08.47,1.5.79.75.64.98.97c.23.33.35.6.35.83l-.86.31v-1.75c0-.42.14-.76.41-1.04.27-.28.62-.42,1.03-.42v-.02h-.01ZM720.52,828.38c.7,0,1.32-.18,1.85-.53.53-.35.94-.83,1.24-1.44s.44-1.29.44-2.04-.15-1.46-.44-2.06-.71-1.09-1.24-1.44c-.53-.35-1.14-.53-1.85-.53s-1.3.18-1.82.53c-.53.35-.94.83-1.24,1.44s-.44,1.3-.44,2.06.15,1.43.44,2.04c.3.61.71,1.09,1.24,1.44.53.35,1.14.53,1.82.53Z"/>    <path class="st3" d="M730.07,818.18h5.69c.38,0,.7.13.96.38s.38.58.38.96-.13.68-.38.92-.58.37-.96.37h-5.69c-.38,0-.7-.13-.96-.38s-.38-.58-.38-.96.13-.68.38-.92.58-.37.96-.37ZM732.64,815.18c.42,0,.76.14,1.02.42s.4.63.4,1.04v10.68c0,.22.04.41.13.55s.21.25.36.31.32.1.49.1c.19,0,.37-.04.53-.11.16-.07.34-.11.55-.11s.43.1.61.31.28.5.28.86c0,.45-.24.82-.73,1.1-.49.29-1.01.43-1.57.43-.34,0-.71-.03-1.12-.08-.41-.06-.79-.19-1.15-.41-.36-.22-.66-.55-.9-1-.24-.45-.36-1.06-.36-1.85v-10.8c0-.42.14-.76.42-1.04s.63-.42,1.04-.42v.02Z"/>    <path class="st3" d="M740.99,816.38c-.54,0-.93-.09-1.15-.26-.22-.18-.34-.49-.34-.94v-.46c0-.46.12-.78.37-.95s.63-.25,1.14-.25c.56,0,.95.09,1.18.26.22.18.34.49.34.94v.46c0,.46-.12.78-.36.95s-.63.25-1.18.25ZM742.45,829.32c0,.42-.14.76-.41,1.04-.27.28-.62.42-1.03.42s-.76-.14-1.03-.42-.41-.63-.41-1.04v-9.91c0-.42.14-.76.41-1.04s.62-.42,1.03-.42.76.14,1.03.42c.27.28.41.63.41,1.04v9.91Z"/>    <path class="st3" d="M757.86,824.37c0,1.31-.29,2.47-.88,3.47-.58,1-1.37,1.78-2.35,2.34s-2.08.84-3.3.84-2.32-.28-3.3-.84-1.77-1.34-2.35-2.34c-.58-1-.88-2.16-.88-3.47s.29-2.47.88-3.47,1.37-1.78,2.35-2.35c.98-.57,2.08-.85,3.3-.85s2.32.28,3.3.85c.98.57,1.77,1.35,2.35,2.35s.88,2.16.88,3.47ZM754.98,824.37c0-.82-.16-1.52-.49-2.12s-.77-1.07-1.32-1.4c-.55-.34-1.16-.5-1.84-.5s-1.28.17-1.84.5c-.55.34-.99.8-1.32,1.4-.33.6-.49,1.31-.49,2.12s.16,1.5.49,2.1.77,1.07,1.32,1.4c.55.34,1.16.5,1.84.5s1.28-.17,1.84-.5.99-.8,1.32-1.4c.33-.6.49-1.3.49-2.1Z"/>    <path class="st3" d="M767.25,817.7c1.18,0,2.08.25,2.7.74s1.04,1.16,1.27,1.98c.23.82.35,1.74.35,2.75v6.14c0,.42-.14.76-.41,1.04-.27.28-.62.42-1.03.42s-.76-.14-1.03-.42c-.27-.28-.41-.63-.41-1.04v-6.14c0-.53-.07-1-.2-1.43-.14-.42-.38-.76-.73-1.02s-.86-.38-1.51-.38-1.18.13-1.62.38-.78.6-1.01,1.02c-.23.42-.35.9-.35,1.43v6.14c0,.42-.14.76-.41,1.04-.27.28-.62.42-1.03.42s-.76-.14-1.03-.42-.41-.63-.41-1.04v-9.91c0-.42.14-.76.41-1.04s.62-.42,1.03-.42.76.14,1.03.42c.27.28.41.63.41,1.04v1.03l-.36-.07c.14-.27.35-.56.62-.88.27-.31.59-.6.96-.88.37-.27.78-.49,1.25-.66.46-.17.97-.25,1.51-.25h0Z"/>  </g>  <g>  <circle class="st0" cx="710.16" cy="910.1" r="29.86"/>  <circle class="st2" cx="230.3" cy="910.1" r="29.86"/>  <circle class="st3" cx="470.19" cy="488.25" r="29.86"/>  </g></svg>