<?xml version="1.0" encoding="UTF-8"?>
<svg id="Layer_1" xmlns="http://www.w3.org/2000/svg" version="1.1" viewBox="0 0 681.18 484.39">
  <!-- Generator: Adobe Illustrator 29.7.1, SVG Export Plug-In . SVG Version: 2.1.1 Build 8)  -->
  <defs>
    <style>
      .st0 {
        fill: none;
      }

      .st1 {
        fill: #00c9b6;
      }

      .st2 {
        fill: #f30080;
      }

      .st3 {
        fill: #573bb4;
      }

      .st4 {
        isolation: isolate;
      }

      .st5 {
        fill: #a7c900;
      }

      .st6 {
        fill: #f93800;
      }

      .st7 {
        fill: #f9a700;
      }
    </style>
  </defs>
  <g class="st4">
    <path class="st7" d="M405.42,139.48c0,1.2-.47,2.29-1.4,3.27-.93.98-2.06,1.85-3.38,2.59-1.32.74-2.67,1.35-4.06,1.83-1.39.48-2.54.82-3.45,1.01-.38,3.69-.68,7.37-.9,11.04-.22,3.67-.32,7.35-.32,11.04,0,1.97.05,3.91.14,5.82.1,1.92.14,3.83.14,5.75,0,.86-.08,1.81-.25,2.84-.17,1.03-.46,2-.86,2.91-.41.91-.97,1.68-1.69,2.3-.72.62-1.61.93-2.66.93-1.25,0-2.24-.35-2.98-1.04-.74-.7-1.32-1.55-1.73-2.55-.41-1.01-.68-2.07-.83-3.2-.14-1.12-.21-2.14-.21-3.06-.1-2.88-.17-5.76-.22-8.66-.05-2.9-.07-5.81-.07-8.74,0-2.44.01-4.84.04-7.19.02-2.35.04-4.75.04-7.19-.67.1-1.36.17-2.05.22-.7.05-1.4.07-2.12.07-.58,0-1.33-.06-2.26-.18-.93-.12-1.83-.33-2.7-.65-.86-.31-1.61-.74-2.23-1.29-.62-.55-.93-1.26-.93-2.12,0-1.44.56-2.7,1.69-3.77s2.56-2.01,4.31-2.8c1.75-.79,3.69-1.46,5.82-2.01,2.13-.55,4.24-.98,6.33-1.29,2.08-.31,4-.54,5.75-.68,1.75-.14,3.1-.22,4.06-.22.91,0,1.88.04,2.91.11,1.03.07,2,.28,2.91.61.91.34,1.67.84,2.26,1.51.6.67.9,1.61.9,2.8Z"/>
    <path class="st7" d="M435.79,169.96c0,.82-.01,2.03-.04,3.63-.03,1.61-.1,3.28-.22,5.03-.12,1.75-.28,3.4-.47,4.96-.19,1.56-.43,2.7-.72,3.42-.38.91-.89,1.7-1.51,2.37-.62.67-1.46,1.01-2.52,1.01-1.63,0-2.8-.65-3.52-1.94s-1.2-2.9-1.44-4.82c-.24-1.92-.34-4-.29-6.25.05-2.25.02-4.34-.07-6.25-.1-1.92-.36-3.52-.79-4.82-.43-1.29-1.22-1.94-2.37-1.94-1.58,0-2.79.25-3.63.75-.84.5-1.44,1.16-1.8,1.98-.36.82-.58,1.75-.65,2.8-.07,1.05-.16,2.16-.25,3.31-.1,1.1-.17,2.59-.21,4.46-.05,1.87-.26,3.71-.65,5.54-.38,1.82-1.02,3.39-1.91,4.71-.89,1.32-2.19,1.98-3.92,1.98-1.05,0-1.91-.41-2.55-1.22-.65-.81-1.16-1.87-1.55-3.16s-.66-2.73-.83-4.31c-.17-1.58-.26-3.13-.29-4.64s-.02-2.89,0-4.13.04-2.18.04-2.8c0-.96.04-2.54.11-4.75.07-2.2.23-4.66.47-7.37.24-2.71.55-5.5.93-8.38.38-2.88.89-5.5,1.51-7.87.62-2.37,1.38-4.3,2.26-5.79.89-1.49,1.93-2.2,3.13-2.16.77.05,1.42.38,1.98,1.01.55.62,1.01,1.43,1.37,2.41.36.98.66,2.05.9,3.2.24,1.15.42,2.29.54,3.42.12,1.13.19,2.17.22,3.13.02.96.04,1.7.04,2.23,0,1.25-.02,2.49-.07,3.74-.05,1.25-.12,2.49-.22,3.74,1.1-1.48,2.58-2.71,4.42-3.67,1.84-.96,3.7-1.44,5.57-1.44,2.4,0,4.21.66,5.43,1.98,1.22,1.32,2.1,2.95,2.62,4.89s.81,4,.86,6.18c.05,2.18.07,4.13.07,5.86Z"/>
    <path class="st7" d="M472.49,175.78c0,1.63-.52,3.22-1.55,4.78-1.03,1.56-2.33,2.95-3.88,4.17-1.56,1.22-3.22,2.21-5,2.95-1.77.74-3.4,1.11-4.89,1.11-2.54,0-4.81-.63-6.79-1.91-1.99-1.27-3.66-2.89-5-4.85-1.34-1.96-2.36-4.13-3.06-6.51-.7-2.37-1.04-4.68-1.04-6.94,0-2.4.33-4.96,1.01-7.69.67-2.73,1.69-5.25,3.06-7.55s3.09-4.22,5.18-5.75,4.57-2.3,7.44-2.3c1.63,0,3.19.28,4.67.83,1.48.55,2.78,1.33,3.88,2.34s1.99,2.21,2.66,3.59c.67,1.39,1.01,2.95,1.01,4.67,0,2.25-.48,4.36-1.44,6.33-.96,1.97-2.23,3.67-3.81,5.1-1.58,1.44-3.4,2.6-5.46,3.49-2.06.89-4.17,1.38-6.33,1.47.19,1.39.75,2.4,1.69,3.02s2.05.93,3.34.93c.96,0,1.89-.24,2.8-.72.91-.48,1.8-1.02,2.66-1.62.86-.6,1.71-1.14,2.55-1.62.84-.48,1.69-.72,2.55-.72.96,0,1.82.31,2.59.93.77.62,1.15,1.44,1.15,2.44ZM460.84,158.17c0-.62-.17-1.27-.5-1.94-.34-.67-.86-1.01-1.58-1.01-1.05,0-1.94.28-2.66.83-.72.55-1.32,1.25-1.8,2.08-.48.84-.85,1.74-1.11,2.7-.26.96-.42,1.85-.47,2.66.67-.14,1.47-.33,2.41-.58.93-.24,1.82-.56,2.66-.97.84-.41,1.56-.92,2.16-1.55.6-.62.9-1.37.9-2.23Z"/>
  </g>
  <g>
    <path class="st7" d="M405.42,139.49c0,1.2-.47,2.29-1.4,3.27-.94.98-2.06,1.84-3.38,2.59-1.32.74-2.68,1.35-4.06,1.83-1.39.48-2.54.81-3.45,1.01-.39,3.69-.68,7.37-.9,11.04s-.33,7.34-.33,11.04c0,1.97.05,3.91.14,5.82.1,1.92.14,3.83.14,5.75,0,.86-.09,1.81-.25,2.84-.17,1.03-.46,2-.86,2.91-.41.91-.97,1.68-1.69,2.3-.72.62-1.61.93-2.66.93-1.25,0-2.24-.35-2.98-1.04-.74-.69-1.32-1.55-1.73-2.55-.41-1.01-.68-2.07-.83-3.2-.14-1.12-.22-2.14-.22-3.06-.1-2.88-.17-5.76-.22-8.66-.05-2.9-.07-5.81-.07-8.74,0-2.44.01-4.84.03-7.19.03-2.35.04-4.75.04-7.19-.67.1-1.35.17-2.05.22-.69.05-1.4.07-2.12.07-.58,0-1.33-.06-2.26-.18-.94-.12-1.83-.33-2.7-.65-.86-.31-1.6-.74-2.23-1.29s-.94-1.26-.94-2.12c0-1.44.56-2.7,1.69-3.78s2.56-2.01,4.32-2.8c1.75-.79,3.69-1.46,5.82-2.01,2.13-.55,4.24-.98,6.33-1.29s4-.54,5.75-.68,3.11-.22,4.06-.22,1.88.04,2.91.11,2,.28,2.91.61c.91.34,1.66.84,2.26,1.51s.9,1.61.9,2.8h.03Z"/>
    <path class="st7" d="M435.79,169.98c0,.82-.01,2.03-.04,3.63-.02,1.61-.1,3.28-.22,5.03s-.27,3.4-.47,4.96c-.19,1.56-.43,2.7-.72,3.41-.38.91-.89,1.7-1.51,2.37s-1.47,1.01-2.52,1.01c-1.63,0-2.8-.65-3.52-1.94-.72-1.29-1.2-2.9-1.44-4.82-.24-1.92-.33-4-.29-6.25.05-2.25.02-4.34-.07-6.26-.1-1.92-.36-3.52-.79-4.82-.43-1.29-1.22-1.94-2.37-1.94-1.58,0-2.79.25-3.63.75s-1.44,1.16-1.8,1.98c-.36.82-.58,1.75-.65,2.8-.07,1.06-.16,2.16-.25,3.31-.1,1.1-.17,2.59-.22,4.46-.05,1.87-.26,3.71-.65,5.54-.38,1.82-1.02,3.39-1.9,4.71-.89,1.32-2.19,1.98-3.92,1.98-1.05,0-1.9-.41-2.55-1.22s-1.16-1.87-1.54-3.16c-.39-1.29-.66-2.73-.83-4.31-.17-1.58-.26-3.13-.29-4.64-.02-1.51-.02-2.89,0-4.13.03-1.25.04-2.18.04-2.81,0-.96.04-2.54.11-4.74.07-2.2.23-4.66.47-7.37.24-2.71.55-5.5.94-8.38.38-2.88.89-5.5,1.51-7.87s1.38-4.3,2.26-5.79c.89-1.48,1.93-2.2,3.13-2.16.76.05,1.42.38,1.98,1.01.55.62,1.01,1.43,1.37,2.41.36.98.66,2.05.9,3.2s.42,2.29.54,3.42.19,2.17.22,3.13c.02.96.03,1.7.03,2.23,0,1.25-.02,2.49-.07,3.74-.05,1.25-.12,2.49-.22,3.74,1.1-1.49,2.58-2.71,4.42-3.67,1.84-.96,3.7-1.44,5.57-1.44,2.4,0,4.2.66,5.43,1.98,1.22,1.32,2.1,2.95,2.62,4.89.53,1.94.82,4,.86,6.18.04,2.18.07,4.13.07,5.86h0Z"/>
    <path class="st7" d="M472.49,175.8c0,1.63-.52,3.22-1.55,4.78s-2.32,2.95-3.88,4.17-3.22,2.2-5,2.95c-1.77.74-3.4,1.11-4.89,1.11-2.54,0-4.81-.63-6.79-1.91-1.99-1.27-3.65-2.89-5-4.85-1.34-1.96-2.36-4.14-3.05-6.51-.7-2.37-1.04-4.68-1.04-6.94,0-2.4.33-4.96,1.01-7.69.67-2.73,1.69-5.25,3.05-7.55,1.37-2.3,3.09-4.22,5.18-5.75s4.57-2.3,7.44-2.3c1.63,0,3.19.28,4.67.83,1.49.55,2.78,1.33,3.88,2.34s1.99,2.21,2.66,3.6,1.01,2.95,1.01,4.67c0,2.25-.48,4.36-1.44,6.33s-2.23,3.67-3.81,5.1c-1.58,1.44-3.4,2.6-5.46,3.49s-4.17,1.38-6.33,1.47c.19,1.39.75,2.4,1.69,3.02.94.62,2.05.94,3.34.94.96,0,1.89-.24,2.81-.72.91-.48,1.8-1.02,2.66-1.62.86-.6,1.71-1.14,2.55-1.62s1.69-.72,2.55-.72c.96,0,1.82.31,2.59.94.76.62,1.15,1.44,1.15,2.44h0ZM460.84,158.19c0-.62-.17-1.27-.5-1.94s-.86-1.01-1.58-1.01c-1.05,0-1.94.28-2.66.83s-1.32,1.25-1.8,2.09c-.48.84-.85,1.74-1.12,2.7-.26.96-.42,1.85-.47,2.66.67-.14,1.48-.34,2.41-.58s1.82-.56,2.66-.97,1.56-.92,2.16-1.55c.6-.62.9-1.37.9-2.23h0Z"/>
  </g>
  <g>
    <path class="st6" d="M413.27,207.63c0,1.33-.42,2.49-1.26,3.47s-1.84,1.79-2.99,2.43c-1.04.64-2.11,1.32-3.21,2.04-1.1.72-2.11,1.53-3.04,2.43-.93.9-1.68,1.9-2.26,2.99-.58,1.1-.87,2.34-.87,3.73,0,1.22.29,2.31.87,3.3.58.98,1.29,1.95,2.13,2.91s1.76,1.94,2.78,2.95c1.01,1.01,1.94,2.14,2.78,3.39s1.55,2.65,2.13,4.21c.58,1.56.87,3.39.87,5.47,0,1.45-.3,3.08-.91,4.9-.61,1.82-1.43,3.66-2.47,5.51-1.04,1.85-2.27,3.65-3.69,5.38s-2.92,3.29-4.51,4.64c-1.59,1.36-3.25,2.46-4.99,3.3s-3.42,1.26-5.03,1.26c-1.79,0-3.38-.49-4.77-1.48-1.39-.98-2.08-2.46-2.08-4.43,0-1.33.32-2.56.96-3.69.64-1.13,1.42-2.21,2.34-3.25.92-1.04,1.95-2.05,3.08-3.04,1.13-.98,2.16-1.97,3.08-2.95.92-.98,1.71-2.01,2.34-3.08.64-1.07.96-2.21.96-3.43,0-1.68-.59-3.4-1.78-5.16-1.19-1.76-2.5-3.59-3.95-5.47s-2.76-3.8-3.95-5.77-1.78-3.96-1.78-5.99c0-2.49.66-5.11,2-7.86,1.33-2.75,3.04-5.26,5.12-7.55,2.08-2.29,4.43-4.18,7.03-5.69,2.6-1.5,5.18-2.26,7.72-2.26,2.03,0,3.76.61,5.21,1.82,1.45,1.22,2.17,2.86,2.17,4.95l-.03.02Z"/>
    <path class="st6" d="M438.31,271.69c-4.11,0-7.31-.54-9.59-1.61-2.29-1.07-3.99-2.59-5.12-4.56s-1.81-4.34-2.04-7.12-.35-5.87-.35-9.29c0-2.72.09-5.45.26-8.2s.43-5.69.78-8.81c-.81,0-1.45.02-1.91.04-.46.03-.84.04-1.13.04-1.85,0-3.46-.4-4.82-1.22-1.36-.81-2.04-2.05-2.04-3.73,0-1.04.39-1.97,1.17-2.78s1.78-1.5,3-2.08c1.21-.58,2.53-1.04,3.95-1.39s2.76-.58,4.04-.69c0-1.62.12-3.41.35-5.38s.65-3.8,1.26-5.51c.61-1.71,1.43-3.14,2.47-4.3s2.37-1.74,3.99-1.74c.92,0,1.75.28,2.47.82.72.55,1.32,1.25,1.78,2.08.46.84.81,1.78,1.04,2.82.23,1.04.35,2.05.35,3.04,0,1.16-.09,2.34-.26,3.56s-.49,2.72-.96,4.51c.98-.12,1.65-.19,2-.22s.67-.04.96-.04c.98,0,2.01.09,3.08.26,1.07.17,2.05.46,2.95.87.9.41,1.63.94,2.21,1.61s.87,1.46.87,2.39c0,1.04-.42,1.97-1.26,2.78s-1.9,1.51-3.17,2.08c-1.27.58-2.63,1.03-4.08,1.35-1.45.32-2.81.54-4.08.65-.35,2.37-.59,4.56-.74,6.55s-.3,4.01-.48,6.03c-.12.98-.22,1.98-.3,3-.09,1.01-.13,2.04-.13,3.08,0,.75.03,1.64.09,2.65s.26,1.98.61,2.91c.35.93.9,1.72,1.65,2.39s1.79,1,3.12,1c.81,0,1.65-.07,2.52-.22.87-.14,1.74-.22,2.6-.22,1.5,0,2.59.52,3.25,1.56s1,2.37,1,3.99c0,1.22-.36,2.27-1.08,3.17-.72.9-1.64,1.62-2.73,2.17-1.1.55-2.33.97-3.69,1.26-1.36.29-2.65.43-3.86.43v.02Z"/>
    <path class="st6" d="M490.09,256.33c0,1.04-.04,2.4-.13,4.08s-.33,3.31-.74,4.9-1.04,2.97-1.91,4.12c-.87,1.16-2.08,1.74-3.65,1.74-2.14,0-3.79-.69-4.95-2.08-1.16-1.39-1.71-3.12-1.65-5.21-1.85,1.62-3.95,2.89-6.29,3.82-2.34.92-4.73,1.39-7.16,1.39-1.68,0-3.27-.41-4.77-1.21-1.51-.81-2.84-1.85-3.99-3.12-1.16-1.27-2.08-2.7-2.78-4.3-.69-1.59-1.04-3.17-1.04-4.73,0-2.78.85-5.21,2.56-7.29,1.71-2.08,3.8-3.86,6.29-5.34,2.49-1.48,5.13-2.65,7.94-3.52,2.81-.87,5.31-1.45,7.51-1.74,0-.29.01-.55.04-.78s.04-.49.04-.78c0-1.79-.49-3.24-1.48-4.34-.99-1.1-2.37-1.65-4.17-1.65-1.45,0-2.69.25-3.73.74s-2.03,1.04-2.95,1.65c-.93.61-1.85,1.16-2.78,1.65-.93.49-1.97.74-3.12.74-1.27,0-2.36-.4-3.25-1.21-.9-.81-1.35-1.85-1.35-3.12,0-1.91.56-3.65,1.69-5.21,1.13-1.56,2.55-2.88,4.25-3.95,1.71-1.07,3.56-1.91,5.55-2.52s3.83-.91,5.51-.91c1.56,0,3.12.19,4.69.56,1.56.38,3.04.95,4.43,1.74s2.65,1.74,3.78,2.86c1.13,1.13,2.04,2.45,2.73,3.95,1.04,2.14,1.88,4.41,2.52,6.81.64,2.4,1.13,4.86,1.48,7.38s.58,5.03.69,7.55c.12,2.52.17,4.96.17,7.33h.02ZM476.2,253.55l-.26-5.9c-.12,0-.23,0-.35-.04s-.23-.04-.35-.04c-.75,0-1.69.19-2.82.56-1.13.38-2.21.9-3.25,1.56-1.04.67-1.92,1.4-2.65,2.21-.72.81-1.08,1.65-1.08,2.52,0,.81.29,1.36.87,1.65s1.24.43,2,.43c1.27,0,2.63-.33,4.08-1,1.45-.67,2.72-1.32,3.82-1.95h0Z"/>
    <path class="st6" d="M527.19,236.1c-.81.06-1.51,0-2.08-.22-.58-.2-1.16-.42-1.74-.65-.52-.23-1.04-.45-1.56-.65s-1.1-.27-1.74-.22c-1.16.06-2.19.38-3.08.96-.9.58-1.71,1.3-2.43,2.17s-1.35,1.84-1.87,2.91-.93,2.13-1.22,3.17c-.17.69-.3,1.75-.39,3.17-.09,1.42-.13,2.94-.13,4.56-.06,1.68-.09,3.27-.09,4.77s-.06,2.69-.17,3.56c-.06.93-.2,2.01-.43,3.25-.23,1.25-.59,2.42-1.08,3.52-.49,1.1-1.14,2.03-1.95,2.78s-1.85,1.13-3.12,1.13c-.99,0-1.84-.29-2.56-.87s-1.33-1.35-1.82-2.3c-.49-.95-.9-2.07-1.21-3.34-.32-1.27-.56-2.57-.74-3.91-.17-1.39-.3-2.78-.39-4.17-.09-1.39-.14-2.7-.17-3.95-.03-1.24-.03-2.39,0-3.43s.04-1.88.04-2.52c-.06-2.02-.16-4.06-.3-6.12-.15-2.05-.22-4.09-.22-6.12,0-1.27.06-2.69.17-4.25.12-1.56.43-3.02.95-4.38.52-1.36,1.29-2.5,2.3-3.43,1.01-.92,2.42-1.39,4.21-1.39.98,0,1.82.32,2.52.95.69.64,1.26,1.42,1.69,2.34.43.93.77,1.91,1,2.95s.38,2,.43,2.86c1.39-2.26,2.95-4.09,4.69-5.51s3.99-2.18,6.77-2.3c1.39-.06,2.76.07,4.12.39,1.36.32,2.6.84,3.73,1.56s2.05,1.66,2.78,2.82c.72,1.16,1.11,2.52,1.17,4.08.12,1.85-.43,3.27-1.65,4.25-1.22.98-2.69,1.51-4.43,1.56v.02Z"/>
    <path class="st6" d="M566.46,236.1c-.81.06-1.51,0-2.08-.22-.58-.2-1.16-.42-1.74-.65-.52-.23-1.04-.45-1.56-.65s-1.1-.27-1.74-.22c-1.16.06-2.19.38-3.08.96-.9.58-1.71,1.3-2.43,2.17s-1.35,1.84-1.87,2.91-.93,2.13-1.22,3.17c-.17.69-.3,1.75-.39,3.17s-.13,2.94-.13,4.56c-.06,1.68-.09,3.27-.09,4.77s-.06,2.69-.17,3.56c-.06.93-.2,2.01-.43,3.25-.23,1.25-.59,2.42-1.08,3.52-.49,1.1-1.14,2.03-1.95,2.78s-1.85,1.13-3.12,1.13c-.99,0-1.84-.29-2.56-.87s-1.33-1.35-1.82-2.3c-.49-.95-.9-2.07-1.21-3.34-.32-1.27-.56-2.57-.74-3.91-.17-1.39-.3-2.78-.39-4.17s-.14-2.7-.17-3.95c-.03-1.24-.03-2.39,0-3.43s.04-1.88.04-2.52c-.06-2.02-.16-4.06-.3-6.12-.15-2.05-.22-4.09-.22-6.12,0-1.27.06-2.69.17-4.25.12-1.56.43-3.02.95-4.38s1.29-2.5,2.3-3.43c1.01-.92,2.42-1.39,4.21-1.39.98,0,1.82.32,2.52.95.69.64,1.26,1.42,1.69,2.34.43.93.77,1.91,1,2.95s.38,2,.43,2.86c1.39-2.26,2.95-4.09,4.69-5.51s3.99-2.18,6.77-2.3c1.39-.06,2.76.07,4.12.39,1.36.32,2.6.84,3.73,1.56s2.05,1.66,2.78,2.82c.72,1.16,1.11,2.52,1.17,4.08.12,1.85-.43,3.27-1.65,4.25-1.22.98-2.69,1.51-4.43,1.56v.02Z"/>
    <path class="st6" d="M594.45,293.82c-1.39,0-2.97-.22-4.73-.65-1.77-.43-3.43-1.06-4.99-1.87s-2.88-1.79-3.95-2.95-1.61-2.49-1.61-3.99c0-.58.14-1.16.43-1.74s.68-1.08,1.17-1.52c.49-.43,1.03-.78,1.61-1.04.58-.26,1.19-.39,1.82-.39.69,0,1.37.1,2.04.3.67.2,1.35.45,2.04.74.75.29,1.49.55,2.21.78.72.23,1.49.35,2.3.35,1.45,0,2.7-.49,3.78-1.48,1.07-.99,1.98-2.27,2.73-3.86s1.36-3.36,1.82-5.29c.46-1.94.82-3.86,1.08-5.77s.45-3.7.56-5.38c.12-1.68.2-3.04.26-4.08-2.03,3.07-4.04,5.42-6.03,7.07-2,1.65-4.44,2.47-7.33,2.47-2.2,0-4.12-.46-5.77-1.39-1.65-.92-3.05-2.14-4.21-3.65-1.16-1.5-2.11-3.22-2.86-5.16s-1.32-3.95-1.69-6.03c-.38-2.08-.62-4.12-.74-6.12s-.12-3.83,0-5.51c.06-1.27.22-2.94.48-4.99s.68-4.06,1.26-6.03,1.39-3.63,2.43-4.99,2.4-1.98,4.08-1.87c1.1.06,2,.54,2.69,1.43.69.9,1.26,2.01,1.69,3.34s.75,2.79.96,4.38c.2,1.59.33,3.17.39,4.73s.07,3,.04,4.3-.04,2.3-.04,2.99c0,.98.03,1.97.09,2.95s.26,1.87.61,2.65.88,1.4,1.61,1.87c.72.46,1.75.69,3.08.69,1.5,0,2.7-.38,3.6-1.13.9-.75,1.56-1.69,2-2.82.43-1.13.71-2.34.82-3.65.12-1.3.17-2.53.17-3.69v-2.95c0-1.16.01-2.37.04-3.65.03-1.27.14-2.53.35-3.78.2-1.24.52-2.37.96-3.39.43-1.01,1.01-1.84,1.74-2.47.72-.64,1.66-.96,2.82-.96,1.45,0,2.69.56,3.73,1.69s1.92,2.6,2.65,4.43c.72,1.82,1.3,3.83,1.74,6.03.43,2.2.77,4.38,1,6.55s.39,4.17.48,5.99c.09,1.82.13,3.25.13,4.3,0,2.43-.09,5.19-.26,8.29-.17,3.1-.51,6.28-1,9.55s-1.23,6.48-2.21,9.63c-.98,3.15-2.27,5.97-3.86,8.46-1.59,2.49-3.54,4.48-5.86,5.99-2.32,1.5-5.09,2.26-8.33,2.26l-.02.03Z"/>
  </g>
  <g>
    <path class="st1" d="M371.08,299.41c0,2.59-.56,5.13-1.69,7.62s-2.62,4.73-4.49,6.72-4,3.62-6.4,4.89c-2.4,1.27-4.87,1.98-7.41,2.12-.05.86-.08,1.95-.11,3.27-.03,1.32-.11,2.7-.25,4.13-.14,1.44-.35,2.88-.61,4.31-.26,1.44-.65,2.73-1.15,3.88s-1.15,2.08-1.94,2.8-1.76,1.08-2.91,1.08c-1.34,0-2.41-.44-3.2-1.33-.79-.89-1.39-1.95-1.8-3.2-.41-1.25-.68-2.55-.83-3.92-.14-1.37-.24-2.53-.29-3.49-.1-1.39-.16-2.76-.18-4.1s-.04-2.71-.04-4.1v-3.49c0-1.7.01-3.64.04-5.82.02-2.18.06-4.46.11-6.83s.12-4.58.22-6.61c.1-2.04.2-3.77.32-5.21s.28-2.28.47-2.52c.05-.05.19-.16.43-.32.24-.17.5-.33.79-.5s.55-.32.79-.47c.24-.14.41-.24.5-.29,2.2-1.25,4.62-2.32,7.26-3.24,2.63-.91,5.25-1.37,7.84-1.37,2.2,0,4.21.44,6,1.33,1.8.89,3.33,2.06,4.6,3.52,1.27,1.46,2.24,3.16,2.91,5.1s1.01,3.94,1.01,6v.04ZM358.65,301.06c0-.96-.23-1.8-.68-2.52-.46-.72-1.21-1.08-2.26-1.08-.91,0-1.82.18-2.73.54-.91.36-1.75.73-2.52,1.11.14,1.68.28,3.31.4,4.89.12,1.58.13,3.21.04,4.89.77-.38,1.61-.83,2.52-1.33s1.75-1.07,2.52-1.69,1.41-1.33,1.94-2.12.79-1.69.79-2.7h-.02Z"/>
    <path class="st1" d="M404.84,327.8c0,.86-.04,1.99-.11,3.38-.07,1.39-.28,2.74-.61,4.06-.34,1.32-.86,2.46-1.58,3.42-.72.96-1.73,1.44-3.02,1.44-1.77,0-3.14-.58-4.1-1.73-.96-1.15-1.41-2.59-1.37-4.31-1.53,1.34-3.27,2.4-5.21,3.16-1.94.77-3.92,1.15-5.93,1.15-1.39,0-2.71-.34-3.95-1.01-1.25-.67-2.35-1.53-3.31-2.59-.96-1.05-1.72-2.24-2.3-3.56s-.86-2.62-.86-3.92c0-2.3.71-4.31,2.12-6.04s3.15-3.2,5.21-4.42,4.25-2.19,6.58-2.91c2.32-.72,4.4-1.2,6.22-1.44,0-.24.01-.45.04-.65.02-.19.04-.41.04-.65,0-1.48-.41-2.68-1.22-3.59-.82-.91-1.97-1.37-3.45-1.37-1.2,0-2.23.21-3.09.61-.86.41-1.68.86-2.44,1.37s-1.53.96-2.3,1.37-1.63.61-2.59.61c-1.05,0-1.95-.33-2.7-1.01-.74-.67-1.11-1.53-1.11-2.59,0-1.58.47-3.02,1.4-4.31s2.11-2.38,3.52-3.27c1.41-.89,2.95-1.58,4.6-2.08s3.17-.75,4.57-.75c1.29,0,2.59.16,3.88.47s2.52.79,3.67,1.44c1.15.65,2.19,1.44,3.13,2.37s1.69,2.03,2.26,3.27c.86,1.77,1.56,3.66,2.08,5.64.53,1.99.94,4.03,1.22,6.11s.48,4.17.58,6.25c.1,2.08.14,4.11.14,6.08h-.01ZM393.33,325.5l-.22-4.89c-.1,0-.19-.01-.29-.04-.1-.02-.19-.04-.29-.04-.62,0-1.4.16-2.34.47-.93.31-1.83.74-2.7,1.29-.86.55-1.59,1.16-2.19,1.83-.6.67-.9,1.37-.9,2.08,0,.67.24,1.13.72,1.37s1.03.36,1.65.36c1.05,0,2.18-.28,3.38-.83s2.25-1.09,3.16-1.62l.02.02Z"/>
    <path class="st1" d="M427.37,340.53c-3.4,0-6.05-.44-7.94-1.33-1.89-.89-3.31-2.14-4.24-3.77-.93-1.63-1.5-3.59-1.69-5.9-.19-2.3-.29-4.86-.29-7.69,0-2.25.07-4.52.22-6.79.14-2.28.36-4.71.65-7.3-.67,0-1.2.01-1.58.04-.38.03-.7.04-.93.04-1.54,0-2.87-.33-3.99-1.01-1.13-.67-1.69-1.7-1.69-3.09,0-.86.32-1.63.97-2.3.65-.67,1.47-1.25,2.48-1.73s2.1-.86,3.27-1.15c1.17-.29,2.29-.48,3.34-.58,0-1.34.09-2.83.29-4.46.19-1.63.54-3.15,1.04-4.57.5-1.41,1.19-2.6,2.05-3.56s1.96-1.44,3.31-1.44c.77,0,1.45.23,2.05.68.6.46,1.09,1.03,1.47,1.72.38.7.67,1.47.86,2.34.19.86.29,1.7.29,2.52,0,.96-.07,1.94-.22,2.95-.14,1.01-.41,2.25-.79,3.74.81-.1,1.37-.16,1.65-.18.29-.02.55-.04.79-.04.81,0,1.67.07,2.55.22.89.14,1.7.38,2.45.72.74.34,1.35.78,1.83,1.33.48.55.72,1.21.72,1.98,0,.86-.35,1.63-1.04,2.3-.7.67-1.57,1.25-2.62,1.73s-2.18.85-3.38,1.11c-1.2.26-2.33.44-3.38.54-.29,1.97-.49,3.77-.61,5.43-.12,1.65-.25,3.32-.4,5-.1.82-.18,1.64-.25,2.48s-.11,1.69-.11,2.55c0,.62.02,1.35.07,2.19.05.84.22,1.64.5,2.41.29.77.74,1.43,1.37,1.98.62.55,1.49.83,2.59.83.67,0,1.37-.06,2.08-.18.72-.12,1.44-.18,2.16-.18,1.25,0,2.14.43,2.7,1.29.55.86.83,1.97.83,3.31,0,1.01-.3,1.88-.9,2.62s-1.35,1.34-2.26,1.8-1.93.8-3.06,1.04c-1.13.24-2.19.36-3.2.36h0Z"/>
    <path class="st1" d="M472.34,319.32c0,.82-.01,2.03-.04,3.63-.02,1.61-.1,3.28-.21,5.03-.12,1.75-.28,3.4-.47,4.96s-.43,2.7-.72,3.42c-.38.91-.89,1.7-1.51,2.37-.62.67-1.46,1.01-2.52,1.01-1.63,0-2.8-.65-3.52-1.94s-1.2-2.9-1.44-4.82-.34-4-.29-6.25.02-4.34-.07-6.25c-.1-1.92-.36-3.52-.79-4.82-.43-1.29-1.22-1.94-2.37-1.94-1.58,0-2.79.25-3.63.75s-1.44,1.16-1.8,1.98-.58,1.75-.65,2.8-.16,2.16-.25,3.31c-.1,1.1-.17,2.59-.22,4.46s-.26,3.71-.65,5.54c-.38,1.82-1.02,3.39-1.91,4.71-.89,1.32-2.19,1.98-3.92,1.98-1.06,0-1.91-.41-2.55-1.22-.65-.81-1.16-1.87-1.55-3.16s-.66-2.73-.83-4.31c-.17-1.58-.26-3.13-.29-4.64-.02-1.51-.02-2.89,0-4.13.02-1.25.04-2.18.04-2.8,0-.96.04-2.54.11-4.75.07-2.2.23-4.66.47-7.37s.55-5.5.93-8.38.89-5.5,1.51-7.87,1.38-4.3,2.26-5.79c.89-1.49,1.93-2.2,3.13-2.16.77.05,1.42.38,1.98,1.01.55.62,1.01,1.43,1.37,2.41s.66,2.05.9,3.2c.24,1.15.42,2.29.54,3.42s.19,2.17.22,3.13c.02.96.04,1.7.04,2.23,0,1.25-.02,2.49-.07,3.74-.05,1.25-.12,2.49-.22,3.74,1.1-1.48,2.58-2.71,4.42-3.67,1.84-.96,3.7-1.44,5.57-1.44,2.4,0,4.21.66,5.43,1.98s2.1,2.95,2.62,4.89c.53,1.94.81,4,.86,6.18s.07,4.13.07,5.86l.02-.03Z"/>
  </g>
  <path class="st0" d="M261.59,213.19c6.51-7.91.44-19.02-8-22.24-8.56-3.26-17.79-.47-25.18,4.28-5.63,3.62-10.46,8.18-14.83,13.2,7.84,2.77,15.43,6.26,23.36,8.74,8.05,2.51,18.67,3.29,24.65-3.98Z"/>
  <path class="st0" d="M98.21,222.04c7.21-3.59,6.77-14.44.85-19.02-7.02-5.44-17.05-2.69-22.6,3.45.22.95.47,1.9.77,2.84,2.63,8.29,11.59,17.41,20.98,12.73h0Z"/>
  <path class="st0" d="M165.5,238.35l-5.13,4.69c-.38.34-.57.84-.53,1.35l.58,6.93c.11,1.31-1.3,2.21-2.44,1.56l-6.05-3.43c-.18-.1-.37-.16-.56-.19.09,4.59,2.91,9.18,7.85,9.55,5.84.43,11.33-4.19,15.39-7.82,3.42-3.07,6.55-6.45,9.49-9.99,4.75-5.73,8.98-11.86,13.26-17.94-2.79-.06-5.6.03-8.43.29-9.65.91-19.29,3.93-27.13,9.76-.57.42-1.14.87-1.71,1.34l4.69,1.1c1.28.3,1.7,1.92.73,2.8h0Z"/>
  <path class="st0" d="M120.53,169.23c.61,7.74,6.95,17.4,15.61,11.33,8.61-6.03,4.7-17.73-2.75-22.77-3.07-2.07-6.67-3.17-10.4-3.6-1.81,4.83-2.86,10-2.47,15.03h.01Z"/>
  <path class="st7" d="M220.86,286.53c-1.87-.26-3.76-.45-5.66-.53-6.88-.29-15.28.35-19.53,6.57-4.15,6.07-4.07,14.97-2.35,21.84,4.1,16.42,18.56,23.73,33.18,29.27,7.87,2.98,16.16,5.94,22.57,11.6,6.48,5.71,10.92,15.16,7.3,23.63-1.04,2.43,2.55,4.53,3.6,2.08,3.42-8.01,1.61-16.73-3.43-23.66-5.25-7.22-13.38-11.44-21.46-14.75-9.81-4.02-20.68-6.9-28.73-14.17-7.56-6.83-11.38-17.56-9.44-27.63,1.29-6.68,5.38-9.83,12.04-10.49,5.33-.53,10.73.05,15.95,1.12h0l-3.68-4.18c-.19-.21-.3-.46-.36-.71h-.01Z"/>
  <path class="st7" d="M106.53,206.36c-2.7-6.9-9.82-10.59-17.04-10.35-5.28.17-10.03,2.23-13.84,5.51-.55-5.75.15-11.62,1.86-17.12.53-1.69,1.15-3.32,1.87-4.9l3.54,4.39c.83,1.03,2.46.7,2.84-.56l2-6.66c.15-.49.51-.88.98-1.06l6.5-2.48c1.23-.47,1.43-2.13.35-2.88l-5.71-3.96c-.21-.14-.38-.33-.5-.55s-.19-.46-.2-.71l-.23-4.47-.12-2.47c-.07-1.32-1.58-2.02-2.63-1.22l-5.53,4.21c-.4.31-.93.41-1.42.28l-6.71-1.81c-1.27-.34-2.41.88-1.97,2.12l2.29,6.56c.17.48.1,1.01-.17,1.43l-3.8,5.82c-.72,1.1.09,2.56,1.41,2.53l5.27-.12c-3.6,8.28-5.38,18.55-3.75,27.76-.67.9-1.3,1.84-1.86,2.83-9.49,16.66-3.36,37.32,5.97,52.54,1.39,2.27,4.98.18,3.58-2.1-8.21-13.39-14.74-33.22-6.3-47.92,1.49,4.23,3.86,8.07,7.3,11.15,5.84,5.21,14.88,7.31,21.61,2.41,5.57-4.06,6.82-12.06,4.42-18.22v.02ZM98.21,222.04c-9.39,4.67-18.35-4.44-20.98-12.73-.3-.94-.55-1.88-.77-2.84,5.55-6.14,15.58-8.89,22.6-3.45,5.92,4.59,6.36,15.44-.85,19.02h0Z"/>
  <path class="st5" d="M174.07,110.59l-6.91-.77c-.5-.06-.95-.34-1.22-.78l-3.61-5.94c-.68-1.13-2.35-1.03-2.89.17l-2.87,6.33c-.21.46-.62.8-1.12.92l-6.77,1.59c-1.28.3-1.7,1.92-.73,2.8l4.36,3.97c-3.65,1.51-7.16,3.35-10.47,5.55-9.05,6.01-17.18,15.08-21.73,25.44-.53,0-1.05-.02-1.58,0-10.6.13-21.22,4.06-29.58,10.7l.23,4.47c.01.25.08.5.2.71,5.97-5.45,13.48-9.22,21.76-10.92,2.36-.48,4.86-.79,7.39-.84-1.41,4.22-2.21,8.59-2.23,13.03-.02,6.72,2.16,14.48,8.43,17.95,6.77,3.74,14.7.19,18.41-6.1,4.16-7.05,1.71-15.52-3.6-21.23-3.93-4.23-9.29-6.49-14.89-7.35.58-1.23,1.2-2.43,1.85-3.58,6.13-10.85,15.76-18.89,26.95-23.69l-.4,4.85c-.11,1.31,1.3,2.21,2.44,1.56l6.04-3.44c.44-.25.97-.28,1.44-.09l6.41,2.69c1.21.51,2.5-.55,2.24-1.84l-1.4-6.81c-.1-.5.03-1.01.36-1.4l.15-.18,3.9-4.53.48-.56c.86-1,.25-2.55-1.06-2.7l.02.03ZM133.39,157.79c7.45,5.04,11.36,16.74,2.75,22.77-8.67,6.07-15-3.59-15.61-11.33-.4-5.03.65-10.2,2.47-15.03,3.72.42,7.33,1.53,10.4,3.6h0Z"/>
  <path class="st6" d="M330.9,153.17c.92-.94.4-2.53-.9-2.76l-6.85-1.19c-.5-.09-.93-.4-1.17-.85l-3.24-6.15c-.61-1.16-2.28-1.16-2.9,0l-2.43,4.61c-1.98-1.76-4.14-3.29-6.48-4.54-3.52-1.87-7.27-3.04-11.12-3.62-2.25-6.91-6.84-13.06-13.35-17.4-14.08-9.41-33.4-9.56-49.63-7.48-7.79,1-15.43,3.15-22.15,6.8-3.8-1.97-7.89-3.43-11.99-4.48-7.76-1.99-15.95-2.79-24.05-2.28l-3.9,4.53c11.42-1.45,25.02-.46,35.93,4.68-5.05,3.42-9.43,7.82-12.73,13.41-7.25,12.31-11.43,34.76,5,42.11,6.77,3.03,15.18,1.67,21.01-2.79,6.49-4.96,9.6-13.14,10.08-21.1.56-9.18-2.42-18.82-8.48-25.78-1.95-2.23-4.19-4.15-6.62-5.8,5.03-2.42,10.54-4.02,16.25-4.92,14.38-2.27,31.82-2.43,45.06,4.26,7.06,3.57,12.29,9.19,14.97,15.81-10.14-.33-20.6,3.02-29.08,8.16-7.03,4.26-12.88,10.99-13,19.59-.1,7.98,5.42,14.09,13.15,15.5,14.57,2.65,28.18-8.24,33.03-21.36,2.09-5.65,2.56-11.45,1.62-16.94,4.76,1.07,9.14,3.2,12.92,6.27l-5.28.91c-1.3.22-1.81,1.81-.9,2.76l4.85,4.99c.35.36.52.87.45,1.37l-.99,6.88c-.19,1.3,1.16,2.28,2.34,1.7l6.24-3.07c.46-.22.99-.22,1.45,0l3.29,1.62,2.95,1.45c.71.35,1.49.13,1.95-.39.3-.34.47-.8.4-1.31l-.99-6.88c-.07-.5.09-1.01.45-1.37l4.85-4.99v.04ZM218.2,131.4c10.81,11.97,11.8,40.09-7.69,44.26-8.73,1.87-16.16-3.31-18.27-11.85-1.92-7.78.56-16.33,4.19-23.24,3.48-6.63,8.5-11.62,14.43-15.25,2.73,1.7,5.21,3.71,7.35,6.08h0ZM291.47,158.61c-2.24,6.27-6.57,11.85-12.27,15.34-6.15,3.76-15.34,5.85-21.63,1.25-8.97-6.57-2.6-18.73,4.43-23.74,6.35-4.53,14.35-7.5,22.05-8.64,2.9-.43,5.75-.51,8.5-.27,1.15,5.07.88,10.56-1.09,16.06h.01Z"/>
  <path class="st3" d="M352.16,182.65c-5.94-5.37-14.35-6.03-21.98-5.41-.65.05-1.29.12-1.94.18-.37-3.25-1.06-6.52-2.03-9.71-.46.52-1.23.74-1.95.39l-2.95-1.45c1.28,3.59,2.22,7.4,2.69,11.27-5.84.8-11.68,2.1-17.17,4.07-7.36,2.64-15.13,6.88-18.98,14.02-3.89,7.22-1.39,15.62,6.07,19.25,8.2,3.99,18.08.19,24.28-5.71,6.23-5.94,9.58-14.28,10.23-22.76.13-1.71.16-3.47.1-5.24.54-.05,1.08-.11,1.61-.15,8.19-.67,16.9.16,21.92,7.49,9.33,13.63,5.02,32.9-5.61,44.34-6.42,6.91-13.81,11.07-21.75,13.25l2.44-5.32c.55-1.2-.47-2.52-1.77-2.3l-6.85,1.17c-.5.09-1.01-.07-1.39-.41l-5.11-4.71c-.97-.89-2.54-.33-2.73.97l-1,6.88c-.07.5-.38.94-.82,1.19l-6.06,3.41c-.25.14-.44.34-.58.56-.49.77-.27,1.88.65,2.34l4.3,2.12,1.94.96c.46.22.78.65.88,1.15l1.37,6.82c.26,1.29,1.86,1.76,2.78.82l4.85-4.98c.35-.36.86-.54,1.36-.48l6.91.8c1.31.15,2.25-1.22,1.64-2.39l-2.52-4.79c12.41-3.33,23.53-10.59,30.35-22.05,7.79-13.09,9.06-34.5-3.21-45.59h.03ZM311.94,209.28c-4,2.64-9.19,4.27-13.96,3.06-5.56-1.41-9.29-6.64-7.37-12.35,2.56-7.63,11.32-11.97,18.38-14.36,4.93-1.66,10.12-2.83,15.33-3.57.36,10.63-3.02,21.05-12.37,27.22h-.01Z"/>
  <path class="st2" d="M154.39,234.05c.67-.68,1.36-1.33,2.06-1.96l-2.44-5.38c-.54-1.2-2.21-1.3-2.89-.17l-3.61,5.95c-.26.43-.71.72-1.22.78l-6.91.77c-1.31.15-1.92,1.7-1.06,2.7l4.54,5.27c.33.38.47.9.36,1.4l-1.4,6.81c-.26,1.29,1.02,2.35,2.24,1.84l3.24-1.36c-.6-6.28,2.71-12.2,7.07-16.64h.02Z"/>
  <path class="st2" d="M151.42,247.85c-.05.47-.06.94-.05,1.41.2.03.39.08.56.19l6.05,3.43c1.15.65,2.55-.25,2.44-1.56l-.58-6.93c-.04-.51.15-1,.53-1.35l5.13-4.69c.97-.89.55-2.5-.73-2.8l-4.69-1.1c-4.17,3.42-8.09,7.96-8.67,13.4h0Z"/>
  <path class="st2" d="M151.37,249.26c0-.47,0-.94.05-1.41.57-5.44,4.5-9.98,8.67-13.4l-2.08-.49c-.49-.12-.91-.46-1.12-.92l-.43-.95c-.71.63-1.4,1.28-2.06,1.96-4.37,4.44-7.67,10.36-7.07,16.64l3.17-1.33c.28-.12.58-.14.88-.1h-.01Z"/>
  <path class="st1" d="M225.81,292.46c.34.38.48.9.38,1.39l-1.33,6.83c-.25,1.29,1.05,2.34,2.26,1.82l6.38-2.76c.47-.2,1-.18,1.44.07l6.08,3.37c1.15.64,2.55-.28,2.42-1.59l-.49-5.17c-5.98-1.84-11.94-3.75-18.07-5l.92,1.04h0Z"/>
  <path class="st1" d="M248.4,288.57c.96-.9.53-2.51-.76-2.8l-6.79-1.52c-.5-.11-.91-.45-1.13-.91l-2.94-6.3c-.56-1.19-2.22-1.28-2.89-.14l-3.54,5.98c-.26.44-.71.73-1.21.79l-6.9.85c-1.02.13-1.6,1.11-1.38,2,7.94,1.11,15.59,3.65,23.27,6.02l4.27-3.99v.02Z"/>
  <path class="st1" d="M243.32,293.31l.81-.76c-7.68-2.37-15.33-4.92-23.27-6.02.06.25.17.49.36.71l3.68,4.18c6.13,1.26,12.09,3.17,18.07,5l-.17-1.76c-.05-.51.14-1,.51-1.35h.01Z"/>
  <path class="st1" d="M206.72,219.6c-.58-.07-1.16-.14-1.74-.21,1.85-2.57,3.76-5.1,5.74-7.56,15.41,5.12,39.97,20.44,53.82,4.28,5.35-6.25,4.78-15.43.09-21.88-4.85-6.68-13.52-9.42-21.51-8.72-13.84,1.21-24.85,10.9-33.75,21.54-16.83-5.26-34.7-8.05-52.24-5.08-15.53,2.63-31.02,9.93-40.96,22.46-8.96,11.3-15.21,27.87-11.92,42.38,2.91,12.82,14.63,19.71,26.85,21.74,17.36,2.88,35.85-.09,52.57-4.95,18.11-5.27,34.78-13.59,51.79-21.57,14.71-6.9,34.72-12.92,48.35-.28,6.61,6.13,8.35,16.11,5.45,24.51-3.21,9.27-12.89,11.75-21.75,11.29-8.03-.42-15.72-2.61-23.38-4.98l-.81.76c-.37.35-.56.85-.51,1.35l.17,1.76c4.33,1.33,8.67,2.62,13.1,3.6,8.53,1.88,17.91,2.93,26.16-.62,8.3-3.57,12.15-11.66,12.46-20.38.63-17.56-14.44-28.4-30.82-28.84-10.2-.27-20.05,3.45-29.18,7.65-10.27,4.72-20.27,9.95-30.74,14.23-21.01,8.58-43.61,14.69-66.49,13.06-8-.57-16.54-2.52-22.64-8.05-7.11-6.45-8.11-16.14-6.56-25.15,3.58-20.83,18.7-36.55,38.46-43.09,19.59-6.48,40.41-4.13,59.84,1.71-1.95,2.49-3.8,4.98-5.55,7.39-.22.3-.71.92-.93,1.22M228.41,195.24c7.39-4.75,16.62-7.54,25.18-4.28,8.44,3.21,14.51,14.33,8,22.24-5.99,7.27-16.6,6.49-24.65,3.98-7.93-2.47-15.52-5.97-23.36-8.74,4.38-5.02,9.2-9.58,14.83-13.2Z"/>
  <path class="st1" d="M161.95,262.79c7.41-1.05,13.7-6.82,18.78-11.91,5.47-5.48,10.17-11.66,14.68-17.94,2.26-3.15,4.5-6.4,6.78-9.64,2,.16,3.99.41,5.98.71l-.07-.02c-9.77-2.24-14.34-1.21-15.38-.9,1.55-.06,3.09-.08,4.63-.05-4.28,6.08-8.5,12.22-13.26,17.94-2.94,3.53-6.06,6.92-9.49,9.99-4.06,3.64-9.55,8.26-15.39,7.82-4.95-.37-7.76-4.96-7.85-9.55-.29-.04-.6-.02-.88.1l-3.17,1.33c.07.73.18,1.46.36,2.2,1.61,6.65,7.45,10.88,14.28,9.91h0Z"/>
  <path class="st2" d="M204.63,223.54c16.18,1.8,31.74,8.1,46.81,14.19,17.38,7.02,35.42,14.06,54.36,14.66l-4.3-2.12c-.92-.45-1.14-1.56-.65-2.34-18.25-1.99-37.12-9.71-52.52-15.9-13.38-5.38-27.15-10.56-41.49-12.42,0,0-4.48-.61-6.78-.63-1.13,0-2.26-.1-3.4-.11-14.23-.13-29.39,3.58-40.21,13.21l.43.95c.21.46.62.8,1.12.92l2.08.49c.57-.47,1.14-.91,1.71-1.34,7.84-5.83,17.47-8.86,27.13-9.76,2.74-.26,5.46-.35,8.16-.3"/>
</svg>