<?xml version="1.0" encoding="UTF-8"?>
<svg id="Layer_1" xmlns="http://www.w3.org/2000/svg" xmlns:xlink="http://www.w3.org/1999/xlink" version="1.1" viewBox="0 0 1375.03 483.06">
  <!-- Generator: Adobe Illustrator 29.7.1, SVG Export Plug-In . SVG Version: 2.1.1 Build 8)  -->
  <defs>
    <style>
      .st0 {
        fill: none;
      }

      .st1 {
        fill: #523cac;
      }

      .st2 {
        fill: #adc716;
      }

      .st3 {
        fill: #33c5b5;
      }

      .st4 {
        fill: #e44c17;
      }

      .st5 {
        fill: #dd2080;
      }

      .st6 {
        fill: #ecaa19;
      }

      .st7 {
        clip-path: url(#clippath);
      }
    </style>
    <clipPath id="clippath">
      <rect class="st0" x="3.16" y="72.08" width="1368.71" height="338.9"/>
    </clipPath>
  </defs>
  <g class="st7">
    <g>
      <path class="st5" d="M-24.79,308.04c26.26,5.18,52.54,10.49,79.19,13.28s55.85,2.62,83.56-1.57c51.85-7.84,98.63-32.27,149.35-44.31,50.93-12.1,104-15.88,156.23-14.1,50.03,1.71,98.47,10.52,146.65,23.76,44.08,12.11,87.8,25.79,133.28,31.73,52.87,6.91,106.01,2.17,157.28-12.25,25.91-7.29,51.29-16.34,77.41-22.87,27.41-6.84,55.67-11.12,83.98-10.07,21.53.79,42.99,4.92,62.89,13.32,16.12,6.81,29.85,16.75,44.25,26.46,15.61,10.52,32.75,18.72,51.03,23.36,25.96,6.59,52.26,5.31,78.57,1.78,23.44-3.15,46.63-6.22,70.29-6.91,22.45-.65,45-.34,67.36,1.86,11.35,1.11,22.63,2.8,33.72,5.48,6.02,1.46,8.58-7.82,2.56-9.28-22.89-5.54-46.7-7.23-70.18-7.79-19.67-.47-39.47-.17-59.09,1.4-28.41,2.28-56.48,9.16-85.09,8.74-22.51-.33-44.75-5.34-64.89-15.48-14.99-7.55-27.79-18.22-42.09-26.84-16.56-9.99-34.73-17.28-53.65-21.36-51.72-11.15-104.94-.05-154.6,15.19-26.76,8.21-53.33,17.05-80.88,22.31s-53.15,7.27-79.94,6.49c-46.89-1.36-92.24-12.74-137.16-25.41s-92.45-25.62-140.5-30.48c-52.83-5.34-106.57-4.04-159.09,3.85-24.08,3.62-47.92,8.83-71.12,16.27-24.6,7.89-48.48,17.9-73.21,25.39-27.71,8.39-56.3,13.24-85.27,13.69-26.6.42-53.01-2.79-79.16-7.41-13.08-2.31-26.1-4.92-39.12-7.49-6.05-1.19-8.64,8.08-2.56,9.28h0v-.02Z"/>
      <path class="st3" d="M-43.5,215.87c26.76,5.28,53.54,10.64,80.7,13.48,28.4,2.97,56.83,2.5,85.07-1.77,51.85-7.84,98.63-32.27,149.35-44.31,50.45-11.99,102.98-15.66,154.72-13.9,25.75.88,51.48,3.2,76.87,7.65,23.03,4.04,45.73,9.71,68.27,15.9,44.6,12.25,88.78,25.94,134.79,31.93,53.35,6.95,107.07,2.09,158.79-12.46,25.91-7.29,51.29-16.34,77.41-22.87,26.94-6.73,54.63-10.89,82.47-9.87,20.39.75,42.02,5.03,60.02,12.54,16.14,6.74,29.86,16.76,44.25,26.46,15.98,10.77,33.67,19.19,52.39,23.94,26.48,6.72,53.25,5.57,80.08,1.98,23.44-3.13,46.63-6.22,70.29-6.91,22.45-.65,45-.34,67.36,1.86,10.85,1.06,21.61,2.71,32.21,5.28,13.13,3.18,18.73-17.07,5.58-20.25-23.37-5.66-47.71-7.42-71.69-7.99-19.67-.47-39.47-.17-59.09,1.4-28.41,2.28-56.48,9.16-85.09,8.74-21.56-.31-43.25-5.25-62.02-14.7-14.99-7.55-27.79-18.22-42.09-26.84-16.95-10.22-35.65-17.76-55-21.93-52.75-11.37-106.94-.36-157.62,15.19-26.76,8.21-53.33,17.05-80.88,22.31-25.83,4.94-52.14,7.05-78.43,6.29-46.39-1.34-91.22-12.67-135.65-25.21-46.84-13.21-93.43-25.77-142.01-30.68-53.38-5.39-107.56-3.92-160.6,4.05-24.08,3.62-47.92,8.83-71.12,16.27-24.6,7.89-48.48,17.9-73.21,25.39-27.25,8.25-55.26,13.04-83.76,13.49-26.1.41-51.99-2.67-77.65-7.21-13.08-2.31-26.1-4.92-39.12-7.49-5.56-1.1-11.34,1.58-12.92,7.33-1.42,5.16,1.74,11.81,7.33,12.92h0Z"/>
      <path class="st2" d="M-27.02,219.84c26.76,5.28,53.54,10.64,80.7,13.48,28.4,2.97,56.83,2.5,85.07-1.77,51.85-7.84,98.63-32.27,149.35-44.31,50.45-11.99,102.98-15.66,154.72-13.9,25.75.88,51.48,3.2,76.87,7.65,23.03,4.04,45.73,9.71,68.27,15.9,44.6,12.25,88.78,25.94,134.79,31.93,53.35,6.95,107.07,2.09,158.79-12.46,25.91-7.29,51.29-16.34,77.41-22.87,26.94-6.73,54.63-10.89,82.47-9.87,20.39.75,42.02,5.03,60.02,12.54,16.14,6.74,29.86,16.76,44.25,26.46,15.98,10.77,33.67,19.19,52.39,23.94,26.48,6.72,53.25,5.57,80.08,1.98,23.44-3.13,46.63-6.22,70.29-6.91,22.45-.65,45-.34,67.36,1.86,10.85,1.06,21.61,2.71,32.21,5.28,13.13,3.18,18.73-17.07,5.58-20.25-23.37-5.66-47.71-7.42-71.69-7.99-19.67-.47-39.47-.17-59.09,1.4-28.41,2.28-56.48,9.16-85.09,8.74-21.56-.31-43.25-5.25-62.02-14.7-14.99-7.55-27.79-18.22-42.09-26.84-16.95-10.22-35.65-17.76-55-21.93-52.75-11.37-106.94-.36-157.62,15.19-26.76,8.21-53.33,17.05-80.88,22.31-25.83,4.94-52.14,7.05-78.43,6.29-46.39-1.34-91.22-12.67-135.65-25.21-46.84-13.21-93.43-25.77-142.01-30.68-53.38-5.39-107.56-3.92-160.6,4.05-24.08,3.62-47.92,8.83-71.12,16.27-24.6,7.89-48.48,17.9-73.21,25.39-27.25,8.25-55.26,13.04-83.76,13.49-26.1.41-51.99-2.67-77.65-7.21-13.08-2.31-26.1-4.92-39.12-7.49-5.56-1.1-11.34,1.58-12.92,7.33-1.42,5.16,1.74,11.81,7.33,12.92h0Z"/>
      <path class="st4" d="M-34.03,225.55c26.76,5.28,53.54,10.64,80.7,13.48,28.4,2.97,56.83,2.5,85.07-1.77,51.85-7.84,98.63-32.27,149.35-44.31,50.45-11.99,102.98-15.66,154.72-13.9,25.75.88,51.48,3.2,76.87,7.65,23.03,4.04,45.73,9.71,68.27,15.9,44.6,12.25,88.78,25.94,134.79,31.93,53.35,6.95,107.07,2.09,158.79-12.46,25.91-7.29,51.29-16.34,77.41-22.87,26.94-6.73,54.63-10.89,82.47-9.87,20.39.75,42.02,5.03,60.02,12.54,16.14,6.74,29.86,16.76,44.25,26.46,15.98,10.77,33.67,19.19,52.39,23.94,26.48,6.72,53.25,5.57,80.08,1.98,23.44-3.13,46.63-6.22,70.29-6.91,22.45-.65,45-.34,67.36,1.86,10.85,1.06,21.61,2.71,32.21,5.28,13.13,3.18,18.73-17.07,5.58-20.25-23.37-5.66-47.71-7.42-71.69-7.99-19.67-.47-39.47-.17-59.09,1.4-28.41,2.28-56.48,9.16-85.09,8.74-21.56-.31-43.25-5.25-62.02-14.7-14.99-7.55-27.79-18.22-42.09-26.84-16.95-10.22-35.65-17.76-55-21.93-52.75-11.37-106.94-.36-157.62,15.19-26.76,8.21-53.33,17.05-80.88,22.31-25.83,4.94-52.14,7.05-78.43,6.29-46.39-1.34-91.22-12.67-135.65-25.21-46.84-13.21-93.43-25.77-142.01-30.68-53.38-5.39-107.56-3.92-160.6,4.05-24.08,3.62-47.92,8.83-71.12,16.27-24.6,7.89-48.48,17.9-73.21,25.39-27.25,8.25-55.26,13.04-83.76,13.49-26.1.41-51.99-2.67-77.65-7.21-13.08-2.31-26.1-4.92-39.12-7.49-5.56-1.1-11.34,1.58-12.92,7.33-1.42,5.16,1.74,11.81,7.33,12.92h0Z"/>
      <path class="st1" d="M-19.91,301.62c26.76,5.28,53.54,10.64,80.7,13.48,28.4,2.97,56.83,2.5,85.07-1.77,51.85-7.84,98.63-32.27,149.35-44.31,50.45-11.99,102.98-15.66,154.72-13.9,25.75.88,51.48,3.2,76.87,7.65,23.03,4.04,45.73,9.71,68.27,15.9,44.6,12.25,88.78,25.94,134.79,31.93,53.35,6.95,107.07,2.09,158.79-12.46,25.91-7.29,51.29-16.34,77.41-22.87,26.94-6.73,54.63-10.89,82.47-9.87,20.39.75,42.02,5.03,60.02,12.54,16.14,6.74,29.86,16.76,44.25,26.46,15.98,10.77,33.67,19.19,52.39,23.94,26.48,6.72,53.25,5.57,80.08,1.98,23.44-3.13,46.63-6.22,70.29-6.91,22.45-.65,45-.34,67.36,1.86,10.85,1.06,21.61,2.71,32.21,5.28,13.13,3.18,18.73-17.07,5.58-20.25-23.37-5.66-47.71-7.42-71.69-7.99-19.67-.47-39.47-.17-59.09,1.4-28.41,2.28-56.48,9.16-85.09,8.74-21.56-.31-43.25-5.25-62.02-14.7-14.99-7.55-27.79-18.22-42.09-26.84-16.95-10.22-35.65-17.76-55-21.93-52.75-11.37-106.94-.36-157.62,15.19-26.76,8.21-53.33,17.05-80.88,22.31-25.83,4.94-52.14,7.05-78.43,6.29-46.39-1.34-91.22-12.67-135.65-25.21-46.84-13.21-93.43-25.77-142.01-30.68-53.38-5.39-107.56-3.92-160.6,4.05-24.08,3.62-47.92,8.83-71.12,16.27-24.6,7.89-48.48,17.9-73.21,25.39-27.25,8.25-55.26,13.04-83.76,13.49-26.1.41-51.99-2.67-77.65-7.21-13.08-2.31-26.1-4.92-39.12-7.49-5.56-1.1-11.34,1.58-12.92,7.33-1.42,5.16,1.74,11.81,7.33,12.92h0Z"/>
      <path class="st6" d="M-32,283.86c50.86,10.04,102.51,20.08,154.56,14.88,28.5-2.84,56.19-8.67,83.33-17.76,21.86-7.32,43.24-16.03,65.28-22.83,24.3-7.5,49.31-12.47,74.49-15.92l-9.49,1.28c55.57-7.43,112.4-7.74,167.99-.33l-9.49-1.28c61.14,8.34,118.96,29.96,179,43.2,33.38,7.36,67.71,12.1,101.94,11.94,39.16-.18,78.45-6.44,116.07-17.15,38.62-10.99,76.2-24.8,116.19-30.24-3.16.43-6.33.85-9.49,1.28,21.58-2.8,43.37-3.52,64.98-.68l-9.49-1.28c15.12,2.11,29.86,5.95,43.98,11.79l-8.53-3.6c10.52,4.44,20.56,9.9,30.07,16.22,8.86,5.9,17.25,12.39,26.49,17.72,28.96,16.73,61.89,25.33,95.31,25.49,23.59.12,47.06-4.34,70.36-7.52l-9.49,1.28c41.91-5.62,85.73-6.13,127.66-.53-3.16-.43-6.33-.85-9.49-1.28,7.68,1.07,15.3,2.41,22.83,4.24,9.18,2.22,19.27,1.22,27.52-3.6,7.41-4.34,14.47-12.83,16.41-21.34,4.19-18.38-5.52-39.23-24.94-43.93-31.37-7.59-64.45-9.24-96.63-9.05-11.5.07-23.01.42-34.49,1.12-20.3,1.23-40.39,4.59-60.52,7.33l9.49-1.28c-19.95,2.67-39.82,4.27-59.87,1.72l9.49,1.28c-13.41-1.84-26.44-5.34-38.92-10.59l8.53,3.6c-17.29-7.44-31.56-18.69-47.3-28.69-18.89-11.99-40.25-21.12-62.05-26.17-59.83-13.88-121.04-1.79-178.62,16.09-32.28,10.02-64.34,19.81-97.94,24.36l9.49-1.28c-33.17,4.33-66.58,4.16-99.74-.25l9.49,1.28c-72.76-9.96-141.17-39.18-213.85-49.67-44.75-6.46-89.79-8.78-134.96-6.17-42.03,2.43-84.62,8.07-125.13,19.83-21.63,6.28-42.56,14.63-63.81,22.06-23.54,8.23-47.49,14.73-72.24,18.07l9.49-1.28c-30.03,3.86-60.14,2.96-90.1-1.04,3.16.43,6.33.85,9.49,1.28-21.6-2.96-42.98-7.26-64.37-11.48-9.51-1.88-18.93-1.42-27.52,3.6-7.41,4.34-14.47,12.83-16.41,21.34-4.03,17.71,5.34,40.06,24.94,43.93h.01Z"/>
    </g>
  </g>
</svg>