<?xml version="1.0" encoding="UTF-8"?>
<svg id="Layer_2" data-name="Layer 2" xmlns="http://www.w3.org/2000/svg" xmlns:xlink="http://www.w3.org/1999/xlink" viewBox="0 0 1441.18 456.18">
  <defs>
    <style>
      .cls-1 {
        fill: #e3ae41;
      }

      .cls-2 {
        fill: none;
      }

      .cls-3 {
        fill: #4f3da7;
      }

      .cls-4 {
        fill: #cc377e;
      }

      .cls-5 {
        fill: #64c3b6;
      }

      .cls-6 {
        clip-path: url(#clippath);
      }

      .cls-7 {
        fill: #b3c743;
      }
    </style>
    <clipPath id="clippath">
      <rect class="cls-2" width="1441.18" height="456.18"/>
    </clipPath>
  </defs>
  <g id="Layer_1-2" data-name="Layer 1">
    <g class="cls-6">
      <path class="cls-4" d="M-27.63,313.36c29.54,14.35,59.5,29.84,91.9,36.58,33.3,6.93,66.53,2.68,97.22-11.95,56.23-26.81,93.28-80.69,147.29-111.05,52.42-29.47,115.4-40.74,174.82-31.41,28.09,4.41,55.12,13.3,80.37,26.33,22.4,11.56,43.45,25.55,64.16,39.86,40.64,28.07,81.11,58.99,128.63,74.49,22.92,7.48,47.4,10.7,71.43,8.07,29.73-3.25,57.91-14.21,83.31-29.79,28.95-17.75,54.3-40.55,82.23-59.76,25.89-17.81,55.65-34.08,87.81-35.07,55.12-1.68,89.1,46.44,113.32,89.42,12.89,22.88,27.7,45.96,47.94,63.07,20.92,17.68,46.22,26.47,73.59,22.28,16.75-2.56,32.63-9.1,48.59-14.49,12.79-4.32,26.58-7.77,39.05-9.17,25.26-2.83,51.44-2.78,76.34,2.68,13.45,2.95,26.39,7.51,38.24,14.58,8.77,5.23,16.74-8.44,7.99-13.67-24.93-14.89-54.5-20.18-83.19-21.06-24.43-.75-49.73,1.2-73.19,8.32-28.54,8.66-57.98,24.59-88.34,15.14-24.09-7.5-42.24-27.73-56.16-47.86-15.14-21.89-26.32-46.15-42.38-67.45-15.45-20.48-34.22-39.14-58.14-49.34-61.65-26.3-122.62,15.02-169.85,51.39-26.29,20.25-52.88,41.36-84.01,53.7-24.05,9.53-49.56,13.94-75.38,11.39-48.13-4.75-90.59-32.71-129.41-59.43-41.98-28.89-83.33-60.17-131.92-77.2-57.93-20.3-122.81-20.22-181.16-1.59-29.37,9.38-57.27,23.44-81.93,41.97-24.87,18.69-46.77,40.82-70.7,60.63s-52.14,37.51-84,43c-31.6,5.45-63.2-3.31-92.16-15.54-15.04-6.35-29.67-13.64-44.34-20.77-9.12-4.43-17.16,9.21-7.99,13.67h0Z"/>
      <path class="cls-5" d="M-27.37,207.17c29.66,14.41,59.75,29.97,92.28,36.74s67.35,2.71,98.44-12.11c56.24-26.81,93.28-80.69,147.29-111.05,52.02-29.24,114.62-40.51,173.6-31.25,27.95,4.39,54.86,13.2,79.99,26.17,22.4,11.56,43.45,25.55,64.16,39.86,40.77,28.15,81.35,59.1,129.01,74.65,23.04,7.52,47.7,10.77,71.85,8.12,30.01-3.29,58.45-14.27,84.11-30,28.95-17.75,54.3-40.55,82.23-59.76,25.65-17.65,55.14-33.88,87.01-34.85,54.52-1.66,88.02,46.17,111.96,88.64,12.95,22.99,27.85,46.2,48.19,63.39,21.39,18.08,47.15,26.97,75.13,22.69,16.75-2.56,32.63-9.1,48.59-14.49,8.26-2.79,16.61-5.36,25.16-7.07,2.68-.54,5.37-.96,8.07-1.36,2.22-.33-.19,0,1.51-.21,1.3-.16,2.6-.32,3.9-.47,25.12-2.82,51.16-2.81,75.92,2.63,13.33,2.92,26.12,7.41,37.87,14.42,10.52,6.28,20.08-10.13,9.59-16.4-25.17-15.03-55.03-20.39-83.99-21.27-24.55-.75-50.03,1.22-73.61,8.37-28.23,8.56-57.47,24.49-87.5,15.14-23.67-7.37-41.54-27.36-55.21-47.13-15.14-21.89-26.32-46.15-42.38-67.45-15.61-20.69-34.53-39.58-58.7-49.91-62.27-26.61-123.65,14.59-171.45,51.39-26.16,20.15-52.65,41.26-83.63,53.54-23.94,9.49-49.25,13.87-74.95,11.33-47.54-4.69-90.05-32.67-128.61-59.21-42.1-28.98-83.56-60.28-132.3-77.35-58.18-20.38-123.41-20.3-182-1.59-29.49,9.42-57.54,23.52-82.31,42.13s-46.99,40.98-71.02,60.88-51.71,37.15-83.3,42.59c-31.14,5.37-62.4-3.34-90.94-15.38-15.04-6.35-29.67-13.64-44.34-20.77-4.61-2.24-10.27-1.26-12.99,3.41-2.44,4.17-1.23,10.74,3.41,12.99h0Z"/>
      <path class="cls-7" d="M-28.97,221.14c29.89,14.52,60.25,30.24,93.03,37.06,34.63,7.2,68.98,2.78,100.88-12.43,56.27-26.83,93.32-80.71,147.29-111.05,51.38-28.88,113.49-39.99,171.16-30.94,15.14,2.38,30.08,6.02,44.59,10.96,3.51,1.19,6.99,2.46,10.44,3.8,1.49.58,2.97,1.18,4.45,1.78,1.35.55.2.07-.06-.04.99.42,1.97.85,2.95,1.28,5.71,2.51,11.33,5.22,16.88,8.08,22.4,11.56,43.45,25.55,64.16,39.86,41.02,28.33,81.81,59.32,129.77,74.97,23.28,7.6,48.29,10.91,72.69,8.24,30.59-3.35,59.54-14.39,85.71-30.44,28.95-17.75,54.3-40.55,82.23-59.76,13.41-9.22,27.49-17.9,42.52-24.21,13.91-5.85,28.73-9.77,42.89-10.2,12.43-.38,23.73,1.56,34.79,6.13,10.25,4.24,20.6,11.41,28.7,18.79,19.58,17.84,32.57,38.79,45.73,62.15,13.07,23.2,28.16,46.69,48.68,64.04,22.34,18.89,49.01,27.97,78.21,23.5,16.75-2.56,32.63-9.1,48.59-14.49,8.26-2.79,16.61-5.36,25.16-7.07,2.68-.54,5.37-.96,8.07-1.36,3.22-.48-1.79.19.66-.1,1.3-.15,2.6-.32,3.9-.47,25.12-2.82,51.52-2.66,75.08,2.51,13.66,3,25.44,7.14,37.11,14.1,14.03,8.37,26.78-13.51,12.78-21.87-25.65-15.31-56.08-20.8-85.59-21.71-24.81-.76-50.62,1.26-74.45,8.49-16.72,5.07-32.86,12.01-49.92,15.95-12.6,2.91-23.65,3-35.89-.81-1.44-.45-2.86-.95-4.28-1.47-.24-.09-2.69-1.09-1.48-.57,1.08.46-.85-.4-.85-.4-2.93-1.36-5.77-2.88-8.53-4.56-6.01-3.64-8.73-5.76-13.66-10.22s-9.34-9.11-13.57-14.08c-4.31-5.06-6.92-8.55-10.96-14.39-15.14-21.89-26.32-46.15-42.38-67.45s-35.16-40.47-59.84-51.05c-28.13-12.05-58.98-10.97-87.6-.92-32.39,11.38-60.11,31.57-87.05,52.31-25.85,19.91-52.89,41.34-82.88,53.22-12.69,5.03-25.88,8.7-39.38,10.75-.29.04-2.49.31-.56.08-.65.08-1.3.16-1.95.22-1.51.15-3.02.31-4.53.43-3.19.26-6.39.41-9.59.47-6.04.11-12.09-.14-18.11-.73-1.43-.14-2.86-.3-4.29-.48-1.5-.19.07,0,.32.04-.81-.12-1.62-.24-2.43-.37-3.03-.49-6.04-1.06-9.03-1.71-5.78-1.25-11.5-2.8-17.13-4.6-5.48-1.75-10.85-3.77-16.18-5.91-2.35-.94-.91-.38-.4-.16-.57-.24-1.14-.49-1.71-.74-1.33-.58-2.65-1.17-3.97-1.78-2.84-1.3-5.66-2.65-8.46-4.04-22.33-11.12-43.21-24.91-63.73-39.03-42.36-29.16-84.03-60.5-133.05-77.67-58.66-20.55-124.6-20.45-183.68-1.59-29.74,9.5-58.09,23.68-83.07,42.45-25.2,18.93-47.42,41.3-71.66,61.37s-50.84,36.42-81.9,41.77c-30.34,5.23-60.55-3.33-88.5-15.06-15.05-6.32-29.67-13.64-44.34-20.77-6.15-2.99-13.69-1.67-17.32,4.54-3.25,5.56-1.63,14.32,4.54,17.32h0Z"/>
      <text/>
      <path class="cls-3" d="M-23.32,304.92c29.89,14.52,60.25,30.24,93.03,37.06,34.63,7.2,68.98,2.78,100.88-12.43,56.27-26.83,93.32-80.71,147.29-111.05,51.38-28.88,113.49-39.99,171.16-30.94,15.14,2.38,30.08,6.02,44.59,10.96,3.51,1.19,6.99,2.46,10.44,3.8,1.49.58,2.97,1.18,4.45,1.78,1.35.55.2.07-.06-.04.99.42,1.97.85,2.95,1.28,5.71,2.51,11.33,5.22,16.88,8.08,22.4,11.56,43.45,25.55,64.16,39.86,41.02,28.33,81.81,59.32,129.77,74.97,23.28,7.6,48.29,10.91,72.69,8.24,30.59-3.35,59.54-14.39,85.71-30.44,28.95-17.75,54.3-40.55,82.23-59.76,13.41-9.22,27.49-17.9,42.52-24.21,13.91-5.85,28.73-9.77,42.89-10.2,12.43-.38,23.73,1.56,34.79,6.13,10.25,4.24,20.6,11.41,28.7,18.79,19.58,17.84,32.57,38.79,45.73,62.15,13.07,23.2,28.16,46.69,48.68,64.04,22.34,18.89,49.01,27.97,78.21,23.5,16.75-2.56,32.63-9.1,48.59-14.49,8.26-2.79,16.61-5.36,25.16-7.07,2.68-.54,5.37-.96,8.07-1.36,3.22-.48-1.79.19.66-.1,1.3-.15,2.6-.32,3.9-.47,25.12-2.82,51.52-2.66,75.08,2.51,13.66,3,25.44,7.14,37.11,14.1,14.03,8.37,26.78-13.51,12.78-21.87-25.65-15.31-56.08-20.8-85.59-21.71-24.81-.76-50.62,1.26-74.45,8.49-16.72,5.07-32.86,12.01-49.92,15.95-12.6,2.91-23.65,3-35.89-.81-1.44-.45-2.86-.95-4.28-1.47-.24-.09-2.69-1.09-1.48-.57,1.08.46-.85-.4-.85-.4-2.93-1.36-5.77-2.88-8.53-4.56-6.01-3.64-8.73-5.76-13.66-10.22-4.84-4.37-9.34-9.11-13.57-14.08s-6.92-8.55-10.96-14.39c-15.14-21.89-26.32-46.15-42.38-67.45-15.94-21.12-35.16-40.47-59.84-51.05-28.13-12.05-58.98-10.97-87.6-.92-32.39,11.38-60.11,31.57-87.05,52.31-25.85,19.91-52.89,41.34-82.88,53.22-12.69,5.03-25.88,8.7-39.38,10.75-.29.04-2.49.31-.56.08-.65.08-1.3.16-1.95.22-1.51.15-3.02.31-4.53.43-3.19.26-6.39.41-9.59.47-6.04.11-12.09-.14-18.11-.73-1.43-.14-2.86-.3-4.29-.48-1.5-.19.07,0,.32.04-.81-.12-1.62-.24-2.43-.37-3.03-.49-6.04-1.06-9.03-1.71-5.78-1.25-11.5-2.8-17.13-4.6-5.48-1.75-10.85-3.77-16.18-5.91-2.35-.94-.91-.38-.4-.16-.57-.24-1.14-.49-1.71-.74-1.33-.58-2.65-1.17-3.97-1.78-2.84-1.3-5.66-2.65-8.46-4.04-22.33-11.12-43.21-24.91-63.73-39.03-42.36-29.16-84.03-60.5-133.05-77.67-58.66-20.55-124.6-20.45-183.68-1.59-29.74,9.5-58.09,23.68-83.07,42.45-25.2,18.93-47.42,41.3-71.66,61.37-23.84,19.73-50.84,36.42-81.9,41.77-30.34,5.23-60.55-3.33-88.5-15.06-15.05-6.32-29.67-13.64-44.34-20.77-6.15-2.99-13.69-1.67-17.32,4.54-3.25,5.56-1.63,14.32,4.54,17.32h0Z"/>
      <path class="cls-1" d="M-41.75,288.96c45.35,22.03,93.03,46.28,144.93,44.09,29.09-1.23,56.8-9.64,82.37-23.43,21.05-11.36,40-26.7,58.02-42.31s36.54-33.44,56.08-48.67l-7.69,5.94c18.51-14.28,38.59-26.11,60.09-35.29-3.02,1.28-6.05,2.55-9.07,3.83,23.45-9.85,48.07-16.48,73.27-19.87-3.37.45-6.73.9-10.1,1.36,24.7-3.18,49.66-3.22,74.35,0-3.37-.45-6.73-.9-10.1-1.36,23.21,3.16,45.9,9.17,67.53,18.19-3.02-1.28-6.05-2.55-9.07-3.83,61.99,26.19,111.5,73.57,170.39,105.25,33.12,17.81,68.65,30.3,106.48,31.92,43.17,1.85,86.38-12.66,122.79-35.14,42.9-26.49,78.55-64.08,125.42-84.12l-9.07,3.83c11.87-4.94,24.16-8.65,36.91-10.42-3.37.45-6.73.9-10.1,1.36,8.93-1.12,17.86-1.24,26.79-.12-3.37-.45-6.73-.9-10.1-1.36,8.22,1.14,16.16,3.3,23.83,6.44l-9.07-3.83c8.7,3.7,16.75,8.55,24.26,14.27l-7.69-5.94c11.3,8.8,21.04,19.28,29.78,30.58-1.98-2.56-3.96-5.13-5.94-7.69,11.34,14.86,20.39,30.97,29.76,47.08,10.33,17.77,22.12,34.95,35.89,50.24,15.74,17.48,34.81,30.56,56.69,39.02,22.89,8.85,48.73,7.53,72.08,1.43,24.11-6.3,46.63-17.16,71.5-20.56-3.37.45-6.73.9-10.1,1.36,23.02-3.06,46.52-3.43,69.55-.34-3.37-.45-6.73-.9-10.1-1.36,13.81,1.95,27.36,5.23,40.26,10.6l-9.07-3.83c5,2.15,9.84,4.59,14.52,7.38,17.08,10.2,42.45,4.39,51.97-13.63s4.6-41.09-13.63-51.97c-29.86-17.83-65.4-24.34-99.76-25.2-27.75-.7-56.75,2.06-83.24,10.5-18.77,5.98-37.14,14.12-56.8,16.78,3.37-.45,6.73-.9,10.1-1.36-6.51.77-12.97.82-19.49.07,3.37.45,6.73.9,10.1,1.36-6.94-.94-13.62-2.77-20.08-5.45l9.07,3.83c-7.17-3.11-13.8-7.14-20.02-11.86l7.69,5.94c-9.96-7.76-18.54-16.99-26.28-26.93l5.94,7.69c-16.25-21.14-27.47-45.31-42.42-67.29-17.43-25.61-38.49-49.96-65.88-65.28-31.32-17.52-66.94-21.1-101.68-13.1-35.29,8.13-66.89,27.83-95.52,49.29-30.46,22.82-59.66,47.85-95.01,62.93,3.02-1.28,6.05-2.55,9.07-3.83-14.84,6.2-30.28,10.7-46.24,12.85,3.37-.45,6.73-.9,10.1-1.36-13.85,1.75-27.77,1.68-41.6-.17,3.37.45,6.73.9,10.1,1.36-16.67-2.36-32.77-7.22-48.28-13.72l9.07,3.83c-66.59-28.3-118.72-81.52-184.04-112.22-43.82-20.59-91.45-31.45-139.99-30.47s-98.6,13.41-142.73,36.19c-47.25,24.39-82.35,64.19-123.76,96.46,2.56-1.98,5.13-3.96,7.69-5.94-14.42,11.13-29.72,20.95-46.51,28.14l9.07-3.83c-11.82,4.9-24.04,8.39-36.72,10.15,3.37-.45,6.73-.9,10.1-1.36-12.09,1.52-24.19,1.4-36.27-.17,3.37.45,6.73.9,10.1,1.36-19.17-2.7-37.51-8.84-55.31-16.28,3.02,1.28,6.05,2.55,9.07,3.83-15.56-6.58-30.72-14.05-45.91-21.43-9.3-4.52-19.02-6.65-29.27-3.83-8.81,2.43-18.36,9.24-22.7,17.46-4.66,8.82-6.99,19.5-3.83,29.27,2.91,9,8.64,18.42,17.46,22.7h0Z"/>
      <text/>
      <text/>
    </g>
  </g>
</svg>