<?xml version="1.0" encoding="UTF-8"?>
<svg id="Layer_1" xmlns="http://www.w3.org/2000/svg" version="1.1" viewBox="0 0 1315.73 1230.37">
  <!-- Generator: Adobe Illustrator 29.7.1, SVG Export Plug-In . SVG Version: 2.1.1 Build 8)  -->
  <defs>
    <style>
      .st0 {
        stroke: #636466;
        stroke-width: .7px;
      }

      .st0, .st1 {
        fill: none;
        stroke-miterlimit: 10;
      }

      .st2 {
        fill: #523cac;
      }

      .st3 {
        fill: #adc716;
      }

      .st4 {
        fill: #6855b7;
      }

      .st5 {
        fill: #33c5b5;
      }

      .st6 {
        fill: #fff;
      }

      .st7 {
        fill: #e44c17;
      }

      .st8 {
        fill: #002f55;
      }

      .st1 {
        stroke: #f7008d;
        stroke-linecap: round;
        stroke-width: 1.33px;
      }

      .st9 {
        fill: #f7008d;
      }

      .st10 {
        fill: #f8209b;
      }

      .st11 {
        fill: #ecaa19;
      }

      .st12 {
        fill: #f9a700;
      }

      /* Simple animations */
      @keyframes float {
        0% { transform: translateY(0px); }
        50% { transform: translateY(-15px); }
        100% { transform: translateY(0px); }
      }

      @keyframes fadeIn {
        from { opacity: 0; }
        to { opacity: 1; }
      }

      @keyframes drawLine {
        from { stroke-dashoffset: 1300; }
        to { stroke-dashoffset: 0; }
      }

      .st0 {
        stroke-dasharray: 1300;
        stroke-dashoffset: 1300;
        animation: drawLine 2.5s ease-out forwards;
      }

      /* Target logical groups (shapes + their text) */
      #Layer_1 > g:not(:first-of-type) {
        animation: fadeIn 1s ease-out, float 5s ease-in-out infinite;
        transform-box: fill-box;
        transform-origin: center;
      }

      /* Staggering the floating effect for each group */
      #Layer_1 > g:nth-of-type(2) { animation-delay: 0.1s; }
      #Layer_1 > g:nth-of-type(3) { animation-delay: 0.6s; }
      #Layer_1 > g:nth-of-type(4) { animation-delay: 1.2s; }
      #Layer_1 > g:nth-of-type(5) { animation-delay: 1.8s; }
      #Layer_1 > g:nth-of-type(6) { animation-delay: 2.4s; }
    </style>
  </defs>
  <g>
    <line class="st0" x1="58.04" y1="343.71" x2="1256.33" y2="343.71"/>
    <line class="st0" x1="58.04" y1="392.91" x2="1256.33" y2="392.91"/>
    <line class="st0" x1="58.04" y1="442.11" x2="1256.33" y2="442.11"/>
    <line class="st0" x1="58.04" y1="491.31" x2="1256.33" y2="491.31"/>
    <line class="st0" x1="58.04" y1="540.51" x2="1256.33" y2="540.51"/>
    <line class="st0" x1="58.04" y1="589.7" x2="1256.33" y2="589.7"/>
    <line class="st0" x1="58.04" y1="638.9" x2="1256.33" y2="638.9"/>
    <line class="st0" x1="58.04" y1="688.1" x2="1256.33" y2="688.1"/>
    <line class="st0" x1="58.04" y1="737.3" x2="1256.33" y2="737.3"/>
    <line class="st0" x1="58.04" y1="786.49" x2="1256.33" y2="786.49"/>
    <line class="st0" x1="58.04" y1="835.69" x2="1256.33" y2="835.69"/>
    <line class="st0" x1="58.04" y1="884.89" x2="1256.33" y2="884.89"/>
    <line class="st0" x1="58.04" y1="934.09" x2="1256.33" y2="934.09"/>
    <line class="st0" x1="58.04" y1="983.28" x2="1256.33" y2="983.28"/>
    <line class="st0" x1="58.04" y1="1032.48" x2="1256.33" y2="1032.48"/>
  </g>
  <g>
    <line class="st0" x1="58.04" y1="1081.79" x2="1256.33" y2="1081.79"/>
    <line class="st0" x1="58.04" y1="1130.99" x2="1256.33" y2="1130.99"/>
    <line class="st0" x1="58.04" y1="1180.19" x2="1256.33" y2="1180.19"/>
  </g>
  <g>
    <line class="st0" x1="58.04" y1="48.39" x2="1256.33" y2="48.39"/>
    <line class="st0" x1="58.04" y1="97.58" x2="1256.33" y2="97.58"/>
    <line class="st0" x1="58.04" y1="146.78" x2="1256.33" y2="146.78"/>
    <line class="st0" x1="58.04" y1="195.98" x2="1256.33" y2="195.98"/>
    <line class="st0" x1="58.04" y1="245.18" x2="1256.33" y2="245.18"/>
    <line class="st0" x1="58.04" y1="294.37" x2="1256.33" y2="294.37"/>
  </g>
  <g>
    <g>
      <g>
        <path class="st8" d="M408.14,638.15c2.87,0,5.01.67,6.42,2.02s2.11,3.34,2.11,5.97c0,1.41-.35,2.64-1.03,3.7s-1.71,1.88-3.05,2.47-3,.87-4.99.87l.17-2.02c.92,0,1.99.12,3.19.39,1.2.25,2.36.7,3.48,1.35s2.04,1.55,2.78,2.69,1.1,2.63,1.1,4.43c0,1.97-.32,3.59-.96,4.85-.65,1.26-1.48,2.23-2.53,2.92s-2.17,1.16-3.37,1.41-2.34.39-3.45.39h-11.17c-.77,0-1.43-.26-1.96-.79s-.79-1.17-.79-1.96v-25.95c0-.77.26-1.43.79-1.96s1.17-.79,1.96-.79h11.31,0ZM407.33,643.44h-7.99l.59-.72v8.13l-.54-.4h8.08c.87,0,1.65-.29,2.33-.85.69-.57,1.03-1.4,1.03-2.47,0-1.28-.32-2.22-.96-2.81-.65-.59-1.48-.87-2.53-.87h-.01ZM407.69,655.74h-8.17l.4-.36v9.48l-.45-.45h8.53c1.37,0,2.47-.36,3.28-1.1s1.21-1.83,1.21-3.3c0-1.35-.27-2.32-.81-2.92s-1.18-.97-1.93-1.12c-.75-.15-1.43-.22-2.07-.22h.01Z"/>
        <path class="st8" d="M429.1,666.82c0,.77-.29,1.43-.85,1.96-.57.52-1.22.79-1.97.79-.84,0-1.51-.26-2.02-.79s-.76-1.17-.76-1.96v-25.95c0-.77.27-1.43.81-1.96s1.22-.79,2.07-.79c.72,0,1.36.26,1.91.79s.84,1.17.84,1.96v25.95h-.02Z"/>
        <path class="st8" d="M450.65,670.01c-2.27,0-4.4-.42-6.37-1.26s-3.72-1.99-5.21-3.48c-1.5-1.48-2.67-3.19-3.53-5.14-.85-1.94-1.28-4.04-1.28-6.28s.42-4.34,1.28-6.28c.85-1.94,2.03-3.65,3.53-5.14,1.5-1.48,3.23-2.64,5.21-3.48s4.1-1.26,6.37-1.26c1.41,0,2.77.15,4.09.45s2.53.75,3.64,1.35c.45.24.79.56,1.01.96.22.4.34.81.34,1.23,0,.72-.24,1.36-.72,1.93s-1.1.85-1.85.85c-.24,0-.49-.02-.74-.09-.25-.06-.5-.15-.74-.27-.75-.32-1.55-.59-2.38-.76-.84-.17-1.72-.27-2.64-.27-1.94,0-3.72.49-5.32,1.46-1.6.97-2.87,2.27-3.82,3.9s-1.41,3.43-1.41,5.41.47,3.74,1.41,5.39c.95,1.65,2.22,2.95,3.82,3.93s3.38,1.46,5.32,1.46c.9,0,1.88-.09,2.97-.27,1.07-.17,1.96-.42,2.64-.72l-.4,1.35v-7.68l.76.67h-4.99c-.77,0-1.43-.25-1.96-.76-.52-.51-.79-1.15-.79-1.93s.26-1.42.79-1.93,1.17-.76,1.96-.76h7.36c.77,0,1.42.26,1.93.79.51.52.76,1.17.76,1.96v9.51c0,.6-.14,1.1-.42,1.48s-.61.7-.96.95c-1.37.84-2.88,1.51-4.51,1.99-1.63.5-3.34.74-5.14.74v.02h-.01Z"/>
        <path class="st8" d="M485.26,666.82c0,.77-.29,1.43-.85,1.96s-1.22.79-1.97.79c-.84,0-1.51-.26-2.02-.79s-.76-1.17-.76-1.96v-25.95c0-.77.27-1.43.81-1.96s1.22-.79,2.07-.79c.72,0,1.36.26,1.91.79s.84,1.17.84,1.96v25.95h-.02Z"/>
        <path class="st8" d="M505.45,638.15c2.16,0,4.06.4,5.75,1.21,1.67.81,3.09,1.93,4.24,3.39s2.02,3.13,2.61,5.02.87,3.93.87,6.08c0,2.9-.52,5.55-1.57,7.92s-2.57,4.28-4.55,5.67c-1.99,1.41-4.44,2.11-7.34,2.11h-10.72c-.77,0-1.43-.26-1.96-.79s-.79-1.17-.79-1.96v-25.95c0-.77.26-1.43.79-1.96s1.17-.79,1.96-.79h10.72v.02h0ZM505,664.4c1.88,0,3.43-.49,4.63-1.46s2.07-2.26,2.63-3.86c.55-1.6.84-3.34.84-5.22,0-1.41-.16-2.74-.47-4.01s-.8-2.39-1.46-3.37-1.5-1.75-2.52-2.31c-1.02-.57-2.23-.85-3.64-.85h-7.85l.45-.4v21.99l-.27-.5h7.68Z"/>
        <path class="st8" d="M526.81,638.15h15.04c.77,0,1.43.25,1.96.74.52.5.79,1.13.79,1.91s-.26,1.36-.79,1.82-1.17.7-1.96.7h-12.57l.4-.76v8.75l-.36-.36h10.5c.77,0,1.43.25,1.96.74.52.5.79,1.13.79,1.91s-.26,1.36-.79,1.82-1.17.7-1.96.7h-10.37l.22-.36v9.06l-.36-.4h12.52c.77,0,1.43.26,1.96.79s.79,1.13.79,1.82c0,.75-.26,1.36-.79,1.85-.52.47-1.17.72-1.96.72h-15.04c-.77,0-1.43-.26-1.96-.79s-.79-1.17-.79-1.96v-25.95c0-.77.26-1.43.79-1.96s1.17-.79,1.96-.79h.02Z"/>
        <path class="st8" d="M561.28,645.19l-9.7,22.8c-.21.57-.54,1.01-.96,1.32s-.91.47-1.41.47c-.81,0-1.41-.22-1.8-.67-.39-.45-.59-1-.59-1.66,0-.27.05-.55.14-.85l11.17-26.84c.24-.6.61-1.06,1.1-1.4.5-.32,1.02-.46,1.6-.4.54,0,1.03.16,1.51.47s.8.76,1.01,1.32l11.05,26.31c.15.39.22.75.22,1.07,0,.81-.26,1.46-.79,1.93-.52.47-1.1.72-1.73.72-.54,0-1.02-.16-1.46-.5-.44-.32-.77-.77-1.01-1.35l-9.65-22.49,1.3-.27h0ZM552.98,662.52l2.47-5.16h12.12l.85,5.16h-15.43Z"/>
        <path class="st8" d="M588.53,670.01c-2.09,0-3.98-.26-5.66-.79-1.67-.52-3.28-1.45-4.8-2.76-.39-.32-.69-.7-.9-1.12s-.31-.84-.31-1.26c0-.69.25-1.3.74-1.82.5-.52,1.11-.79,1.86-.79.57,0,1.07.17,1.52.54,1.13.92,2.27,1.63,3.39,2.11s2.51.72,4.15.72c1.11,0,2.12-.17,3.05-.51.92-.35,1.67-.81,2.24-1.4s.85-1.25.85-1.99c0-.9-.27-1.66-.81-2.29-.54-.62-1.36-1.16-2.47-1.6s-2.52-.77-4.21-1.01c-1.62-.24-3.04-.61-4.26-1.1-1.22-.5-2.26-1.12-3.08-1.88-.82-.76-1.45-1.66-1.86-2.69s-.62-2.19-.62-3.48c0-1.94.5-3.6,1.51-4.99s2.36-2.42,4.06-3.14,3.59-1.07,5.66-1.07c1.94,0,3.75.29,5.41.87s3.02,1.32,4.06,2.22c.87.69,1.3,1.48,1.3,2.38,0,.66-.25,1.26-.76,1.8-.51.54-1.11.81-1.8.81-.45,0-.85-.14-1.21-.4-.47-.42-1.12-.81-1.93-1.18-.81-.37-1.66-.69-2.56-.95-.9-.25-1.73-.39-2.52-.39-1.28,0-2.37.16-3.25.5-.89.32-1.55.77-1.99,1.35-.45.57-.67,1.22-.67,1.97,0,.9.26,1.63.79,2.22s1.28,1.05,2.27,1.4,2.17.65,3.54.92c1.8.32,3.38.72,4.74,1.17s2.49,1.02,3.39,1.73c.9.7,1.57,1.58,2.02,2.64s.67,2.36.67,3.88c0,1.94-.54,3.62-1.62,5.02-1.07,1.41-2.49,2.48-4.24,3.23s-3.64,1.12-5.67,1.12h-.01Z"/>
        <path class="st8" d="M629.33,645.19l-9.7,22.8c-.21.57-.54,1.01-.96,1.32s-.91.47-1.41.47c-.81,0-1.41-.22-1.8-.67-.39-.45-.59-1-.59-1.66,0-.27.05-.55.14-.85l11.17-26.84c.24-.6.61-1.06,1.1-1.4.5-.32,1.02-.46,1.6-.4.54,0,1.03.16,1.51.47s.8.76,1.01,1.32l11.05,26.31c.15.39.22.75.22,1.07,0,.81-.26,1.46-.79,1.93-.52.47-1.1.72-1.73.72-.54,0-1.02-.16-1.46-.5-.44-.32-.77-.77-1.01-1.35l-9.65-22.49,1.3-.27h0ZM621.02,662.52l2.47-5.16h12.12l.85,5.16h-15.43Z"/>
        <path class="st8" d="M649.7,669.56c-.84,0-1.58-.26-2.24-.79s-.98-1.17-.98-1.96v-25.95c0-.77.26-1.43.79-1.96s1.17-.79,1.96-.79h12.93c1.56,0,3.02.41,4.38,1.23s2.46,1.96,3.3,3.42,1.26,3.12,1.26,5c0,1.13-.24,2.24-.7,3.32s-1.1,2.04-1.88,2.92c-.8.87-1.68,1.55-2.67,2.02l.05-1.03c.84.45,1.53.98,2.08,1.6s.98,1.27,1.3,1.97.5,1.46.56,2.27c.12.75.2,1.41.25,1.97.05.57.14,1.05.27,1.43.14.39.4.69.79.9.66.39,1.07.95,1.23,1.68s0,1.38-.51,1.96c-.32.39-.75.64-1.26.74s-1.02.1-1.52,0c-.51-.1-.92-.25-1.26-.42-.51-.3-1.02-.74-1.52-1.32s-.92-1.37-1.23-2.36-.47-2.26-.47-3.82c0-.51-.09-.98-.27-1.41-.17-.44-.44-.81-.76-1.12-.32-.31-.75-.55-1.26-.72-.51-.16-1.11-.25-1.8-.25h-9.06l.67-1.03v9.74c0,.77-.21,1.43-.62,1.96s-1,.79-1.75.79l-.04.02h0ZM651.45,653.49h10.46c.54,0,1.06-.25,1.57-.74.51-.5.92-1.17,1.26-2.02.32-.85.5-1.78.5-2.81,0-1.32-.35-2.42-1.06-3.3-.7-.89-1.46-1.32-2.27-1.32h-10.37l.54-1.43v12.7l-.62-1.07h0Z"/>
        <path class="st8" d="M680.04,638.15h15.04c.77,0,1.43.25,1.96.74.52.5.79,1.13.79,1.91s-.26,1.36-.79,1.82-1.17.7-1.96.7h-12.57l.4-.76v8.75l-.36-.36h10.5c.77,0,1.43.25,1.96.74.52.5.79,1.13.79,1.91s-.26,1.36-.79,1.82-1.17.7-1.96.7h-10.37l.22-.36v9.06l-.36-.4h12.52c.77,0,1.43.26,1.96.79s.79,1.13.79,1.82c0,.75-.26,1.36-.79,1.85-.52.47-1.17.72-1.96.72h-15.04c-.77,0-1.43-.26-1.96-.79s-.79-1.17-.79-1.96v-25.95c0-.77.26-1.43.79-1.96s1.17-.79,1.96-.79h.02Z"/>
        <path class="st8" d="M729.6,638.15c2.87,0,5.01.67,6.42,2.02s2.11,3.34,2.11,5.97c0,1.41-.35,2.64-1.03,3.7s-1.71,1.88-3.05,2.47-3,.87-4.99.87l.17-2.02c.92,0,1.99.12,3.19.39,1.2.25,2.36.7,3.48,1.35,1.12.65,2.04,1.55,2.78,2.69.74,1.15,1.1,2.63,1.1,4.43,0,1.97-.32,3.59-.96,4.85-.65,1.26-1.48,2.23-2.53,2.92s-2.17,1.16-3.37,1.41-2.34.39-3.45.39h-11.17c-.77,0-1.43-.26-1.96-.79s-.79-1.17-.79-1.96v-25.95c0-.77.26-1.43.79-1.96s1.17-.79,1.96-.79h11.31ZM728.79,643.44h-7.99l.59-.72v8.13l-.54-.4h8.08c.87,0,1.65-.29,2.33-.85.69-.57,1.03-1.4,1.03-2.47,0-1.28-.32-2.22-.96-2.81-.65-.59-1.48-.87-2.53-.87h-.01ZM729.15,655.74h-8.17l.4-.36v9.48l-.45-.45h8.53c1.37,0,2.47-.36,3.28-1.1s1.21-1.83,1.21-3.3c0-1.35-.27-2.32-.81-2.92-.54-.6-1.18-.97-1.93-1.12s-1.43-.22-2.07-.22h.01Z"/>
        <path class="st8" d="M748.17,669.56c-.84,0-1.58-.26-2.24-.79-.66-.52-.98-1.17-.98-1.96v-25.95c0-.77.26-1.43.79-1.96s1.17-.79,1.96-.79h12.93c1.56,0,3.02.41,4.38,1.23s2.46,1.96,3.3,3.42,1.26,3.12,1.26,5c0,1.13-.24,2.24-.7,3.32s-1.1,2.04-1.88,2.92c-.8.87-1.68,1.55-2.67,2.02l.05-1.03c.84.45,1.53.98,2.08,1.6s.98,1.27,1.3,1.97.5,1.46.56,2.27c.12.75.2,1.41.25,1.97.05.57.14,1.05.27,1.43s.4.69.79.9c.66.39,1.07.95,1.23,1.68s0,1.38-.51,1.96c-.32.39-.75.64-1.26.74-.51.1-1.02.1-1.52,0-.51-.1-.92-.25-1.26-.42-.51-.3-1.02-.74-1.52-1.32-.51-.59-.92-1.37-1.23-2.36s-.47-2.26-.47-3.82c0-.51-.09-.98-.27-1.41-.17-.44-.44-.81-.76-1.12s-.75-.55-1.26-.72c-.51-.16-1.11-.25-1.8-.25h-9.06l.67-1.03v9.74c0,.77-.21,1.43-.62,1.96-.42.52-1,.79-1.75.79l-.04.02h0ZM749.93,653.49h10.46c.54,0,1.06-.25,1.57-.74.51-.5.92-1.17,1.26-2.02.32-.85.5-1.78.5-2.81,0-1.32-.35-2.42-1.06-3.3-.7-.89-1.46-1.32-2.27-1.32h-10.37l.54-1.43v12.7l-.62-1.07h0Z"/>
        <path class="st8" d="M804.24,653.86c0,2.24-.37,4.34-1.12,6.28-.75,1.94-1.81,3.65-3.17,5.14-1.36,1.48-2.98,2.64-4.85,3.48s-3.91,1.26-6.12,1.26-4.25-.42-6.11-1.26c-1.86-.84-3.47-1.99-4.82-3.48-1.36-1.48-2.42-3.19-3.17-5.14s-1.12-4.04-1.12-6.28.37-4.34,1.12-6.28c.75-1.94,1.81-3.65,3.17-5.14,1.36-1.48,2.97-2.64,4.82-3.48s3.89-1.26,6.11-1.26,4.25.42,6.12,1.26,3.49,1.99,4.85,3.48,2.42,3.19,3.17,5.14,1.12,4.04,1.12,6.28ZM798.41,653.86c0-2.01-.4-3.83-1.21-5.45-.81-1.63-1.92-2.93-3.32-3.88-1.41-.96-3.04-1.43-4.89-1.43s-3.49.47-4.89,1.43c-1.41.96-2.51,2.24-3.3,3.86-.8,1.62-1.18,3.44-1.18,5.47s.4,3.83,1.18,5.45c.8,1.63,1.9,2.93,3.3,3.88,1.41.96,3.04,1.43,4.89,1.43s3.49-.47,4.89-1.43c1.41-.96,2.52-2.26,3.32-3.88.81-1.63,1.21-3.45,1.21-5.45h0Z"/>
        <path class="st8" d="M831.71,638.1c.77,0,1.41.26,1.88.79s.72,1.17.72,1.96v16.25c0,2.48-.54,4.69-1.6,6.6-1.06,1.92-2.52,3.42-4.38,4.49s-4.01,1.62-6.46,1.62-4.61-.54-6.48-1.62-3.34-2.57-4.4-4.49c-1.06-1.92-1.6-4.11-1.6-6.6v-16.25c0-.77.27-1.43.81-1.96.54-.52,1.22-.79,2.07-.79.69,0,1.31.26,1.86.79s.84,1.17.84,1.96v16.25c0,1.5.32,2.79.96,3.88.65,1.1,1.5,1.93,2.56,2.53s2.19.9,3.39.9c1.28,0,2.48-.3,3.59-.9s2.01-1.45,2.69-2.53c.69-1.1,1.03-2.38,1.03-3.88v-16.25c0-.77.22-1.43.67-1.96s1.06-.79,1.85-.79h-.01Z"/>
        <path class="st8" d="M855.86,670.01c-2.27,0-4.4-.42-6.37-1.26-1.97-.84-3.72-1.99-5.21-3.48s-2.67-3.19-3.53-5.14c-.85-1.94-1.28-4.04-1.28-6.28s.42-4.34,1.28-6.28c.85-1.94,2.03-3.65,3.53-5.14s3.23-2.64,5.21-3.48,4.1-1.26,6.37-1.26c1.41,0,2.77.15,4.09.45,1.32.3,2.53.75,3.64,1.35.45.24.79.56,1.01.96.22.4.34.81.34,1.23,0,.72-.24,1.36-.72,1.93-.47.57-1.1.85-1.85.85-.24,0-.49-.02-.74-.09-.25-.06-.5-.15-.74-.27-.75-.32-1.55-.59-2.38-.76-.84-.17-1.72-.27-2.64-.27-1.94,0-3.72.49-5.32,1.46-1.6.97-2.87,2.27-3.82,3.9s-1.41,3.43-1.41,5.41.47,3.74,1.41,5.39c.95,1.65,2.22,2.95,3.82,3.93,1.6.97,3.38,1.46,5.32,1.46.9,0,1.88-.09,2.97-.27,1.07-.17,1.96-.42,2.64-.72l-.4,1.35v-7.68l.76.67h-4.99c-.77,0-1.43-.25-1.96-.76-.52-.51-.79-1.15-.79-1.93s.26-1.42.79-1.93,1.17-.76,1.96-.76h7.36c.77,0,1.42.26,1.93.79s.76,1.17.76,1.96v9.51c0,.6-.14,1.1-.42,1.48s-.61.7-.96.95c-1.37.84-2.88,1.51-4.51,1.99-1.63.5-3.34.74-5.14.74v.02h-.01Z"/>
        <path class="st8" d="M875.14,638.15c.72,0,1.36.26,1.91.79s.84,1.17.84,1.96v25.95c0,.77-.29,1.43-.85,1.96s-1.22.79-1.97.79c-.84,0-1.51-.26-2.02-.79s-.76-1.17-.76-1.96v-25.95c0-.77.27-1.43.81-1.96.54-.52,1.22-.79,2.07-.79h-.02ZM875.02,651.21h20.02v5.16h-20.02v-5.16ZM895.03,638.15c.84,0,1.51.26,2.02.79s.76,1.17.76,1.96v25.95c0,.77-.26,1.43-.79,1.96s-1.22.79-2.08.79c-.72,0-1.36-.26-1.91-.79s-.84-1.17-.84-1.96v-25.95c0-.77.29-1.43.85-1.96.57-.52,1.22-.79,1.97-.79h.01Z"/>
        <path class="st8" d="M905.27,643.31c-.77,0-1.43-.24-1.96-.72s-.79-1.11-.79-1.88.26-1.4.79-1.86,1.17-.7,1.96-.7h19.92c.77,0,1.43.24,1.96.72s.79,1.11.79,1.88-.26,1.4-.79,1.86-1.17.7-1.96.7h-19.92ZM915.19,669.56c-.84,0-1.52-.26-2.07-.79-.54-.52-.81-1.17-.81-1.96v-26.03h5.83v26.03c0,.77-.27,1.43-.84,1.96-.55.52-1.26.79-2.13.79h.01Z"/>
      </g>
      <g>
        <path class="st8" d="M468.69,704.88c-.77,0-1.43-.24-1.96-.72s-.79-1.11-.79-1.88.26-1.4.79-1.86,1.17-.7,1.96-.7h19.92c.77,0,1.43.24,1.96.72s.79,1.11.79,1.88-.26,1.4-.79,1.86-1.17.7-1.96.7h-19.92ZM478.6,731.14c-.84,0-1.52-.26-2.07-.79-.54-.52-.81-1.17-.81-1.96v-26.03h5.83v26.03c0,.77-.27,1.43-.84,1.96-.55.52-1.26.79-2.13.79h.01Z"/>
        <path class="st8" d="M524.07,715.43c0,2.24-.37,4.34-1.12,6.28-.75,1.94-1.81,3.65-3.17,5.14-1.36,1.48-2.98,2.64-4.85,3.48s-3.91,1.26-6.12,1.26-4.25-.42-6.11-1.26c-1.86-.84-3.47-1.99-4.82-3.48-1.36-1.48-2.42-3.19-3.17-5.14s-1.12-4.04-1.12-6.28.37-4.34,1.12-6.28c.75-1.94,1.81-3.65,3.17-5.14,1.36-1.48,2.97-2.64,4.82-3.48s3.89-1.26,6.11-1.26,4.25.42,6.12,1.26,3.49,1.99,4.85,3.48,2.42,3.19,3.17,5.14,1.12,4.04,1.12,6.28ZM518.24,715.43c0-2.01-.4-3.83-1.21-5.45-.81-1.63-1.92-2.93-3.32-3.88-1.41-.96-3.04-1.43-4.89-1.43s-3.49.47-4.89,1.43c-1.41.96-2.51,2.24-3.3,3.86-.8,1.62-1.18,3.44-1.18,5.47s.4,3.83,1.18,5.45c.8,1.63,1.9,2.93,3.3,3.88,1.41.96,3.04,1.43,4.89,1.43s3.49-.47,4.89-1.43c1.41-.96,2.52-2.26,3.32-3.88.81-1.63,1.21-3.45,1.21-5.45h0Z"/>
        <path class="st8" d="M559.13,725.89c.77,0,1.43.25,1.96.74.52.5.79,1.13.79,1.91s-.26,1.37-.79,1.86c-.52.5-1.17.74-1.96.74h-14.59c-.77,0-1.43-.26-1.96-.79s-.79-1.17-.79-1.96v-25.95c0-.77.27-1.43.81-1.96.54-.52,1.22-.79,2.07-.79.72,0,1.36.26,1.91.79s.84,1.17.84,1.96v24.19l-.98-.76h12.7v.02h-.01Z"/>
        <path class="st8" d="M572.64,728.4c0,.77-.29,1.43-.85,1.96s-1.22.79-1.97.79c-.84,0-1.51-.26-2.02-.79s-.76-1.17-.76-1.96v-25.95c0-.77.27-1.43.81-1.96.54-.52,1.22-.79,2.07-.79.72,0,1.36.26,1.91.79s.84,1.17.84,1.96v25.95h-.02Z"/>
        <path class="st8" d="M582.2,731.14c-.84,0-1.52-.26-2.04-.79s-.79-1.17-.79-1.96v-25.95c0-.77.26-1.43.79-1.96s1.17-.79,1.96-.79h14.59c.77,0,1.43.25,1.96.74.52.5.79,1.13.79,1.91,0,.66-.26,1.25-.79,1.75s-1.17.76-1.96.76h-12.12l.4-.54v9.03l-.31-.59h10.01c.77,0,1.43.25,1.96.74.52.5.79,1.13.79,1.91,0,.66-.26,1.25-.79,1.75-.52.51-1.17.76-1.96.76h-10.1l.4-.4v10.86c0,.77-.27,1.43-.84,1.96-.55.52-1.21.79-1.96.79v.02h.01Z"/>
        <path class="st8" d="M607.33,699.72h15.04c.77,0,1.43.25,1.96.74.52.5.79,1.13.79,1.91s-.26,1.36-.79,1.82-1.17.7-1.96.7h-12.57l.4-.76v8.75l-.36-.36h10.5c.77,0,1.43.25,1.96.74.52.5.79,1.13.79,1.91s-.26,1.36-.79,1.82-1.17.7-1.96.7h-10.37l.22-.36v9.06l-.36-.4h12.52c.77,0,1.43.26,1.96.79s.79,1.13.79,1.82c0,.75-.26,1.36-.79,1.85-.52.47-1.17.72-1.96.72h-15.04c-.77,0-1.43-.26-1.96-.79s-.79-1.17-.79-1.96v-25.95c0-.77.26-1.43.79-1.96s1.17-.79,1.96-.79h.02Z"/>
        <path class="st8" d="M643.55,704.88c-.77,0-1.43-.24-1.96-.72s-.79-1.11-.79-1.88.26-1.4.79-1.86,1.17-.7,1.96-.7h19.92c.77,0,1.43.24,1.96.72s.79,1.11.79,1.88-.26,1.4-.79,1.86-1.17.7-1.96.7h-19.92ZM653.48,731.14c-.84,0-1.52-.26-2.07-.79-.54-.52-.81-1.17-.81-1.96v-26.03h5.83v26.03c0,.77-.27,1.43-.84,1.96-.55.52-1.26.79-2.13.79h.01Z"/>
        <path class="st8" d="M673.81,699.72c.72,0,1.36.26,1.91.79s.84,1.17.84,1.96v25.95c0,.77-.29,1.43-.85,1.96s-1.22.79-1.97.79c-.84,0-1.51-.26-2.02-.79s-.76-1.17-.76-1.96v-25.95c0-.77.27-1.43.81-1.96.54-.52,1.22-.79,2.07-.79h-.02ZM673.67,712.79h20.02v5.16h-20.02v-5.16ZM693.68,699.72c.84,0,1.51.26,2.02.79s.76,1.17.76,1.96v25.95c0,.77-.26,1.43-.79,1.96s-1.22.79-2.08.79c-.72,0-1.36-.26-1.91-.79s-.84-1.17-.84-1.96v-25.95c0-.77.29-1.43.85-1.96.57-.52,1.22-.79,1.97-.79h.01Z"/>
        <path class="st8" d="M706.44,731.14c-.84,0-1.58-.26-2.24-.79-.66-.52-.98-1.17-.98-1.96v-25.95c0-.77.26-1.43.79-1.96s1.17-.79,1.96-.79h12.93c1.56,0,3.02.41,4.38,1.23s2.46,1.96,3.3,3.42,1.26,3.12,1.26,5c0,1.13-.24,2.24-.7,3.32s-1.1,2.04-1.88,2.92c-.8.87-1.68,1.55-2.67,2.02l.05-1.03c.84.45,1.53.98,2.08,1.6s.98,1.27,1.3,1.97.5,1.46.56,2.27c.12.75.2,1.41.25,1.97.05.57.14,1.05.27,1.43s.4.69.79.9c.66.39,1.07.95,1.23,1.68s0,1.38-.51,1.96c-.32.39-.75.64-1.26.74-.51.1-1.02.1-1.52,0-.51-.1-.92-.25-1.26-.42-.51-.3-1.02-.74-1.52-1.32-.51-.59-.92-1.37-1.23-2.36s-.47-2.26-.47-3.82c0-.51-.09-.98-.27-1.41-.17-.44-.44-.81-.76-1.12s-.75-.55-1.26-.72c-.51-.16-1.11-.25-1.8-.25h-9.06l.67-1.03v9.74c0,.77-.21,1.43-.62,1.96-.42.52-1,.79-1.75.79l-.04.02h0ZM708.18,715.07h10.46c.54,0,1.06-.25,1.57-.74.51-.5.92-1.17,1.26-2.02.32-.85.5-1.78.5-2.81,0-1.32-.35-2.42-1.06-3.3-.7-.89-1.46-1.32-2.27-1.32h-10.37l.54-1.43v12.7l-.62-1.07h0Z"/>
        <path class="st8" d="M762.49,715.43c0,2.24-.37,4.34-1.12,6.28-.75,1.94-1.81,3.65-3.17,5.14-1.36,1.48-2.98,2.64-4.85,3.48s-3.91,1.26-6.12,1.26-4.25-.42-6.11-1.26c-1.86-.84-3.47-1.99-4.82-3.48-1.36-1.48-2.42-3.19-3.17-5.14s-1.12-4.04-1.12-6.28.37-4.34,1.12-6.28c.75-1.94,1.81-3.65,3.17-5.14,1.36-1.48,2.97-2.64,4.82-3.48s3.89-1.26,6.11-1.26,4.25.42,6.12,1.26,3.49,1.99,4.85,3.48,2.42,3.19,3.17,5.14,1.12,4.04,1.12,6.28ZM756.66,715.43c0-2.01-.4-3.83-1.21-5.45-.81-1.63-1.92-2.93-3.32-3.88-1.41-.96-3.04-1.43-4.89-1.43s-3.49.47-4.89,1.43c-1.41.96-2.51,2.24-3.3,3.86-.8,1.62-1.18,3.44-1.18,5.47s.4,3.83,1.18,5.45c.8,1.63,1.9,2.93,3.3,3.88,1.41.96,3.04,1.43,4.89,1.43s3.49-.47,4.89-1.43c1.41-.96,2.52-2.26,3.32-3.88.81-1.63,1.21-3.45,1.21-5.45h0Z"/>
        <path class="st8" d="M789.96,699.67c.77,0,1.41.26,1.88.79s.72,1.17.72,1.96v16.25c0,2.48-.54,4.69-1.6,6.6-1.06,1.92-2.52,3.42-4.38,4.49s-4.01,1.62-6.46,1.62-4.61-.54-6.48-1.62-3.34-2.57-4.4-4.49c-1.06-1.92-1.6-4.11-1.6-6.6v-16.25c0-.77.27-1.43.81-1.96.54-.52,1.22-.79,2.07-.79.69,0,1.31.26,1.86.79s.84,1.17.84,1.96v16.25c0,1.5.32,2.79.96,3.88.65,1.1,1.5,1.93,2.56,2.53s2.19.9,3.39.9c1.28,0,2.48-.3,3.59-.9s2.01-1.45,2.69-2.53c.69-1.1,1.03-2.38,1.03-3.88v-16.25c0-.77.22-1.43.67-1.96s1.06-.79,1.85-.79h-.01Z"/>
        <path class="st8" d="M814.11,731.59c-2.27,0-4.4-.42-6.37-1.26-1.97-.84-3.72-1.99-5.21-3.48s-2.67-3.19-3.53-5.14c-.85-1.94-1.28-4.04-1.28-6.28s.42-4.34,1.28-6.28c.85-1.94,2.03-3.65,3.53-5.14s3.23-2.64,5.21-3.48,4.1-1.26,6.37-1.26c1.41,0,2.77.15,4.09.45,1.32.3,2.53.75,3.64,1.35.45.24.79.56,1.01.96.22.4.34.81.34,1.23,0,.72-.24,1.36-.72,1.93-.47.57-1.1.85-1.85.85-.24,0-.49-.02-.74-.09-.25-.06-.5-.15-.74-.27-.75-.32-1.55-.59-2.38-.76-.84-.17-1.72-.27-2.64-.27-1.94,0-3.72.49-5.32,1.46-1.6.97-2.87,2.27-3.82,3.9s-1.41,3.43-1.41,5.41.47,3.74,1.41,5.39c.95,1.65,2.22,2.95,3.82,3.93,1.6.97,3.38,1.46,5.32,1.46.9,0,1.88-.09,2.97-.27,1.07-.17,1.96-.42,2.64-.72l-.4,1.35v-7.68l.76.67h-4.99c-.77,0-1.43-.25-1.96-.76-.52-.51-.79-1.15-.79-1.93s.26-1.42.79-1.93,1.17-.76,1.96-.76h7.36c.77,0,1.42.26,1.93.79s.76,1.17.76,1.96v9.51c0,.6-.14,1.1-.42,1.48s-.61.7-.96.95c-1.37.84-2.88,1.51-4.51,1.99-1.63.5-3.34.74-5.14.74v.02h-.01Z"/>
        <path class="st8" d="M833.41,699.72c.72,0,1.36.26,1.91.79s.84,1.17.84,1.96v25.95c0,.77-.29,1.43-.85,1.96s-1.22.79-1.97.79c-.84,0-1.51-.26-2.02-.79s-.76-1.17-.76-1.96v-25.95c0-.77.27-1.43.81-1.96.54-.52,1.22-.79,2.07-.79h-.02ZM833.27,712.79h20.02v5.16h-20.02v-5.16ZM853.29,699.72c.84,0,1.51.26,2.02.79s.76,1.17.76,1.96v25.95c0,.77-.26,1.43-.79,1.96s-1.22.79-2.08.79c-.72,0-1.36-.26-1.91-.79s-.84-1.17-.84-1.96v-25.95c0-.77.29-1.43.85-1.96.57-.52,1.22-.79,1.97-.79h.01Z"/>
      </g>
    </g>
    <g>
      <g>
        <g>
          <path class="st2" d="M1043.94,1042.15c-117.83-5.7-234.75,9.93-352.15,17.12-9.76.56-17.74-6.42-17.74-15.42v-26.61c0-9,7.99-16.73,17.74-17.29,117.4-7.18,234.32-22.81,352.15-17.12,9.76.56,17.74,8.57,17.74,17.57v26.61c0,9-7.99,15.72-17.74,15.16h0Z"/>
          <path class="st7" d="M1112.9,1042.39c-10.16-1.51-15.23-2.16-25.4-3.3-7.36-.83-13.38-6.93-13.38-13.72v-20.08c0-6.79,6.02-11.78,13.38-10.96,10.15,1.14,15.23,1.79,25.4,3.3,7.36,1.09,13.38,7.67,13.38,14.45v20.08c0,6.79-6.02,11.31-13.38,10.22Z"/>
          <g>
            <path class="st6" d="M707.41,1036.36c-.5.03-.93-.08-1.32-.34-.38-.25-.58-.59-.58-1.01v-14.01c0-.42.15-.78.46-1.08.31-.3.68-.47,1.14-.5,3.03-.2,4.54-.3,7.57-.51.91-.07,1.77.1,2.56.5.8.38,1.44.96,1.94,1.7s.74,1.63.74,2.65c0,.62-.13,1.22-.41,1.83s-.64,1.15-1.1,1.65c-.46.51-.99.9-1.56,1.2,0-.22.01-.34.02-.56.5.21.9.47,1.22.78s.58.65.76,1.01c.19.36.28.79.33,1.2.04.38.12.75.14,1.06s.08.56.15.77.23.35.46.45c.38.19.63.47.73.86.1.38,0,.75-.31,1.08-.2.22-.44.37-.74.45-.3.08-.59.1-.89.07s-.54-.1-.74-.18c-.3-.14-.59-.36-.89-.65-.3-.3-.54-.7-.73-1.22s-.28-1.2-.28-2.05c0-.27-.05-.53-.15-.75-.11-.23-.25-.42-.45-.57s-.44-.28-.74-.34c-.3-.07-.65-.09-1.06-.07-2.12.14-3.19.21-5.31.35.15-.23.23-.35.4-.58v5.26c0,.42-.12.78-.36,1.08-.24.3-.58.46-1.02.5v-.02h.01ZM708.43,1027.61c2.45-.17,3.67-.24,6.13-.41.32-.02.62-.18.92-.46.3-.29.54-.67.74-1.14.19-.47.29-.99.29-1.53,0-.72-.21-1.29-.62-1.74-.41-.45-.86-.66-1.33-.63-2.43.17-3.64.24-6.07.41.12-.32.19-.47.32-.79v6.86c-.14-.22-.22-.33-.36-.56h-.01Z"/>
            <path class="st6" d="M736.81,1027.81c0,1.32-.32,2.52-.96,3.58s-1.5,1.91-2.57,2.55c-1.08.65-2.29,1.01-3.62,1.11-1.33.1-2.54-.1-3.62-.58s-1.94-1.21-2.57-2.18-.96-2.11-.96-3.43.32-2.52.96-3.57,1.5-1.9,2.57-2.56,2.28-1.02,3.62-1.12c1.33-.1,2.54.1,3.62.59,1.08.5,1.94,1.22,2.57,2.18.64.97.96,2.1.96,3.43h0ZM733.66,1028.05c0-.83-.18-1.53-.54-2.1-.36-.58-.84-1.01-1.44-1.31s-1.28-.42-2.01-.36c-.74.05-1.41.27-2.01.66s-1.09.89-1.44,1.52c-.36.63-.54,1.36-.54,2.19s.18,1.51.54,2.08c.36.58.84,1.02,1.44,1.31.6.3,1.28.42,2.01.36.74-.05,1.41-.28,2.01-.66s1.09-.89,1.44-1.53c.36-.64.54-1.35.54-2.16Z"/>
            <path class="st6" d="M742.99,1032.34c0,.42-.15.78-.46,1.09s-.68.47-1.14.52c-.44.03-.8-.08-1.1-.34s-.45-.6-.45-1.02v-14.98c0-.42.15-.78.46-1.09s.68-.47,1.14-.52c.45-.03.83.08,1.12.34.29.26.43.6.43,1.02v14.98h0Z"/>
            <path class="st6" d="M753.03,1033.28c-1.48.12-2.78-.07-3.87-.55-1.1-.48-1.94-1.2-2.52-2.15-.58-.93-.88-2.03-.88-3.28,0-1.45.32-2.72.96-3.8.64-1.08,1.47-1.92,2.51-2.56,1.03-.63,2.13-.99,3.29-1.08.89-.07,1.74.03,2.54.31.79.28,1.51.68,2.11,1.22.62.54,1.1,1.19,1.46,1.94s.56,1.57.54,2.43c0,.38-.19.72-.5.99-.32.26-.68.42-1.1.45-4.02.32-6.03.48-10.04.79-.32-.95-.47-1.42-.79-2.37,3.86-.3,5.79-.45,9.65-.76-.23.21-.35.32-.58.53v-.65c-.03-.46-.22-.87-.54-1.22-.32-.34-.73-.6-1.21-.79-.48-.18-.99-.25-1.54-.21-.53.04-1.01.14-1.47.31-.45.17-.85.42-1.18.75s-.59.77-.79,1.3c-.19.53-.29,1.2-.29,1.98,0,.87.2,1.6.59,2.17.4.57.9.99,1.53,1.27.63.26,1.29.37,1.98.32.65-.05,1.17-.14,1.55-.26.38-.13.69-.26.93-.43.23-.15.45-.29.64-.41.32-.17.62-.26.89-.29.38-.03.7.07.96.29s.38.5.38.81c0,.44-.26.85-.74,1.24-.45.37-1.1.76-1.91,1.09-.83.33-1.67.54-2.55.6h-.01Z"/>
            <path class="st6" d="M763.12,1026.24c-.46.03-.84-.07-1.14-.32-.31-.25-.46-.58-.46-1s.15-.78.46-1.07c.31-.29.68-.45,1.14-.5,1.83-.15,2.74-.22,4.58-.37.45-.03.84.08,1.14.33.31.25.46.59.46,1.01s-.15.75-.46,1.05c-.31.3-.68.45-1.14.5-1.83.15-2.74.22-4.58.37h0Z"/>
            <path class="st6" d="M779.6,1017.65c1.23-.1,2.32.09,3.3.58.97.5,1.75,1.22,2.31,2.17.57.96.86,2.09.86,3.42s-.29,2.52-.86,3.58-1.33,1.91-2.29,2.56-2.02,1.03-3.22,1.13c-.7.05-1.36,0-1.97-.15-.62-.15-1.15-.38-1.62-.66-.46-.29-.83-.58-1.08-.89s-.38-.58-.38-.8c.33-.15.48-.23.81-.38v6.38c0,.42-.15.78-.45,1.09-.3.31-.67.48-1.13.52-.46.03-.84-.07-1.13-.32s-.45-.59-.45-1.03v-14.86c0-.42.14-.78.45-1.09.3-.31.67-.48,1.13-.52.45-.03.84.08,1.13.33s.45.59.45,1.01v1.19c-.18-.08-.26-.11-.45-.18,0-.21.12-.47.36-.79.24-.32.58-.65,1-.98.42-.33.91-.62,1.46-.86.55-.24,1.13-.38,1.75-.44h.01ZM779.2,1020.35c-.77.07-1.45.3-2.02.7-.58.41-1.03.92-1.35,1.55-.33.64-.48,1.34-.48,2.11s.17,1.44.48,2.03.78,1.05,1.35,1.35c.58.31,1.25.43,2.02.36s1.44-.3,2.01-.7,1.01-.92,1.34-1.57c.32-.65.48-1.35.48-2.11s-.17-1.45-.48-2.03c-.32-.58-.77-1.02-1.34-1.33-.57-.31-1.24-.43-2.01-.36h0Z"/>
            <path class="st6" d="M792.25,1028.33c0,.42-.15.78-.46,1.09s-.69.48-1.14.52c-.44.03-.8-.08-1.1-.33s-.45-.59-.45-1.01v-14.98c0-.42.15-.78.46-1.09s.68-.48,1.14-.52c.45-.03.83.08,1.12.33.29.26.44.59.44,1.02v14.98h-.01Z"/>
            <path class="st6" d="M807.44,1015.32c.45-.03.84.07,1.13.32s.45.59.45,1.02v10.25c0,.42-.15.78-.45,1.09-.3.31-.67.48-1.13.52s-.84-.08-1.13-.33-.45-.59-.45-1.01v-1.19c.23.07.35.1.58.17,0,.21-.12.47-.36.79-.24.32-.58.64-1,.97-.42.33-.91.62-1.48.87-.57.25-1.19.41-1.85.46-1.21.1-2.3-.09-3.29-.58-.98-.5-1.76-1.22-2.32-2.18-.57-.96-.86-2.1-.86-3.41s.29-2.52.86-3.58,1.33-1.91,2.3-2.57c.97-.66,2.03-1.03,3.21-1.13.76-.07,1.44-.02,2.08.14.63.15,1.18.37,1.64.66.46.29.83.58,1.08.89.25.31.38.58.38.8-.37.15-.57.24-.95.4v-1.77c0-.42.14-.78.45-1.09.3-.31.67-.48,1.13-.52h-.02ZM802.13,1026.55c.77-.07,1.44-.3,2.02-.7s1.03-.92,1.35-1.56c.32-.64.48-1.34.48-2.1s-.17-1.45-.48-2.05c-.32-.58-.78-1.03-1.35-1.34-.57-.31-1.25-.43-2.02-.36-.76.07-1.42.3-2,.7s-1.03.92-1.35,1.57c-.33.64-.48,1.35-.48,2.12s.17,1.43.48,2.02c.32.58.78,1.03,1.35,1.34.58.31,1.24.43,2,.36h0Z"/>
            <path class="st6" d="M822.86,1014.27c.45-.03.84.08,1.13.33s.45.59.45,1.01v10.3c0,1.48-.31,2.7-.9,3.63-.6.93-1.42,1.63-2.43,2.1s-2.16.76-3.42.87c-.56.04-1.15.05-1.78.03-.63-.03-1.14-.11-1.55-.23-.53-.17-.89-.4-1.09-.69s-.24-.63-.12-1c.15-.48.41-.83.76-1.02s.73-.24,1.1-.15c.27.07.65.15,1.1.29s.98.18,1.57.12c.8-.07,1.47-.22,2.01-.47s.93-.62,1.21-1.12c.28-.5.41-1.17.41-1.98v-1.63c.22.21.33.32.55.54-.3.56-.67,1.03-1.11,1.42-.45.38-.98.69-1.6.92s-1.31.37-2.1.44c-.92.08-1.74-.05-2.43-.4s-1.23-.85-1.62-1.52-.58-1.46-.58-2.37v-7.07c0-.42.15-.78.45-1.09.3-.31.67-.48,1.13-.52s.84.08,1.13.33.45.59.45,1.01v6.2c0,1.06.25,1.77.75,2.16.5.38,1.2.54,2.09.47.62-.05,1.13-.21,1.55-.46.42-.25.75-.6.97-1.05.23-.45.34-.98.34-1.6v-6.2c0-.42.15-.78.45-1.09.3-.31.67-.48,1.13-.52h-.01Z"/>
            <path class="st6" d="M826.78,1024.9c-.18-.21-.25-.5-.23-.86s.24-.68.68-.98c.29-.19.58-.27.89-.27s.62.12.92.37c.51.43,1.05.75,1.61.96s1.29.31,2.1.22c.25-.03.55-.1.87-.18.32-.08.59-.23.83-.45.23-.22.35-.54.35-.96,0-.35-.13-.63-.4-.81s-.6-.34-1.03-.45-.91-.21-1.43-.3c-.54-.1-1.1-.22-1.67-.35s-1.09-.32-1.56-.56c-.47-.24-.86-.58-1.15-1.03-.3-.44-.45-1.02-.45-1.74,0-.8.24-1.52.74-2.12s1.12-1.09,1.9-1.46,1.6-.59,2.45-.66c.54-.04,1.11-.03,1.7.04s1.17.22,1.7.44,1,.54,1.36.95c.2.23.31.51.34.85.03.34-.13.66-.5.96-.26.22-.57.33-.92.33s-.64-.08-.87-.25c-.3-.33-.69-.58-1.2-.75-.5-.17-1.08-.23-1.73-.18-.26.02-.55.08-.86.15s-.57.22-.8.43c-.23.21-.34.51-.34.91,0,.37.13.66.4.86.26.2.62.34,1.07.45.45.1.92.2,1.43.29.53.09,1.06.2,1.61.33.54.13,1.05.33,1.5.58.45.25.83.6,1.1,1.03.28.44.42,1.01.42,1.73,0,.82-.26,1.55-.79,2.17-.53.63-1.19,1.12-1.97,1.48s-1.6.58-2.42.65c-1.03.09-2.07,0-3.1-.24s-1.89-.76-2.57-1.55l.03-.02h0Z"/>
            <path class="st6" d="M859.14,1011.14c.45-.03.84.08,1.13.33s.45.59.45,1.03v10.25c0,.42-.15.78-.45,1.09-.3.31-.67.47-1.13.51s-.84-.08-1.13-.34-.45-.6-.45-1.02v-1.19c.23.07.35.11.58.18,0,.21-.12.47-.36.79-.24.32-.58.64-1,.96-.42.32-.91.6-1.48.86-.57.24-1.19.4-1.85.44-1.21.09-2.3-.11-3.29-.6-.98-.5-1.76-1.23-2.32-2.19-.57-.97-.86-2.1-.86-3.41s.29-2.52.86-3.58,1.33-1.9,2.3-2.55,2.03-1.02,3.21-1.11c.76-.05,1.44,0,2.08.15.63.17,1.18.38,1.64.67s.83.58,1.08.9c.25.31.38.58.38.8-.37.15-.57.23-.95.38v-1.77c0-.42.14-.78.45-1.09.3-.31.67-.47,1.13-.51h-.02ZM853.83,1022.32c.77-.05,1.44-.29,2.02-.69.58-.4,1.03-.92,1.35-1.56.32-.64.48-1.34.48-2.1s-.17-1.46-.48-2.05c-.32-.59-.78-1.05-1.35-1.35-.57-.31-1.25-.44-2.02-.37-.76.05-1.42.29-2,.68s-1.03.92-1.35,1.56c-.33.64-.48,1.34-.48,2.12s.17,1.43.48,2.02c.32.58.78,1.03,1.35,1.35.58.31,1.24.44,2,.38Z"/>
            <path class="st6" d="M871.65,1010.21c1.3-.09,2.28.09,2.96.54.67.45,1.14,1.09,1.4,1.9s.38,1.73.38,2.75v6.2c0,.42-.15.78-.45,1.09-.3.31-.67.47-1.13.51-.45.03-.84-.09-1.13-.34-.3-.26-.45-.6-.45-1.02v-6.2c0-.54-.08-1.01-.22-1.43-.15-.42-.42-.74-.8-.97s-.93-.32-1.65-.26c-.7.05-1.3.22-1.77.52-.48.3-.85.66-1.1,1.11-.25.45-.38.93-.38,1.47v6.2c0,.42-.15.78-.45,1.09s-.67.47-1.13.51c-.45.03-.84-.08-1.13-.34s-.45-.6-.45-1.02v-10.01c0-.42.15-.78.45-1.09.3-.31.67-.47,1.13-.51.45-.03.84.08,1.13.34s.45.6.45,1.02v1.05c-.15-.02-.24-.02-.4-.04.15-.29.38-.59.68-.93s.65-.66,1.06-.96c.41-.31.86-.56,1.36-.77.51-.21,1.06-.33,1.65-.37v-.02h0Z"/>
            <path class="st6" d="M891.3,1004.15c.45-.03.84.09,1.13.34s.45.6.45,1.03v14.98c0,.42-.15.78-.45,1.08-.3.3-.67.46-1.13.5-.45.03-.84-.09-1.13-.35s-.45-.6-.45-1.02v-1.19c.23.08.35.11.58.18,0,.21-.12.47-.36.79s-.58.63-1,.95-.91.59-1.48.84c-.57.24-1.19.38-1.85.43-1.21.08-2.3-.13-3.29-.64-.98-.51-1.76-1.24-2.32-2.22-.57-.97-.86-2.11-.86-3.42s.29-2.51.86-3.56c.57-1.05,1.33-1.89,2.3-2.53s2.03-1,3.21-1.08c.76-.05,1.44,0,2.08.18.63.17,1.18.4,1.64.69s.83.59,1.08.91.38.58.38.81c-.37.15-.57.23-.95.37v-6.5c0-.42.14-.78.45-1.09.3-.3.67-.47,1.13-.5l-.02.02ZM886,1020.01c.77-.05,1.44-.28,2.02-.67.58-.4,1.03-.9,1.35-1.54s.48-1.33.48-2.09-.17-1.46-.48-2.06c-.32-.59-.78-1.05-1.35-1.36s-1.25-.45-2.02-.4c-.76.05-1.42.28-2,.67-.58.4-1.03.91-1.35,1.55-.33.64-.48,1.34-.48,2.12s.17,1.43.48,2.02c.32.59.78,1.05,1.35,1.36.58.32,1.24.45,2,.4h0Z"/>
            <path class="st6" d="M911.05,1007.7c1.4-.08,2.43.18,3.1.77.67.58,1.1,1.36,1.32,2.34-.18-.08-.26-.12-.45-.2.09-.17.12-.24.21-.4.21-.38.54-.8.97-1.25.44-.45.97-.85,1.59-1.18s1.32-.52,2.09-.55c1.27-.07,2.22.14,2.88.62s1.11,1.11,1.35,1.94.36,1.74.36,2.76v6.2c0,.42-.15.78-.45,1.08-.3.3-.67.45-1.13.47-.45.02-.84-.1-1.13-.37-.3-.26-.45-.62-.45-1.03v-6.2c0-.54-.07-1.01-.21-1.43-.14-.42-.4-.75-.76-.99-.36-.24-.89-.34-1.57-.31-.67.03-1.23.19-1.71.47s-.83.65-1.07,1.09c-.23.44-.35.92-.35,1.46v6.2c0,.42-.15.78-.45,1.08s-.67.46-1.13.48-.84-.1-1.13-.36-.45-.6-.45-1.03v-6.2c0-.54-.07-1.01-.21-1.43-.14-.42-.4-.75-.76-.99-.36-.24-.89-.34-1.57-.3-.66.03-1.23.2-1.71.48s-.83.65-1.07,1.09c-.23.44-.35.92-.35,1.46v6.2c0,.42-.15.78-.45,1.08-.3.3-.67.46-1.13.48s-.84-.1-1.13-.36-.45-.6-.45-1.02v-10.01c0-.42.14-.78.45-1.08.3-.3.67-.46,1.13-.5.45-.02.84.1,1.13.36s.45.6.45,1.03v1.05c-.15-.02-.23-.03-.4-.05.15-.29.37-.59.66-.92.27-.33.63-.65,1.02-.95.41-.3.85-.55,1.34-.74.49-.2,1.02-.31,1.61-.34h0Z"/>
            <path class="st6" d="M941.53,1013.06c0,1.32-.32,2.51-.96,3.54-.64,1.03-1.5,1.86-2.57,2.46s-2.28.93-3.62.99c-1.33.05-2.54-.18-3.62-.69-1.08-.52-1.94-1.27-2.57-2.25s-.96-2.13-.96-3.45.32-2.51.96-3.54c.64-1.03,1.5-1.87,2.57-2.49s2.29-.96,3.62-1.01c1.33-.05,2.54.19,3.62.72,1.08.53,1.94,1.29,2.57,2.28s.96,2.15.96,3.47h0ZM938.38,1013.17c0-.83-.18-1.53-.54-2.12s-.84-1.05-1.44-1.36-1.28-.46-2.01-.43c-.74.03-1.41.23-2.01.59-.61.36-1.09.86-1.44,1.47-.36.62-.54,1.34-.54,2.17s.18,1.51.54,2.1.84,1.05,1.44,1.35c.61.32,1.28.45,2.01.43.74-.03,1.41-.23,2.01-.59.61-.36,1.09-.86,1.44-1.47.36-.62.54-1.33.54-2.15h0Z"/>
            <path class="st6" d="M944.8,1006.45c.33-.01.64.05.92.2.28.14.49.36.63.67,1.55,3.21,2.32,4.81,3.86,8.02-.23.1-.35.15-.58.26,1.57-3.39,2.37-5.09,3.94-8.48.3-.66.78-.96,1.4-.96.43,0,.79.11,1.07.35.27.24.41.55.41.92,0,.11-.02.23-.07.36s-.09.25-.14.36c-1.97,4.05-2.95,6.07-4.92,10.12-.28.59-.76.89-1.34.96-.32.04-.65.01-.96-.14s-.54-.4-.69-.73c-1.96-3.94-2.94-5.9-4.88-9.82-.03-.08-.08-.19-.12-.31-.04-.13-.07-.27-.07-.46,0-.29.14-.58.42-.88.28-.3.66-.45,1.13-.46h0Z"/>
            <path class="st6" d="M965.42,1019.11c-1.48.03-2.78-.23-3.87-.78-1.1-.55-1.94-1.31-2.52-2.29-.58-.97-.88-2.08-.88-3.32,0-1.45.32-2.71.96-3.74.64-1.05,1.47-1.85,2.51-2.42,1.03-.57,2.13-.87,3.29-.89.89-.02,1.74.13,2.54.46.79.33,1.51.78,2.11,1.36.62.58,1.1,1.25,1.46,2.02s.56,1.62.54,2.46c0,.38-.19.7-.49.96-.32.24-.68.37-1.1.38-4.02.07-6.03.1-10.04.19-.32-.97-.47-1.44-.79-2.41,3.86-.09,5.79-.13,9.65-.19-.23.2-.35.3-.58.5v-.65c-.03-.47-.22-.89-.54-1.25s-.73-.65-1.21-.86-.99-.31-1.54-.3c-.53,0-1.01.09-1.47.22-.45.14-.85.36-1.18.68-.33.32-.59.74-.79,1.25-.19.52-.29,1.18-.29,1.97,0,.87.2,1.61.59,2.21.4.59.9,1.05,1.53,1.35.63.3,1.29.45,1.98.43.65-.01,1.17-.07,1.55-.18.38-.1.69-.23.93-.36.23-.14.45-.26.64-.36.32-.15.62-.23.89-.23.38,0,.7.11.96.35.25.24.38.52.38.85,0,.44-.26.84-.74,1.2-.45.35-1.1.68-1.91.97-.83.29-1.67.43-2.55.45v-.04h-.01Z"/>
            <path class="st6" d="M981.69,1005.46c1.4,0,2.43.3,3.1.92.66.62,1.1,1.42,1.31,2.41-.18-.09-.26-.13-.45-.22.09-.15.12-.23.21-.38.21-.37.54-.77.97-1.2.44-.43.97-.79,1.59-1.09s1.32-.45,2.09-.45c1.27,0,2.22.26,2.88.76.66.51,1.11,1.18,1.35,2,.24.84.36,1.76.36,2.78v6.2c0,.42-.15.77-.45,1.06s-.67.42-1.13.42-.84-.14-1.13-.43-.45-.64-.45-1.06v-6.2c0-.54-.07-1.01-.21-1.44-.14-.43-.4-.77-.76-1.03s-.89-.38-1.57-.4c-.67,0-1.23.13-1.71.38s-.83.6-1.07,1.03c-.23.43-.35.91-.35,1.44v6.2c0,.42-.15.77-.45,1.06s-.67.43-1.13.43-.84-.14-1.13-.42-.45-.63-.45-1.06v-6.2c0-.54-.07-1.01-.21-1.44-.14-.43-.4-.77-.76-1.02s-.89-.38-1.57-.37c-.67,0-1.23.14-1.71.4-.47.26-.82.6-1.07,1.03s-.35.91-.35,1.44v6.2c0,.42-.15.77-.45,1.06s-.67.43-1.13.44-.84-.13-1.13-.41-.45-.63-.45-1.05v-10.01c0-.42.15-.77.45-1.06s.67-.43,1.13-.44.84.13,1.13.42c.3.28.45.63.45,1.05v1.05c-.15-.02-.24-.04-.4-.07.15-.27.37-.57.66-.89.28-.32.62-.62,1.02-.89s.85-.51,1.34-.68,1.02-.26,1.61-.26h.01Z"/>
            <path class="st6" d="M1005.17,1019.03c-1.48-.02-2.78-.33-3.88-.91s-1.94-1.38-2.52-2.37-.88-2.11-.88-3.35c0-1.45.32-2.7.96-3.71.64-1.02,1.47-1.79,2.51-2.33,1.03-.54,2.12-.79,3.29-.78.89.01,1.74.2,2.54.55.79.35,1.51.84,2.11,1.43.62.6,1.1,1.3,1.46,2.08s.56,1.63.54,2.49c0,.37-.19.7-.49.93-.32.23-.68.35-1.1.34-4.02-.09-6.03-.11-10.04-.15-.32-.97-.47-1.46-.79-2.43,3.86.04,5.79.07,9.65.14-.23.19-.35.29-.58.47v-.65c-.03-.47-.22-.89-.54-1.28-.32-.37-.73-.68-1.21-.9-.48-.23-.99-.34-1.54-.35-.53,0-1.01.04-1.47.18-.45.12-.85.33-1.18.64-.33.31-.59.72-.79,1.22-.19.52-.29,1.17-.29,1.96,0,.87.2,1.62.59,2.22.4.62.9,1.08,1.53,1.4.63.32,1.29.5,1.98.51.65,0,1.17-.03,1.55-.12.38-.09.69-.2.93-.33.23-.13.45-.24.65-.34.32-.14.62-.21.89-.2.38,0,.7.13.96.38s.38.53.38.86c0,.44-.26.83-.74,1.18-.45.33-1.1.65-1.91.89-.83.25-1.67.37-2.55.35h-.01Z"/>
            <path class="st6" d="M1021.57,1005.99c1.3.04,2.28.33,2.96.86s1.14,1.21,1.4,2.05c.25.85.38,1.77.38,2.79v6.2c0,.42-.15.77-.45,1.03-.3.27-.67.4-1.13.38s-.84-.18-1.13-.46c-.3-.3-.45-.65-.45-1.07v-6.2c0-.54-.08-1.02-.22-1.45s-.42-.78-.8-1.06-.93-.42-1.65-.44c-.7-.02-1.29.09-1.77.33s-.85.58-1.1,1c-.25.42-.38.9-.38,1.43v6.2c0,.42-.15.77-.45,1.05s-.67.41-1.13.4-.84-.17-1.13-.45-.45-.65-.45-1.07v-10.01c0-.42.14-.77.45-1.05.3-.28.67-.41,1.13-.4.45.01.84.17,1.13.45.3.29.45.65.45,1.07v1.05c-.15-.03-.23-.05-.4-.09.15-.28.38-.56.68-.87.3-.31.65-.59,1.06-.86.41-.26.86-.47,1.36-.63s1.06-.22,1.66-.2h-.01Z"/>
            <path class="st6" d="M1029.87,1006.78c2.49.1,3.74.17,6.23.29.42.02.77.17,1.06.44.27.27.42.6.42.99s-.14.67-.42.91c-.29.23-.63.34-1.06.32-2.5-.12-3.74-.18-6.23-.29-.42-.02-.77-.17-1.06-.43-.28-.26-.42-.59-.42-.99s.14-.68.42-.91c.27-.24.63-.35,1.06-.33ZM1032.69,1003.87c.45.02.83.18,1.12.47.29.3.43.65.43,1.08v10.79c0,.23.04.42.14.56.1.15.23.26.4.33.17.08.34.11.54.12.21,0,.41-.01.58-.08s.37-.09.61-.08c.24.01.47.13.67.35.2.22.31.52.31.89,0,.45-.26.81-.8,1.08s-1.11.38-1.73.35c-.36-.02-.78-.07-1.22-.14-.45-.08-.87-.23-1.27-.47-.4-.23-.73-.58-.99-1.05s-.4-1.09-.4-1.88v-10.91c0-.42.15-.77.46-1.03s.68-.4,1.14-.37h0Z"/>
          </g>
        </g>
        <path class="st5" d="M508.8,1026.39c0,9.67-8.5,16.58-18.99,15.1-10.48-1.46-18.99-10.76-18.99-20.43s8.5-16.05,18.99-14.59c10.48,1.46,18.99,10.24,18.99,19.91h0Z"/>
        <path class="st11" d="M658.39,1038.34c-45.42,1.48-90.54.97-135.83-2.88-2.19-.21-3.99-2.05-3.99-4.07v-6.62c0-2.02,1.79-3.5,3.99-3.29,45.3,3.85,90.41,4.37,135.83,2.88,2.19-.09,3.99,1.5,3.99,3.52v6.62c0,2.02-1.79,3.75-3.99,3.84Z"/>
      </g>
      <path class="st8" d="M894.37,848.7c13.51,8.23,25.23,19.05,35.08,31.39,9.96,12.47,17.96,26.47,24.43,41.03,3.66,8.26,6.81,16.76,9.52,25.39l2.03-2.04c-4.74-1.99-9.48-3.98-14.23-5.97l-.88,3.18c4.89,1.8,9.6,4.06,14.59,5.62.8.25,1.86-.3,2.03-1.15,1.17-6.01,3.23-11.79,4.32-17.83.37-2.08-2.81-2.97-3.18-.88-1.09,6.04-3.17,11.81-4.32,17.83l2.03-1.15c-4.98-1.56-9.69-3.82-14.59-5.62-2.02-.75-2.78,2.39-.88,3.18,4.74,1.99,9.48,3.98,14.23,5.97,1.18.5,2.38-.94,2.03-2.04-4.91-15.6-11.24-30.81-19.36-45.03-8.12-14.22-17.83-27.19-29.63-38.29-6.6-6.2-13.82-11.75-21.56-16.46-1.82-1.11-3.48,1.75-1.66,2.85h0v.02h-.01Z"/>
    </g>
    <g>
      <g>
        <g>
          <path class="st9" d="M790.32,385.08l-.99-7.08c-.22-1.58-2.09-2.33-3.34-1.33l-18.34,14.66c-1.85,1.49-.17,4.41,2.05,3.54l19.33-7.58c.89-.35,1.43-1.26,1.3-2.21Z"/>
          <path class="st9" d="M697.37,390.86l.99,7.09c.13.95.9,1.68,1.85,1.77l20.67,1.98c2.37.23,3.18-3.05,1-3.97l-21.67-9.08c-1.47-.62-3.07.61-2.85,2.2h.01Z"/>
          <path class="st9" d="M699.5,471.86l48.37,4.64c3.37.32,6.15-2.59,5.68-5.93l-8.23-58.78c-.34-2.4-2.28-4.25-4.69-4.48l-56.17-5.37c-3.63-.35-6.5,3.05-5.54,6.57l16.04,59.51c.57,2.1,2.38,3.64,4.55,3.85h-.01Z"/>
          <path class="st9" d="M748.96,411.27l8.23,58.78c.47,3.34,3.94,5.38,7.1,4.15l45.22-17.75c2.02-.79,3.35-2.77,3.32-4.95l-.93-61.62c-.05-3.65-3.74-6.13-7.14-4.79l-52.51,20.59c-2.25.88-3.61,3.2-3.27,5.6h-.01Z"/>
          <path class="st2" d="M725.88,377.52l-2.51-1.68c-.64-.43-.5-1.41.23-1.64l2.88-.92c.3-.1.52-.33.6-.63l.83-2.9c.21-.74,1.18-.91,1.63-.29l1.77,2.45c.18.25.47.4.78.38l3.03-.11c.77-.03,1.23.85.77,1.46l-1.79,2.44c-.19.25-.23.57-.12.86l1.03,2.84c.26.73-.42,1.43-1.15,1.19l-2.87-.95c-.3-.1-.62-.04-.86.15l-2.38,1.87c-.6.47-1.5.04-1.48-.73v-3.02c.01-.31-.14-.59-.4-.77h.01Z"/>
          <path class="st2" d="M744.96,361.67l-2.72-3.83c-.69-.97.04-2.31,1.24-2.26l4.69.24c.47.02.93-.19,1.22-.57l2.8-3.76c.72-.96,2.21-.67,2.53.48l1.22,4.53c.12.46.47.83.92.98l4.44,1.5c1.13.38,1.32,1.9.32,2.55l-3.94,2.56c-.4.26-.65.7-.65,1.18l-.05,4.7c-.01,1.19-1.4,1.85-2.32,1.09l-3.65-2.95c-.37-.3-.87-.4-1.32-.25l-4.48,1.4c-1.14.35-2.19-.76-1.76-1.87l1.68-4.38c.18-.45.11-.95-.17-1.34h-.02,0Z"/>
          <path class="st2" d="M728.77,346.79l-2.89-1.79c-.74-.46-.62-1.56.2-1.86l3.2-1.16c.33-.12.57-.38.65-.73l.81-3.3c.21-.84,1.3-1.07,1.83-.38l2.09,2.68c.21.27.55.42.89.4l3.4-.24c.86-.07,1.42.9.93,1.62l-1.91,2.82c-.2.29-.23.65-.1.97l1.29,3.15c.33.8-.42,1.63-1.24,1.39l-3.27-.95c-.33-.1-.69-.02-.96.2l-2.6,2.2c-.66.56-1.67.11-1.7-.76l-.11-3.4c-.01-.34-.2-.66-.48-.85h-.02Z"/>
        </g>
        <g>
          <rect class="st5" x="713.94" y="429.33" width="375.84" height="64.62" rx="17.82" ry="17.82"/>
          <g>
            <path class="st6" d="M745.69,470.32c-1.23,0-2.34-.15-3.32-.46-.99-.31-1.92-.85-2.83-1.63-.23-.2-.41-.42-.53-.66s-.19-.49-.19-.74c0-.41.14-.76.44-1.07.29-.31.66-.46,1.1-.46.33,0,.64.11.9.32.67.55,1.33.96,1.99,1.24.66.29,1.47.42,2.44.42.65,0,1.25-.1,1.79-.31s.99-.47,1.32-.81c.33-.34.51-.74.51-1.18,0-.53-.15-.98-.47-1.34s-.8-.68-1.45-.94c-.65-.25-1.47-.45-2.49-.59-.95-.14-1.78-.35-2.51-.65-.73-.29-1.32-.66-1.8-1.11-.48-.45-.85-.98-1.1-1.58-.24-.61-.37-1.29-.37-2.05,0-1.14.3-2.12.88-2.93.59-.81,1.39-1.43,2.39-1.85s2.11-.64,3.32-.64c1.14,0,2.2.18,3.18.52s1.77.78,2.39,1.31c.51.41.77.87.77,1.4,0,.39-.15.74-.45,1.06-.3.32-.65.47-1.06.47-.26,0-.51-.08-.72-.24-.29-.24-.66-.48-1.13-.7-.47-.22-.98-.41-1.51-.55-.53-.15-1.02-.22-1.47-.22-.76,0-1.4.1-1.91.29-.52.2-.91.46-1.18.79s-.4.73-.4,1.17c0,.53.15.97.46,1.31.31.34.75.62,1.33.81.58.2,1.28.39,2.09.54,1.06.2,1.98.42,2.78.68.8.26,1.46.61,1.99,1.01.53.42.92.94,1.19,1.56.26.63.4,1.39.4,2.29,0,1.14-.32,2.13-.95,2.96-.64.83-1.46,1.46-2.5,1.9s-2.15.66-3.34.66h.01Z"/>
            <path class="st6" d="M755.4,456.19h6.26c.42,0,.77.14,1.06.42s.42.64.42,1.06-.14.75-.42,1.01-.64.41-1.06.41h-6.26c-.42,0-.78-.14-1.06-.42-.29-.29-.42-.64-.42-1.06s.14-.75.42-1.01c.28-.28.64-.41,1.06-.41ZM758.23,452.89c.46,0,.84.15,1.12.46s.44.69.44,1.14v11.75c0,.24.04.45.14.61s.23.27.4.34.35.11.54.11c.21,0,.41-.04.58-.12.18-.08.37-.12.6-.12s.47.11.67.34c.2.23.31.55.31.95,0,.49-.26.9-.8,1.21-.54.32-1.11.47-1.73.47-.37,0-.78-.03-1.23-.09-.45-.07-.87-.21-1.27-.45-.4-.24-.73-.61-.99-1.1-.26-.49-.4-1.17-.4-2.04v-11.88c0-.46.15-.84.46-1.14s.69-.46,1.14-.46v.02h0Z"/>
            <path class="st6" d="M779.61,463c0,1.44-.32,2.72-.97,3.82-.64,1.1-1.51,1.96-2.58,2.57s-2.29.92-3.63.92-2.55-.31-3.63-.92-1.95-1.47-2.58-2.57c-.64-1.1-.97-2.38-.97-3.82s.32-2.72.97-3.82,1.51-1.96,2.58-2.59,2.29-.94,3.63-.94,2.55.31,3.63.94,1.95,1.49,2.58,2.59.97,2.38.97,3.82ZM776.45,463c0-.9-.18-1.67-.54-2.33-.36-.66-.85-1.18-1.45-1.54-.6-.37-1.28-.55-2.02-.55s-1.41.19-2.02.55c-.6.37-1.09.88-1.45,1.54-.36.66-.54,1.44-.54,2.33s.18,1.65.54,2.31.85,1.18,1.45,1.54c.6.37,1.28.55,2.02.55s1.41-.19,2.02-.55c.6-.37,1.09-.88,1.45-1.54.36-.66.54-1.43.54-2.31Z"/>
            <path class="st6" d="M783.97,470.05c-.46,0-.84-.15-1.13-.46s-.45-.69-.45-1.14v-10.9c0-.46.15-.84.45-1.14.3-.31.68-.46,1.13-.46s.84.15,1.13.46.45.69.45,1.14v2.49l-.19-1.77c.2-.42.44-.79.75-1.12.31-.33.66-.59,1.05-.81.38-.22.8-.39,1.24-.48.44-.11.88-.15,1.32-.15.53,0,.97.15,1.33.45s.54.65.54,1.06c0,.58-.15,1-.45,1.25-.3.25-.63.39-.98.39-.33,0-.64-.07-.91-.19s-.58-.19-.93-.19c-.32,0-.64.08-.97.22-.33.15-.63.39-.9.7s-.5.7-.66,1.18c-.17.46-.25,1.01-.25,1.65v6.26c0,.46-.15.84-.45,1.14-.3.31-.68.46-1.13.46l.02-.02h0Z"/>
            <path class="st6" d="M795.21,454.21c-.59,0-1.02-.1-1.27-.29-.24-.2-.37-.54-.37-1.03v-.51c0-.51.13-.86.41-1.04s.69-.27,1.25-.27c.62,0,1.05.1,1.3.29.24.2.37.54.37,1.03v.51c0,.51-.13.86-.4,1.04s-.69.27-1.3.27ZM796.82,468.44c0,.46-.15.84-.45,1.14-.3.31-.68.46-1.13.46s-.84-.15-1.13-.46-.45-.69-.45-1.14v-10.9c0-.46.15-.84.45-1.14.3-.31.68-.46,1.13-.46s.84.15,1.13.46.45.69.45,1.14v10.9Z"/>
            <path class="st6" d="M806.72,470.32c-1.5,0-2.79-.31-3.89-.94s-1.95-1.47-2.53-2.55c-.59-1.08-.88-2.29-.88-3.64,0-1.58.32-2.94.97-4.05s1.48-1.98,2.52-2.57,2.13-.9,3.3-.9c.9,0,1.75.19,2.55.55.8.37,1.51.88,2.12,1.52s1.1,1.39,1.46,2.23.54,1.74.54,2.69c-.02.42-.19.77-.51,1.03s-.68.4-1.11.4h-10.09l-.79-2.64h9.69l-.58.53v-.71c-.03-.51-.22-.97-.54-1.38-.33-.41-.74-.73-1.21-.97-.48-.24-1-.35-1.54-.35s-1.02.07-1.47.21-.86.37-1.19.71-.59.78-.79,1.34-.29,1.28-.29,2.13c0,.95.2,1.76.59,2.42.4.66.9,1.17,1.53,1.51s1.29.52,1.99.52c.65,0,1.17-.06,1.56-.15.38-.11.7-.23.93-.39s.45-.28.65-.39c.32-.15.62-.24.9-.24.38,0,.7.13.97.4.25.26.38.57.38.92,0,.47-.24.9-.74,1.3-.46.39-1.1.73-1.93,1.01s-1.68.44-2.56.44h-.03,0Z"/>
            <path class="st6" d="M814.82,467.86c-.18-.24-.25-.56-.24-.95.02-.39.24-.73.68-1,.29-.18.58-.25.9-.22.32.02.63.19.92.48.51.51,1.05.9,1.61,1.19s1.27.42,2.11.42c.26-.02.55-.06.87-.12s.59-.2.84-.42.35-.56.35-1.01c0-.39-.13-.69-.4-.92-.26-.23-.62-.42-1.05-.58-.43-.15-.91-.31-1.44-.45-.55-.15-1.1-.33-1.67-.53s-1.1-.44-1.57-.75-.86-.71-1.17-1.23c-.3-.51-.45-1.16-.45-1.92,0-.88.24-1.63.74-2.24s1.13-1.09,1.91-1.43c.78-.33,1.61-.51,2.46-.51.55,0,1.12.07,1.72.2s1.17.34,1.72.64c.55.29,1,.67,1.38,1.14.2.26.31.58.34.95.03.37-.13.7-.51,1-.26.21-.57.31-.92.27-.35-.02-.64-.14-.87-.35-.3-.39-.7-.69-1.2-.92-.51-.23-1.08-.34-1.73-.34-.26,0-.55.03-.86.09-.31.07-.57.2-.8.4-.23.2-.34.53-.34.97,0,.41.13.73.4.97s.62.43,1.07.58.92.3,1.44.44c.53.14,1.07.31,1.61.51.55.2,1.05.45,1.51.77s.82.73,1.11,1.23c.28.51.42,1.14.42,1.91,0,.9-.26,1.66-.79,2.3s-1.19,1.11-1.98,1.44-1.61.48-2.43.48c-1.03,0-2.08-.18-3.11-.54s-1.9-1-2.58-1.91l.02-.02Z"/>
            <path class="st6" d="M832.38,469.84c0,.58-.17,1.17-.48,1.76-.33.59-.75,1.08-1.27,1.47-.52.4-1.07.59-1.65.59-.2,0-.4-.08-.62-.24-.22-.15-.33-.43-.33-.81s.13-.65.38-.73.47-.16.65-.25c.23-.12.41-.26.54-.44s.2-.37.2-.62c0-.2-.09-.36-.28-.52s-.43-.22-.73-.22c-.11,0-.23,0-.37.04-.14.02-.26.08-.37.14-.18-.09-.33-.2-.46-.33s-.2-.35-.2-.65c0-.55.25-1.01.75-1.41.51-.4,1.09-.59,1.76-.59.76,0,1.36.25,1.8.77s.67,1.19.67,2.04h0Z"/>
            <path class="st6" d="M842.2,467.86c-.18-.24-.25-.56-.24-.95.02-.39.24-.73.68-1,.29-.18.58-.25.9-.22.32.02.63.19.92.48.51.51,1.05.9,1.61,1.19s1.27.42,2.11.42c.26-.02.55-.06.87-.12s.59-.2.84-.42.35-.56.35-1.01c0-.39-.13-.69-.4-.92-.26-.23-.62-.42-1.05-.58-.43-.15-.91-.31-1.44-.45-.55-.15-1.1-.33-1.67-.53s-1.1-.44-1.57-.75-.86-.71-1.17-1.23c-.3-.51-.45-1.16-.45-1.92,0-.88.24-1.63.74-2.24s1.13-1.09,1.91-1.43c.78-.33,1.61-.51,2.46-.51.55,0,1.12.07,1.72.2s1.17.34,1.72.64c.55.29,1,.67,1.38,1.14.2.26.31.58.34.95.03.37-.13.7-.51,1-.26.21-.57.31-.92.27-.35-.02-.64-.14-.87-.35-.3-.39-.7-.69-1.2-.92-.51-.23-1.08-.34-1.73-.34-.26,0-.55.03-.86.09-.31.07-.57.2-.8.4-.23.2-.34.53-.34.97,0,.41.13.73.4.97s.62.43,1.07.58.92.3,1.44.44c.53.14,1.07.31,1.61.51.55.2,1.05.45,1.51.77s.83.73,1.11,1.23c.28.51.42,1.14.42,1.91,0,.9-.26,1.66-.79,2.3s-1.19,1.11-1.98,1.44-1.61.48-2.43.48c-1.03,0-2.08-.18-3.11-.54s-1.9-1-2.58-1.91l.02-.02Z"/>
            <path class="st6" d="M869.45,463c0,1.44-.32,2.72-.97,3.82-.64,1.1-1.51,1.96-2.58,2.57s-2.29.92-3.63.92-2.55-.31-3.63-.92-1.95-1.47-2.58-2.57c-.64-1.1-.97-2.38-.97-3.82s.32-2.72.97-3.82,1.51-1.96,2.58-2.59,2.29-.94,3.63-.94,2.55.31,3.63.94,1.95,1.49,2.58,2.59.97,2.38.97,3.82ZM866.28,463c0-.9-.18-1.67-.54-2.33-.36-.66-.85-1.18-1.45-1.54-.6-.37-1.28-.55-2.02-.55s-1.41.19-2.02.55c-.6.37-1.09.88-1.45,1.54-.36.66-.54,1.44-.54,2.33s.18,1.65.54,2.31.85,1.18,1.45,1.54c.6.37,1.28.55,2.02.55s1.41-.19,2.02-.55c.6-.37,1.09-.88,1.45-1.54.36-.66.54-1.43.54-2.31Z"/>
            <path class="st6" d="M879.77,455.67c1.3,0,2.29.27,2.97.81.68.55,1.14,1.28,1.4,2.18.25.9.38,1.91.38,3.02v6.75c0,.46-.15.84-.45,1.14s-.68.46-1.13.46-.84-.15-1.13-.46-.45-.69-.45-1.14v-6.75c0-.58-.08-1.1-.22-1.57-.15-.46-.42-.84-.8-1.12-.38-.29-.95-.42-1.66-.42s-1.3.14-1.78.42c-.48.29-.86.66-1.11,1.12s-.38.99-.38,1.57v6.75c0,.46-.15.84-.45,1.14s-.68.46-1.13.46-.84-.15-1.13-.46-.45-.69-.45-1.14v-10.9c0-.46.15-.84.45-1.14s.68-.46,1.13-.46.84.15,1.13.46.45.69.45,1.14v1.13l-.4-.08c.15-.3.38-.62.68-.97.3-.34.65-.66,1.06-.97.41-.3.86-.54,1.38-.73.51-.19,1.07-.27,1.66-.27h0Z"/>
            <path class="st6" d="M893.82,455.67c.74,0,1.42.11,2.03.34.62.23,1.14.52,1.59.87s.8.7,1.06,1.07.38.66.38.91l-.68.34v-1.93c0-.46.15-.84.45-1.14s.68-.46,1.13-.46.84.15,1.13.45.45.68.45,1.17v11.75c0,1.53-.33,2.76-.99,3.69-.66.92-1.53,1.59-2.6,2-1.08.42-2.22.62-3.45.62-.35,0-.81-.04-1.38-.13s-1.1-.2-1.61-.32-.9-.24-1.17-.34c-.53-.23-.89-.52-1.1-.86-.2-.34-.24-.7-.12-1.1.15-.51.42-.86.77-1.04s.73-.21,1.11-.07c.18.06.46.15.87.32s.85.31,1.33.44.91.2,1.28.2c1.32,0,2.3-.26,2.93-.79.64-.53.95-1.25.95-2.19v-2.3l.32.24c0,.23-.12.51-.35.84s-.56.65-.98.97-.9.58-1.46.8-1.17.33-1.79.33c-1.25,0-2.38-.31-3.38-.94-1-.63-1.79-1.49-2.38-2.59s-.87-2.36-.87-3.78.29-2.72.87-3.82,1.36-1.96,2.35-2.59,2.09-.94,3.3-.94v-.02h-.01ZM894.32,458.57c-.79,0-1.48.2-2.09.58-.59.39-1.07.91-1.4,1.58s-.51,1.43-.51,2.27.17,1.57.51,2.24c.33.67.8,1.2,1.4,1.58s1.3.58,2.09.58,1.52-.2,2.11-.58,1.07-.91,1.4-1.58.51-1.42.51-2.24-.17-1.61-.51-2.27-.8-1.2-1.4-1.58-1.3-.58-2.11-.58Z"/>
            <path class="st6" d="M903.72,467.86c-.18-.24-.25-.56-.24-.95.02-.39.24-.73.68-1,.29-.18.58-.25.9-.22.32.02.63.19.92.48.51.51,1.04.9,1.61,1.19s1.27.42,2.11.42c.26-.02.55-.06.87-.12s.59-.2.84-.42.35-.56.35-1.01c0-.39-.13-.69-.4-.92-.26-.23-.62-.42-1.04-.58-.43-.15-.91-.31-1.44-.45-.55-.15-1.1-.33-1.67-.53s-1.1-.44-1.57-.75-.86-.71-1.17-1.23c-.3-.51-.45-1.16-.45-1.92,0-.88.24-1.63.74-2.24.49-.62,1.13-1.09,1.91-1.43.78-.33,1.61-.51,2.46-.51.55,0,1.12.07,1.72.2s1.17.34,1.72.64c.55.29,1,.67,1.38,1.14.2.26.31.58.34.95.03.37-.13.7-.51,1-.26.21-.57.31-.92.27-.35-.02-.64-.14-.87-.35-.3-.39-.7-.69-1.2-.92-.51-.23-1.08-.34-1.73-.34-.26,0-.55.03-.86.09-.31.07-.57.2-.8.4-.23.2-.34.53-.34.97,0,.41.13.73.4.97s.62.43,1.07.58.92.3,1.44.44c.53.14,1.07.31,1.61.51.55.2,1.04.45,1.51.77s.83.73,1.11,1.23c.27.51.42,1.14.42,1.91,0,.9-.26,1.66-.79,2.3s-1.19,1.11-1.98,1.44c-.79.33-1.61.48-2.43.48-1.03,0-2.08-.18-3.11-.54s-1.9-1-2.58-1.91l.02-.02h0Z"/>
            <path class="st6" d="M921.27,469.84c0,.58-.17,1.17-.48,1.76-.33.59-.75,1.08-1.27,1.47s-1.07.59-1.65.59c-.2,0-.4-.08-.62-.24-.22-.15-.33-.43-.33-.81s.13-.65.38-.73.47-.16.65-.25c.23-.12.41-.26.54-.44.13-.16.2-.37.2-.62,0-.2-.09-.36-.27-.52s-.43-.22-.73-.22c-.11,0-.23,0-.37.04-.14.02-.26.08-.37.14-.18-.09-.33-.2-.46-.33s-.2-.35-.2-.65c0-.55.25-1.01.75-1.41.51-.4,1.09-.59,1.76-.59.76,0,1.36.25,1.8.77.45.51.67,1.19.67,2.04h0Z"/>
            <path class="st6" d="M943.47,455.67c.46,0,.84.15,1.13.45s.45.68.45,1.17v11.16c0,.46-.15.84-.45,1.14s-.68.46-1.13.46-.84-.15-1.13-.46-.45-.69-.45-1.14v-1.3l.58.24c0,.23-.12.51-.37.84-.24.33-.58.65-1,.97s-.92.58-1.5.8-1.19.33-1.86.33c-1.21,0-2.31-.31-3.3-.94s-1.76-1.49-2.33-2.59-.86-2.36-.86-3.78.29-2.72.86-3.82,1.34-1.96,2.31-2.59,2.05-.94,3.22-.94c.76,0,1.45.11,2.09.34s1.19.52,1.65.87.83.7,1.08,1.07.38.66.38.91l-.95.34v-1.92c0-.46.15-.84.45-1.14s.68-.46,1.13-.46v-.02h-.01ZM938.13,467.41c.77,0,1.45-.2,2.03-.58s1.03-.91,1.36-1.58.48-1.42.48-2.24-.17-1.61-.48-2.27c-.33-.67-.78-1.2-1.36-1.58s-1.25-.58-2.03-.58-1.43.2-2,.58c-.58.39-1.03.91-1.36,1.58s-.48,1.43-.48,2.27.17,1.57.48,2.24c.33.67.78,1.2,1.36,1.58s1.25.58,2,.58Z"/>
            <path class="st6" d="M956.04,455.67c1.3,0,2.29.27,2.97.81s1.14,1.28,1.4,2.18c.25.9.38,1.91.38,3.02v6.75c0,.46-.15.84-.45,1.14s-.68.46-1.13.46-.84-.15-1.13-.46-.45-.69-.45-1.14v-6.75c0-.58-.08-1.1-.22-1.57s-.42-.84-.8-1.12c-.38-.29-.95-.42-1.66-.42s-1.3.14-1.78.42c-.48.29-.86.66-1.11,1.12s-.38.99-.38,1.57v6.75c0,.46-.15.84-.45,1.14s-.68.46-1.13.46-.84-.15-1.13-.46-.45-.69-.45-1.14v-10.9c0-.46.15-.84.45-1.14s.68-.46,1.13-.46.84.15,1.13.46.45.69.45,1.14v1.13l-.4-.08c.15-.3.38-.62.68-.97s.65-.66,1.06-.97c.41-.3.86-.54,1.38-.73s1.07-.27,1.66-.27h0Z"/>
            <path class="st6" d="M975.79,450.52c.46,0,.84.15,1.13.45s.45.68.45,1.17v16.31c0,.46-.15.84-.45,1.14s-.68.46-1.13.46-.84-.15-1.13-.46-.45-.69-.45-1.14v-1.3l.58.24c0,.23-.12.51-.37.84-.24.33-.58.65-1,.97s-.92.58-1.5.8-1.19.33-1.86.33c-1.21,0-2.31-.31-3.3-.94s-1.76-1.49-2.33-2.59-.86-2.36-.86-3.78.29-2.72.86-3.82,1.34-1.96,2.31-2.59,2.05-.94,3.22-.94c.76,0,1.45.11,2.09.34s1.19.52,1.65.87.82.7,1.08,1.07.38.66.38.91l-.95.34v-7.07c0-.46.15-.84.45-1.14s.68-.46,1.13-.46v-.02h-.01ZM970.45,467.41c.77,0,1.45-.2,2.03-.58s1.03-.91,1.36-1.58.48-1.42.48-2.24-.17-1.61-.48-2.27c-.33-.67-.78-1.2-1.36-1.58s-1.25-.58-2.03-.58-1.43.2-2,.58c-.58.39-1.03.91-1.36,1.58s-.48,1.43-.48,2.27.17,1.57.48,2.24c.33.67.78,1.2,1.36,1.58s1.25.58,2,.58Z"/>
            <path class="st6" d="M994.48,455.67c1,0,1.88.11,2.63.32.75.21,1.33.51,1.74.88.42.37.62.84.62,1.36,0,.35-.11.68-.32.99-.21.31-.52.46-.92.46-.29,0-.52-.04-.7-.12s-.35-.18-.48-.31c-.14-.12-.31-.24-.51-.34-.18-.11-.44-.19-.8-.25s-.63-.09-.8-.09c-.9,0-1.66.2-2.29.58s-1.1.91-1.44,1.57c-.33.66-.51,1.42-.51,2.29s.18,1.59.52,2.26c.34.66.81,1.19,1.43,1.57s1.31.58,2.1.58c.44,0,.81-.02,1.13-.08s.58-.13.79-.24c.24-.14.46-.29.66-.45.2-.15.48-.24.87-.24.46,0,.8.14,1.06.44s.37.65.37,1.07-.24.84-.74,1.2-1.14.65-1.94.87c-.8.22-1.67.33-2.6.33-1.39,0-2.6-.32-3.62-.97-1.02-.64-1.8-1.52-2.37-2.63-.55-1.11-.84-2.35-.84-3.72,0-1.44.3-2.72.88-3.82s1.41-1.96,2.45-2.59,2.24-.94,3.61-.94h.01Z"/>
            <path class="st6" d="M1009.34,455.67c1.27,0,2.23.27,2.89.81.66.55,1.11,1.28,1.36,2.18.24.9.37,1.91.37,3.02v6.75c0,.46-.15.84-.45,1.14s-.68.46-1.13.46-.84-.15-1.13-.46-.45-.69-.45-1.14v-6.75c0-.58-.07-1.1-.21-1.57s-.4-.84-.77-1.12-.9-.42-1.58-.42-1.24.14-1.72.42c-.47.29-.84.66-1.07,1.12-.24.46-.35.99-.35,1.57v6.75c0,.46-.15.84-.45,1.14s-.68.46-1.13.46-.84-.15-1.13-.46-.45-.69-.45-1.14v-16.31c0-.46.15-.84.45-1.14s.68-.46,1.13-.46.84.15,1.13.46.45.69.45,1.14v6.54l-.4-.08c.15-.3.37-.62.66-.97s.63-.66,1.03-.97c.41-.3.86-.54,1.34-.73s1.03-.27,1.61-.27h-.01Z"/>
            <path class="st6" d="M1028.95,455.67c.46,0,.84.15,1.13.45s.45.68.45,1.17v11.16c0,.46-.15.84-.45,1.14s-.68.46-1.13.46-.84-.15-1.13-.46-.45-.69-.45-1.14v-1.3l.58.24c0,.23-.12.51-.37.84-.24.33-.58.65-1,.97s-.92.58-1.5.8-1.19.33-1.86.33c-1.21,0-2.31-.31-3.3-.94s-1.76-1.49-2.33-2.59-.86-2.36-.86-3.78.29-2.72.86-3.82,1.34-1.96,2.31-2.59,2.05-.94,3.22-.94c.76,0,1.45.11,2.09.34s1.19.52,1.65.87.83.7,1.08,1.07.38.66.38.91l-.95.34v-1.92c0-.46.15-.84.45-1.14s.68-.46,1.13-.46v-.02h-.01ZM1023.62,467.41c.77,0,1.45-.2,2.03-.58s1.03-.91,1.36-1.58.48-1.42.48-2.24-.17-1.61-.48-2.27-.78-1.2-1.36-1.58-1.25-.58-2.03-.58-1.43.2-2,.58c-.58.39-1.03.91-1.36,1.58s-.48,1.43-.48,2.27.17,1.57.48,2.24c.33.67.78,1.2,1.36,1.58s1.25.58,2,.58Z"/>
            <path class="st6" d="M1041.52,455.67c1.3,0,2.29.27,2.97.81s1.14,1.28,1.4,2.18c.25.9.38,1.91.38,3.02v6.75c0,.46-.15.84-.45,1.14s-.68.46-1.13.46-.84-.15-1.13-.46-.45-.69-.45-1.14v-6.75c0-.58-.08-1.1-.22-1.57-.15-.46-.42-.84-.8-1.12s-.95-.42-1.66-.42-1.3.14-1.78.42-.86.66-1.11,1.12-.38.99-.38,1.57v6.75c0,.46-.15.84-.45,1.14s-.68.46-1.13.46-.84-.15-1.13-.46-.45-.69-.45-1.14v-10.9c0-.46.15-.84.45-1.14s.68-.46,1.13-.46.84.15,1.13.46.45.69.45,1.14v1.13l-.4-.08c.15-.3.38-.62.68-.97.3-.34.65-.66,1.06-.97.41-.3.86-.54,1.38-.73.51-.19,1.07-.27,1.66-.27h0Z"/>
            <path class="st6" d="M1049.86,456.19h6.26c.42,0,.77.14,1.06.42s.42.64.42,1.06-.14.75-.42,1.01-.64.41-1.06.41h-6.26c-.42,0-.77-.14-1.06-.42s-.42-.64-.42-1.06.14-.75.42-1.01.64-.41,1.06-.41ZM1052.69,452.89c.46,0,.84.15,1.12.46s.44.69.44,1.14v11.75c0,.24.04.45.14.61s.23.27.4.34.35.11.54.11c.21,0,.41-.04.58-.12s.37-.12.61-.12.47.11.67.34c.2.23.31.55.31.95,0,.49-.26.9-.8,1.21-.54.32-1.11.47-1.73.47-.37,0-.78-.03-1.23-.09-.45-.07-.87-.21-1.27-.45s-.73-.61-.99-1.1-.4-1.17-.4-2.04v-11.88c0-.46.15-.84.46-1.14s.69-.46,1.14-.46v.02h0Z"/>
            <path class="st6" d="M1060.21,467.86c-.18-.24-.25-.56-.24-.95.02-.39.24-.73.68-1,.29-.18.58-.25.9-.22.32.02.63.19.92.48.51.51,1.04.9,1.61,1.19s1.27.42,2.11.42c.26-.02.55-.06.87-.12s.59-.2.84-.42c.24-.22.35-.56.35-1.01,0-.39-.13-.69-.4-.92-.26-.23-.62-.42-1.04-.58-.43-.15-.91-.31-1.44-.45-.55-.15-1.1-.33-1.67-.53s-1.1-.44-1.57-.75-.86-.71-1.17-1.23c-.3-.51-.45-1.16-.45-1.92,0-.88.24-1.63.74-2.24.49-.62,1.13-1.09,1.91-1.43s1.61-.51,2.46-.51c.55,0,1.12.07,1.72.2s1.17.34,1.72.64c.55.29,1,.67,1.38,1.14.2.26.31.58.34.95.03.37-.13.7-.51,1-.26.21-.57.31-.92.27-.35-.02-.64-.14-.87-.35-.3-.39-.7-.69-1.2-.92s-1.08-.34-1.73-.34c-.26,0-.55.03-.86.09-.31.07-.57.2-.8.4-.23.2-.34.53-.34.97,0,.41.13.73.4.97s.62.43,1.07.58c.45.15.92.3,1.44.44.53.14,1.07.31,1.61.51.55.2,1.04.45,1.51.77s.83.73,1.11,1.23.42,1.14.42,1.91c0,.9-.26,1.66-.79,2.3s-1.19,1.11-1.98,1.44-1.61.48-2.43.48c-1.03,0-2.08-.18-3.11-.54s-1.9-1-2.58-1.91l.02-.02h0Z"/>
          </g>
        </g>
        <g>
          <path class="st3" d="M1058.87,396.84c1.84-.07,3.29,1.54,3.04,3.37l-4.03,29.37c-.18,1.28-1.88,3.05-2.95,3.71-6.33,3.94-14.98-3.39-10.12-9.47,2.84-3.54,8.51-3.39,11.55-.15l2.53-18.41-23.42.78-3.34,24.35c-2.18,8.82-16.84,5.32-14.17-3.49,1.55-5.13,9.28-5.84,12.58-2l3.39-24.72c.2-1.43,1.4-2.51,2.84-2.56l22.1-.76h0Z"/>
          <path class="st2" d="M1079.42,382.75c.18.63.51,1.26.86,1.8,2.39,3.62,6.08,2.36,9.22,4.39,1.53.99,3.23,3.15,3.58,4.96.15.83-.52,1.19-1.17.66-1.51-1.21-2.03-2.23-4.03-3.14-2.26-1.03-4.1-.51-6.4-1.1l7.96,29.23c.53,1.92-1.02,4.98-2.45,6.26-6.66,5.98-17.17-1.16-11.89-8.65,2.24-3.19,6.82-4.31,10.35-2.76l-8.45-31.01,2.41-.66h.01Z"/>
          <path class="st9" d="M1116.26,387.44c-.01.65.11,1.35.3,1.98,1.23,4.16,5.13,4.04,7.55,6.89,1.18,1.39,2.18,3.95,1.97,5.79-.09.84-.84.99-1.31.3-1.09-1.59-1.3-2.73-2.94-4.18-1.86-1.65-3.78-1.68-5.81-2.91l-.91,30.28c-.06,2-2.43,4.47-4.17,5.27-8.12,3.78-16.09-6.12-8.86-11.74,3.08-2.4,7.79-2.13,10.7.39l.97-32.13,2.5.08h.01Z"/>
        </g>
      </g>
      <path class="st8" d="M683.09,608.93c8.68-9.78,14.4-21.99,19.2-34.03,4.9-12.28,8.76-24.95,12.02-37.75,1.32-5.16,2.53-10.33,3.62-15.54l-3.25-.44c0,1.02.85,1.67,1.82,1.7.14,0-.21-.18-.08-.01s.54.5.78.83c1.97,2.77,2.35,6.41,3.62,9.5.78,1.93,3.95,1.12,3.18-.88-1.17-3.04-1.82-6.2-3.25-9.14-1.05-2.13-2.38-4.41-4.75-5.25-2.6-.91-5.73.35-7.97,1.68-2.46,1.46-4.43,3.55-6.02,5.92-1.19,1.77,1.67,3.42,2.85,1.66s2.76-3.46,4.65-4.63c1.5-.91,4.12-2.31,5.83-1.32,1.42.83,2.18,2.77,2.84,4.2,1.15,2.49,1.65,5.2,2.63,7.75l3.18-.88c-1.32-3.25-1.84-6.81-3.65-9.85-.56-.95-1.28-1.91-2.25-2.46-.29-.16-.62-.29-.93-.36s-1.07-.3-.36-.03l.99.76.22.79c.01-1.81-2.85-2.3-3.25-.44-2.16,10.34-4.77,20.59-7.82,30.7-3.92,12.98-8.51,25.88-14.78,37.93-3.18,6.1-6.8,12.07-11.38,17.24-1.41,1.58.92,3.93,2.33,2.33h0v.02h0Z"/>
    </g>
    <g>
      <g>
        <g>
          <rect class="st2" x="189.45" y="220.85" width="178.1" height="64.62" rx="17.82" ry="17.82"/>
          <g>
            <path class="st6" d="M248.38,242.27c.46,0,.86.15,1.2.45.34.31.51.68.51,1.14,0,.24-.06.48-.17.74l-6.79,15.89c-.17.36-.4.64-.7.81-.3.18-.61.26-.92.26-.3-.02-.58-.11-.86-.29-.27-.18-.48-.43-.64-.76l-6.79-15.95c-.06-.11-.09-.22-.11-.34s-.03-.23-.03-.34c0-.53.19-.94.58-1.22.38-.29.75-.43,1.1-.43.69,0,1.2.36,1.52,1.08l6.02,14.17-.97.02,5.53-14.19c.31-.69.81-1.04,1.52-1.04h0Z"/>
            <path class="st6" d="M254.13,245.06c-.63,0-1.07-.1-1.32-.31-.25-.2-.38-.56-.38-1.07v-.52c0-.53.14-.89.43-1.09.29-.19.72-.29,1.31-.29.64,0,1.09.1,1.34.3.25.2.38.56.38,1.08v.52c0,.53-.13.89-.42,1.09s-.73.29-1.34.29ZM255.81,259.89c0,.47-.15.88-.47,1.2-.31.32-.7.48-1.18.48s-.87-.16-1.19-.48c-.31-.32-.46-.71-.46-1.2v-11.35c0-.47.15-.88.46-1.2s.7-.48,1.19-.48.87.16,1.18.48c.31.32.47.71.47,1.2v11.35h0Z"/>
            <path class="st6" d="M258.34,259.28c-.19-.25-.26-.58-.25-.99.02-.41.25-.75.72-1.04.3-.19.61-.26.93-.23.33.03.65.2.97.51.53.53,1.09.95,1.68,1.23.58.3,1.32.44,2.2.44.27-.02.57-.06.91-.12.33-.07.62-.21.87-.44.24-.23.37-.58.37-1.06,0-.41-.13-.73-.42-.97s-.64-.44-1.09-.61c-.45-.16-.95-.32-1.5-.46-.57-.16-1.16-.35-1.75-.55-.59-.2-1.14-.46-1.64-.78-.49-.32-.9-.75-1.21-1.28s-.46-1.2-.46-2.01c0-.91.25-1.69.77-2.33.52-.64,1.18-1.13,1.99-1.49s1.67-.52,2.57-.52c.57,0,1.17.07,1.78.21s1.22.36,1.78.66c.57.31,1.04.7,1.43,1.2.2.27.32.61.36.99.03.39-.13.74-.52,1.04-.27.22-.59.32-.97.29-.36-.02-.67-.15-.91-.37-.31-.41-.73-.73-1.25-.97-.52-.24-1.12-.36-1.8-.36-.27,0-.57.03-.89.1s-.61.2-.84.42c-.24.21-.36.55-.36,1,0,.42.13.76.42,1,.28.25.65.45,1.11.61.46.15.97.31,1.5.45.55.14,1.11.32,1.67.52.57.2,1.09.46,1.57.8.47.33.86.76,1.16,1.28s.44,1.19.44,1.99c0,.94-.27,1.74-.83,2.39-.55.66-1.23,1.16-2.07,1.5-.83.34-1.67.51-2.53.51-1.08,0-2.17-.19-3.24-.56-1.08-.37-1.98-1.04-2.69-1.99h.01Z"/>
            <path class="st6" d="M283.36,246.85c.47,0,.87.16,1.19.48.31.32.46.71.46,1.2v6.99c0,1.95-.54,3.49-1.62,4.62s-2.64,1.71-4.67,1.71-3.59-.57-4.66-1.71c-1.08-1.13-1.61-2.67-1.61-4.62v-6.99c0-.47.15-.88.46-1.2s.7-.48,1.19-.48.87.16,1.19.48c.31.32.46.71.46,1.2v6.99c0,1.12.25,1.95.74,2.49.49.54,1.23.81,2.23.81s1.76-.27,2.26-.81.74-1.38.74-2.49v-6.99c0-.47.15-.88.47-1.2.31-.32.7-.48,1.18-.48h0Z"/>
            <path class="st6" d="M300.63,246.58c.47,0,.87.15,1.19.46.31.31.46.71.46,1.21v11.63c0,.47-.15.88-.46,1.2s-.7.48-1.19.48-.87-.16-1.19-.48c-.31-.32-.46-.71-.46-1.2v-1.34l.61.24c0,.24-.13.53-.39.87s-.61.67-1.04,1-.96.61-1.55.84c-.59.23-1.24.34-1.94.34-1.26,0-2.41-.33-3.43-.98s-1.84-1.55-2.43-2.69c-.59-1.14-.89-2.46-.89-3.95s.3-2.83.89-3.97,1.4-2.05,2.41-2.69,2.12-.98,3.36-.98c.79,0,1.52.12,2.18.36.66.24,1.23.54,1.72.91.48.36.86.74,1.12,1.11s.4.69.4.95l-.99.35v-2c0-.47.15-.88.46-1.2s.7-.48,1.19-.48v.02h-.01ZM295.08,258.81c.8,0,1.52-.2,2.11-.61s1.08-.96,1.42-1.65.51-1.47.51-2.33-.16-1.67-.51-2.36c-.34-.69-.81-1.24-1.42-1.65-.61-.41-1.31-.61-2.11-.61s-1.49.2-2.09.61c-.61.41-1.08.96-1.42,1.65s-.51,1.49-.51,2.36.16,1.64.51,2.33c.34.69.81,1.24,1.42,1.65s1.3.61,2.09.61Z"/>
            <path class="st6" d="M309.43,259.89c0,.47-.16.88-.48,1.2s-.71.48-1.2.48-.85-.16-1.16-.48c-.31-.32-.46-.71-.46-1.2v-16.99c0-.47.16-.88.48-1.2s.71-.48,1.2-.48.87.16,1.17.48c.31.32.45.71.45,1.2v16.99Z"/>
            <path class="st6" d="M312.43,259.28c-.19-.25-.26-.58-.24-.99s.25-.75.71-1.04c.3-.19.61-.26.94-.23s.65.2.97.51c.53.53,1.09.95,1.67,1.23s1.32.44,2.2.44c.27-.02.58-.06.91-.12s.62-.21.87-.44c.24-.23.37-.58.37-1.06,0-.41-.13-.73-.42-.97s-.64-.44-1.09-.61c-.45-.16-.95-.32-1.5-.46-.57-.16-1.16-.35-1.75-.55s-1.14-.46-1.64-.78c-.49-.32-.9-.75-1.21-1.28-.31-.53-.47-1.2-.47-2.01,0-.91.25-1.69.77-2.33s1.18-1.13,1.99-1.49c.81-.35,1.67-.52,2.57-.52.57,0,1.17.07,1.78.21.63.13,1.22.36,1.78.66.57.31,1.04.7,1.43,1.2.2.27.32.61.36.99.03.39-.13.74-.53,1.04-.27.22-.59.32-.97.29-.36-.02-.67-.15-.9-.37-.31-.41-.73-.73-1.25-.97s-1.12-.36-1.8-.36c-.27,0-.57.03-.89.1s-.61.2-.84.42c-.24.21-.36.55-.36,1,0,.42.13.76.42,1,.27.25.65.45,1.11.61s.97.31,1.5.45c.55.14,1.11.32,1.68.52.57.2,1.09.46,1.56.8.47.33.86.76,1.16,1.28s.44,1.19.44,1.99c0,.94-.27,1.74-.83,2.39-.55.66-1.23,1.16-2.07,1.5-.83.34-1.67.51-2.53.51-1.08,0-2.17-.19-3.24-.56s-1.98-1.04-2.69-1.99h.02Z"/>
          </g>
        </g>
        <g>
          <g>
            <rect class="st7" x="556.88" y="181.07" width="222.34" height="64.62" rx="17.82" ry="17.82"/>
            <g>
              <path class="st6" d="M604.58,207.36c.44,0,.8.14,1.1.43s.44.65.44,1.09-.14.8-.44,1.09c-.3.29-.66.43-1.1.43h-7.28c-.44,0-.8-.14-1.1-.43s-.44-.65-.44-1.09.14-.8.44-1.09.66-.43,1.1-.43h7.28ZM604.28,201.44c.41,0,.8.06,1.19.16.39.11.7.29.97.54.25.24.39.57.39.98,0,.46-.13.83-.4,1.09s-.57.4-.92.4c-.16,0-.42-.04-.75-.12-.33-.09-.65-.12-.97-.12-.46,0-.81.1-1.06.3-.25.2-.42.44-.51.7s-.13.49-.13.7v14.05c0,.47-.15.88-.46,1.2s-.7.48-1.19.48-.87-.16-1.19-.48c-.31-.32-.46-.71-.46-1.2v-14.03c0-1.3.46-2.4,1.38-3.3s2.29-1.34,4.12-1.34h-.01ZM612.31,220.12c0,.47-.16.88-.48,1.2s-.71.48-1.2.48-.85-.16-1.15-.48c-.31-.32-.47-.71-.47-1.2v-16.99c0-.47.16-.88.48-1.2s.71-.48,1.2-.48.87.16,1.17.48c.31.32.45.71.45,1.2v16.99h.01Z"/>
              <path class="st6" d="M630.43,214.46c0,1.51-.33,2.83-1,3.97-.67,1.14-1.56,2.04-2.7,2.68-1.12.64-2.39.97-3.78.97s-2.65-.32-3.78-.97c-1.12-.64-2.02-1.54-2.7-2.68-.67-1.14-1-2.48-1-3.97s.33-2.83,1-3.97c.67-1.14,1.56-2.05,2.7-2.69s2.39-.98,3.78-.98,2.65.33,3.78.98,2.02,1.55,2.7,2.69c.67,1.14,1,2.48,1,3.97ZM627.13,214.46c0-.94-.19-1.75-.56-2.43-.37-.68-.88-1.22-1.52-1.61-.64-.39-1.33-.58-2.1-.58s-1.47.19-2.1.58c-.64.39-1.13.92-1.52,1.61s-.56,1.5-.56,2.43.19,1.72.56,2.41.88,1.22,1.52,1.61c.64.39,1.33.58,2.1.58s1.47-.19,2.1-.58c.64-.39,1.13-.92,1.52-1.61.37-.68.56-1.49.56-2.41Z"/>
              <path class="st6" d="M650.26,207.09c.42,0,.79.16,1.1.48.31.32.46.73.46,1.22,0,.13,0,.24-.03.34-.02.1-.04.2-.08.29l-4.21,11.33c-.13.36-.36.65-.68.84s-.68.26-1.05.21c-.63-.03-1.09-.39-1.41-1.04l-2.72-7.83.71.03-2.56,7.81c-.31.66-.78,1.01-1.41,1.04-.35.06-.69,0-1.03-.21s-.57-.47-.7-.84l-4.2-11.33c-.08-.2-.11-.42-.11-.64,0-.44.14-.84.44-1.19s.69-.52,1.21-.52c.35,0,.66.09.94.24.27.16.46.43.57.8l3.33,9.02-.68-.06,2.5-6.79c.3-.68.8-1.01,1.52-1.01.41,0,.71.09.92.26s.39.43.51.76l2.5,6.79-.82.11,3.39-9.08c.22-.69.75-1.04,1.6-1.04h.01Z"/>
              <path class="st6" d="M660.98,206.81c1.05,0,1.96.11,2.74.33s1.39.53,1.81.92.65.87.65,1.42c0,.36-.11.71-.33,1.03-.22.32-.54.48-.97.48-.3,0-.54-.04-.73-.12-.19-.09-.36-.19-.51-.32s-.32-.25-.53-.36c-.19-.11-.46-.2-.84-.26-.37-.07-.66-.1-.84-.1-.94,0-1.73.2-2.38.61-.65.41-1.15.95-1.5,1.64s-.52,1.49-.52,2.38.18,1.66.54,2.35.86,1.23,1.49,1.64c.64.41,1.36.61,2.19.61.46,0,.85-.03,1.18-.09.33-.06.6-.13.83-.24.25-.14.48-.31.68-.46.2-.16.51-.25.91-.25.47,0,.85.15,1.1.45s.39.67.39,1.11-.25.88-.77,1.25-1.19.68-2.02.91-1.74.34-2.71.34c-1.45,0-2.71-.33-3.77-1s-1.88-1.58-2.46-2.74c-.57-1.16-.87-2.44-.87-3.87,0-1.51.31-2.83.92-3.97s1.46-2.05,2.56-2.69,2.34-.98,3.75-.98h-.01Z"/>
              <path class="st6" d="M676.47,206.81c1.32,0,2.32.29,3.01.86s1.15,1.32,1.42,2.27.39,1.99.39,3.15v7.04c0,.47-.15.88-.46,1.2s-.7.48-1.19.48-.87-.16-1.18-.48c-.31-.32-.47-.71-.47-1.2v-7.04c0-.61-.08-1.16-.22-1.64s-.42-.88-.8-1.17c-.39-.3-.94-.44-1.65-.44s-1.29.14-1.78.44-.87.68-1.11,1.17-.37,1.03-.37,1.64v7.04c0,.47-.15.88-.46,1.2s-.7.48-1.19.48-.87-.16-1.19-.48c-.31-.32-.46-.71-.46-1.2v-16.99c0-.47.15-.88.46-1.2s.7-.48,1.19-.48.87.16,1.19.48c.31.32.46.71.46,1.2v6.82l-.42-.08c.16-.31.4-.65.68-1s.65-.69,1.07-1,.89-.56,1.41-.76c.52-.19,1.07-.29,1.67-.29h.01Z"/>
              <path class="st6" d="M696.9,206.81c.47,0,.87.15,1.19.46.31.31.46.71.46,1.21v11.63c0,.47-.15.88-.46,1.2-.31.32-.7.48-1.19.48s-.87-.16-1.19-.48c-.31-.32-.46-.71-.46-1.2v-1.34l.6.24c0,.24-.13.53-.38.87s-.6.67-1.05,1-.96.61-1.55.84c-.59.23-1.24.34-1.94.34-1.27,0-2.41-.33-3.43-.98s-1.84-1.55-2.43-2.69c-.59-1.14-.89-2.46-.89-3.95s.3-2.83.89-3.97,1.4-2.05,2.41-2.69,2.12-.98,3.36-.98c.79,0,1.52.12,2.18.36s1.23.54,1.72.91c.48.36.86.74,1.12,1.11s.4.69.4.95l-.99.35v-2c0-.47.15-.88.46-1.2.31-.32.7-.48,1.19-.48v.02h-.01ZM691.34,219.04c.8,0,1.52-.2,2.11-.61s1.08-.96,1.42-1.65.51-1.47.51-2.33-.17-1.67-.51-2.36c-.34-.69-.81-1.24-1.42-1.65s-1.31-.61-2.11-.61-1.48.2-2.09.61c-.6.41-1.08.96-1.42,1.65s-.51,1.49-.51,2.36.16,1.64.51,2.33c.34.69.81,1.24,1.42,1.65.6.41,1.3.61,2.09.61Z"/>
              <path class="st6" d="M703.77,221.79c-.47,0-.87-.16-1.19-.48-.31-.32-.46-.71-.46-1.2v-11.35c0-.47.15-.88.46-1.2.31-.32.7-.48,1.19-.48s.87.16,1.19.48c.31.32.46.71.46,1.2v2.59l-.19-1.84c.2-.44.46-.83.78-1.17s.68-.63,1.09-.86c.41-.23.84-.4,1.3-.51s.91-.16,1.38-.16c.55,0,1.01.15,1.39.46s.56.68.56,1.1c0,.61-.15,1.04-.46,1.31-.31.26-.65.4-1.01.4s-.66-.07-.95-.19c-.29-.13-.6-.19-.98-.19-.33,0-.66.08-1,.23s-.65.4-.93.73c-.29.33-.52.74-.68,1.22-.18.48-.26,1.06-.26,1.72v6.51c0,.47-.15.88-.46,1.2-.31.32-.7.48-1.19.48h-.02Z"/>
              <path class="st6" d="M714.22,207.36h6.52c.44,0,.8.14,1.1.44.3.3.44.66.44,1.1s-.14.77-.44,1.06c-.3.29-.66.43-1.1.43h-6.52c-.44,0-.8-.14-1.1-.44-.3-.3-.44-.66-.44-1.1s.14-.77.44-1.06.66-.43,1.1-.43ZM717.17,203.92c.47,0,.87.16,1.17.48.3.32.45.71.45,1.2v12.23c0,.25.05.46.15.63.1.16.24.29.42.36.18.08.36.11.56.11.22,0,.42-.04.6-.12s.4-.12.64-.12.5.12.7.36.32.57.32.99c0,.52-.27.94-.84,1.26-.56.33-1.15.49-1.8.49-.38,0-.81-.03-1.28-.1s-.91-.22-1.32-.46c-.42-.24-.76-.63-1.03-1.14s-.42-1.22-.42-2.11v-12.38c0-.47.17-.88.48-1.2s.72-.48,1.2-.48h-.01Z"/>
              <path class="st6" d="M725,219.52c-.19-.25-.26-.58-.24-.99s.25-.75.72-1.04c.3-.19.6-.26.93-.23s.65.2.97.51c.53.53,1.09.95,1.67,1.23s1.32.44,2.2.44c.28-.02.58-.06.91-.12s.62-.21.87-.44c.24-.23.37-.58.37-1.06,0-.41-.13-.73-.42-.97s-.64-.44-1.09-.61c-.45-.16-.95-.32-1.5-.46-.57-.16-1.15-.35-1.75-.55s-1.14-.46-1.64-.78c-.5-.32-.9-.75-1.21-1.28-.31-.53-.47-1.2-.47-2.01,0-.91.25-1.69.77-2.33s1.18-1.13,1.99-1.49,1.67-.52,2.57-.52c.57,0,1.17.07,1.78.21.63.13,1.22.36,1.78.66.57.31,1.05.7,1.43,1.2.2.28.32.61.36.99.03.39-.13.74-.53,1.04-.28.22-.59.32-.97.29-.36-.02-.67-.15-.9-.37-.31-.41-.73-.73-1.25-.97-.53-.24-1.12-.36-1.8-.36-.28,0-.57.03-.89.1s-.6.2-.84.42c-.24.21-.36.55-.36,1,0,.42.13.76.42,1,.27.25.65.45,1.11.61s.97.31,1.5.45c.55.14,1.11.32,1.68.52.57.2,1.09.46,1.56.8.47.33.86.76,1.15,1.28s.44,1.19.44,1.99c0,.94-.28,1.74-.83,2.39-.55.66-1.23,1.16-2.07,1.5-.83.34-1.67.51-2.53.51-1.08,0-2.17-.19-3.25-.56-1.08-.37-1.98-1.04-2.7-1.99h.02,0Z"/>
            </g>
          </g>
          <g>
            <rect class="st3" x="556.88" y="260.61" width="176.45" height="64.62" rx="17.82" ry="17.82"/>
            <g>
              <path class="st6" d="M602.37,286.34c1.29,0,2.43.33,3.45.98s1.83,1.54,2.42,2.68c.59,1.13.89,2.45.89,3.96s-.3,2.83-.89,3.97-1.4,2.05-2.4,2.69-2.12.98-3.37.98c-.74,0-1.42-.12-2.07-.36-.64-.24-1.21-.54-1.69-.91-.48-.36-.86-.74-1.13-1.11-.26-.37-.4-.69-.4-.95l.86-.35v7.23c0,.47-.15.88-.46,1.2s-.7.48-1.19.48-.87-.15-1.19-.46c-.31-.31-.46-.71-.46-1.21v-16.85c0-.47.15-.88.46-1.2s.7-.48,1.19-.48.87.16,1.19.48c.31.32.46.71.46,1.2v1.34l-.46-.24c0-.24.13-.53.39-.87s.6-.68,1.05-1.01c.44-.34.95-.62,1.53-.84.57-.22,1.19-.33,1.83-.33v-.02h0ZM601.95,289.37c-.8,0-1.52.2-2.11.61-.6.41-1.08.95-1.42,1.64s-.51,1.47-.51,2.35.16,1.65.51,2.35.81,1.26,1.42,1.66,1.31.61,2.11.61,1.51-.2,2.1-.61c.59-.41,1.07-.96,1.41-1.66s.51-1.49.51-2.35-.16-1.66-.51-2.35-.8-1.23-1.41-1.64c-.59-.41-1.3-.61-2.1-.61Z"/>
              <path class="st6" d="M613.45,284.84c-.63,0-1.07-.1-1.32-.31-.25-.2-.39-.56-.39-1.07v-.52c0-.53.14-.89.43-1.09.29-.19.71-.29,1.31-.29.64,0,1.09.1,1.34.3.25.2.39.56.39,1.08v.52c0,.53-.13.89-.42,1.09s-.73.29-1.35.29h.01ZM615.13,299.65c0,.47-.15.88-.46,1.2s-.7.48-1.19.48-.87-.16-1.19-.48c-.31-.32-.46-.71-.46-1.2v-11.35c0-.47.15-.88.46-1.2s.7-.48,1.19-.48.87.16,1.19.48c.31.32.46.71.46,1.2v11.35h0Z"/>
              <path class="st6" d="M625.05,286.34c1.05,0,1.96.11,2.74.33s1.39.53,1.81.92.65.87.65,1.42c0,.36-.11.71-.33,1.03-.22.32-.54.48-.97.48-.3,0-.54-.04-.73-.12-.19-.09-.36-.19-.51-.32s-.32-.25-.53-.36c-.19-.11-.46-.2-.84-.26-.37-.07-.66-.1-.84-.1-.94,0-1.73.2-2.38.61-.65.41-1.15.95-1.5,1.64s-.52,1.49-.52,2.38.18,1.66.54,2.35.86,1.23,1.49,1.64c.64.41,1.36.61,2.19.61.46,0,.85-.03,1.18-.09.33-.06.6-.13.83-.24.25-.14.48-.31.68-.46.2-.16.51-.25.91-.25.47,0,.85.15,1.1.45s.39.67.39,1.11-.25.88-.77,1.25-1.19.68-2.02.91-1.74.34-2.71.34c-1.45,0-2.71-.33-3.77-1s-1.88-1.58-2.46-2.74c-.57-1.16-.87-2.44-.87-3.87,0-1.51.31-2.83.92-3.97s1.46-2.05,2.56-2.69,2.34-.98,3.75-.98h-.01Z"/>
              <path class="st6" d="M632.97,286.89h6.51c.44,0,.8.14,1.1.44s.44.66.44,1.1-.14.77-.44,1.06c-.3.29-.66.43-1.1.43h-6.51c-.44,0-.8-.14-1.1-.44-.3-.3-.44-.66-.44-1.1s.14-.77.44-1.06.66-.43,1.1-.43ZM635.91,283.46c.47,0,.87.16,1.17.48.31.32.45.71.45,1.2v12.23c0,.25.05.46.15.63.1.16.24.29.42.36s.36.11.56.11c.22,0,.42-.04.6-.12.19-.08.4-.12.64-.12s.5.12.7.36.32.57.32.99c0,.52-.27.94-.84,1.26-.56.33-1.15.49-1.8.49-.39,0-.81-.03-1.28-.1s-.91-.22-1.32-.46c-.42-.24-.76-.63-1.03-1.14s-.42-1.22-.42-2.11v-12.38c0-.47.16-.88.48-1.2s.71-.48,1.2-.48h-.01Z"/>
              <path class="st6" d="M654.97,286.62c.47,0,.87.16,1.19.48.31.32.46.71.46,1.2v6.99c0,1.95-.54,3.49-1.62,4.62s-2.64,1.71-4.67,1.71-3.59-.57-4.66-1.71c-1.07-1.13-1.61-2.67-1.61-4.62v-6.99c0-.47.15-.88.46-1.2s.7-.48,1.19-.48.87.16,1.19.48c.31.32.46.71.46,1.2v6.99c0,1.12.24,1.95.74,2.49s1.23.81,2.23.81,1.76-.27,2.25-.81.74-1.38.74-2.49v-6.99c0-.47.15-.88.46-1.2s.7-.48,1.19-.48h0Z"/>
              <path class="st6" d="M661.85,301.34c-.47,0-.87-.16-1.19-.48-.31-.32-.46-.71-.46-1.2v-11.35c0-.47.15-.88.46-1.2s.7-.48,1.19-.48.87.16,1.19.48c.31.32.46.71.46,1.2v2.59l-.19-1.84c.2-.44.46-.82.78-1.17s.68-.63,1.09-.86c.41-.23.84-.4,1.3-.51.46-.11.91-.16,1.38-.16.55,0,1.01.15,1.39.46s.56.68.56,1.1c0,.61-.15,1.04-.46,1.31s-.65.4-1.01.4-.66-.07-.95-.19c-.29-.13-.6-.19-.98-.19-.33,0-.66.08-1,.23s-.65.4-.94.73-.52.74-.68,1.22c-.18.48-.26,1.06-.26,1.72v6.51c0,.47-.15.88-.46,1.2s-.7.48-1.19.48h-.02,0Z"/>
              <path class="st6" d="M678.46,301.61c-1.56,0-2.91-.33-4.06-.98s-2.02-1.54-2.64-2.65-.92-2.39-.92-3.79c0-1.65.33-3.06,1-4.22.67-1.17,1.54-2.06,2.63-2.68,1.08-.63,2.23-.94,3.43-.94.94,0,1.81.19,2.65.58.84.39,1.57.91,2.21,1.58s1.15,1.44,1.53,2.32.56,1.81.56,2.81c-.02.44-.19.79-.53,1.07-.33.27-.71.42-1.15.42h-10.5l-.83-2.75h10.09l-.6.55v-.74c-.03-.53-.22-1.01-.56-1.43s-.76-.76-1.26-1c-.51-.25-1.05-.37-1.61-.37s-1.07.08-1.54.22-.89.4-1.23.74-.63.81-.83,1.41-.3,1.33-.3,2.22c0,.99.21,1.83.62,2.52s.95,1.21,1.6,1.56c.65.36,1.34.54,2.08.54.68,0,1.22-.06,1.63-.16.41-.11.73-.24.98-.4.24-.15.47-.29.67-.4.33-.16.64-.24.94-.24.41,0,.74.13,1,.42.26.27.4.59.4.97,0,.49-.25.95-.77,1.34-.47.41-1.14.76-2.01,1.06-.86.3-1.75.45-2.66.45h.01Z"/>
              <path class="st6" d="M686.9,299.05c-.19-.25-.26-.58-.24-.99s.25-.75.71-1.04c.3-.19.6-.26.94-.23.33.03.65.2.97.51.53.53,1.09.95,1.67,1.23s1.32.44,2.2.44c.28-.02.58-.06.91-.12s.62-.21.87-.44c.24-.23.37-.58.37-1.06,0-.41-.13-.73-.42-.97s-.64-.44-1.09-.61c-.45-.16-.95-.32-1.5-.46-.57-.16-1.15-.35-1.75-.55s-1.14-.46-1.64-.78c-.5-.32-.9-.75-1.21-1.28-.31-.53-.47-1.2-.47-2.01,0-.91.25-1.69.77-2.33s1.18-1.13,1.99-1.49c.81-.35,1.67-.52,2.57-.52.57,0,1.17.07,1.78.21.63.13,1.22.36,1.78.66.57.31,1.05.7,1.43,1.2.2.27.32.61.36.99.03.39-.13.74-.53,1.04-.28.22-.59.32-.97.29-.36-.02-.67-.15-.9-.37-.31-.41-.73-.73-1.25-.97-.53-.24-1.12-.36-1.8-.36-.27,0-.57.03-.89.1s-.6.2-.84.42c-.24.21-.36.55-.36,1,0,.42.13.76.42,1,.27.25.65.45,1.11.61s.97.31,1.5.45c.55.14,1.11.32,1.68.52.57.2,1.09.46,1.56.8.47.33.86.76,1.15,1.28s.44,1.19.44,1.99c0,.94-.28,1.74-.83,2.39-.55.66-1.23,1.16-2.07,1.5-.83.34-1.67.51-2.53.51-1.08,0-2.17-.19-3.25-.56-1.08-.37-1.98-1.04-2.7-1.99h.02,0Z"/>
            </g>
          </g>
        </g>
        <rect class="st9" x="412.12" y="227.87" width="86.2" height="50.59" rx="13.95" ry="13.95"/>
        <g>
          <path class="st6" d="M438.52,259.89c0,.47-.16.88-.48,1.2s-.71.48-1.2.48-.85-.16-1.15-.48c-.31-.32-.46-.71-.46-1.2v-16.99c0-.47.16-.88.48-1.2s.71-.48,1.2-.48.87.16,1.17.48c.31.32.45.71.45,1.2v16.99Z"/>
          <path class="st6" d="M443.8,245.07c-.63,0-1.07-.1-1.32-.31-.25-.2-.39-.56-.39-1.07v-.52c0-.53.14-.89.43-1.09.29-.19.71-.29,1.31-.29.64,0,1.09.1,1.34.3.25.2.39.56.39,1.08v.52c0,.53-.13.89-.42,1.09s-.73.29-1.35.29h.01ZM445.47,259.89c0,.47-.15.88-.46,1.2s-.7.48-1.19.48-.87-.16-1.19-.48c-.31-.32-.46-.71-.46-1.2v-11.35c0-.47.15-.88.46-1.2s.7-.48,1.19-.48.87.16,1.19.48c.31.32.46.71.46,1.2v11.35h0Z"/>
          <path class="st6" d="M450.78,261.57c-.47,0-.87-.16-1.19-.48-.31-.32-.46-.71-.46-1.2v-16.99c0-.47.15-.88.46-1.2s.7-.48,1.19-.48.87.16,1.19.48c.31.32.46.71.46,1.2v16.99c0,.47-.15.88-.46,1.2s-.7.48-1.19.48ZM459.53,246.85c.42,0,.79.18,1.1.52.31.35.46.68.46,1.02,0,.44-.22.85-.66,1.23l-8.27,7.61-.13-3.79,6.29-6.08c.35-.35.75-.52,1.21-.52h0ZM459.93,261.54c-.47,0-.88-.19-1.21-.55l-5.08-5.39,2.51-2.31,4.95,5.39c.35.36.52.78.52,1.23s-.19.87-.56,1.17-.75.45-1.11.45h-.01Z"/>
          <path class="st6" d="M470.82,261.85c-1.56,0-2.91-.33-4.06-.98s-2.02-1.54-2.64-2.65-.92-2.39-.92-3.79c0-1.65.33-3.06,1-4.22.67-1.17,1.54-2.06,2.63-2.68,1.08-.63,2.23-.94,3.43-.94.94,0,1.81.19,2.65.58.84.39,1.57.91,2.21,1.58s1.15,1.44,1.53,2.32.56,1.81.56,2.81c-.02.44-.19.79-.53,1.07-.33.27-.71.42-1.15.42h-10.5l-.83-2.75h10.09l-.6.55v-.74c-.03-.53-.22-1.01-.56-1.43s-.76-.76-1.26-1c-.51-.25-1.05-.37-1.61-.37s-1.07.08-1.54.22-.89.4-1.23.74-.63.81-.82,1.41-.3,1.33-.3,2.22c0,.99.21,1.83.62,2.52s.95,1.21,1.6,1.56c.65.36,1.34.54,2.08.54.68,0,1.22-.06,1.63-.16.41-.11.73-.24.98-.4.24-.15.47-.29.67-.4.33-.16.64-.24.94-.24.41,0,.74.13,1,.42.26.28.4.59.4.97,0,.49-.25.95-.77,1.34-.47.41-1.14.76-2.01,1.06-.86.3-1.75.45-2.66.45h.01Z"/>
        </g>
        <polygon class="st4" points="366.58 253.76 405.27 253.76 405.27 259.49 412.41 252.35 405.27 245.21 405.27 250.93 366.58 250.93 366.58 253.76"/>
        <path class="st10" d="M498.43,253.76h25.76c1.12-.02,2.24-.02,3.27-.47,2.07-.81,3.51-2.95,3.55-5.15.03-.55.04-1.11.04-1.68v-26.73c-.02-.75.01-1.54.37-2.21.33-.68.89-1.24,1.57-1.58.67-.36,1.45-.42,2.21-.4h14.95v5.72l7.14-7.14-7.14-7.14v5.72h-15.72c-1.11,0-2.22.18-3.19.74-.97.53-1.78,1.34-2.3,2.32-.55.98-.69,2.09-.71,3.2v28.21c.08,1.53-.91,3.04-2.35,3.54-.71.29-1.5.21-2.24.22h-25.2v2.83h-.01Z"/>
        <path class="st10" d="M498.43,253.65h25.2c.75,0,1.53-.07,2.24.22,1.45.51,2.43,2.01,2.34,3.54v28.2c.02,1.11.18,2.22.73,3.2.52.98,1.33,1.79,2.3,2.32.97.55,2.08.73,3.19.74,1.09.02,2.35,0,3.21,0h12.51v5.72l7.14-7.14-7.14-7.14v5.72h-14.95c-.75.02-1.53-.02-2.21-.4-.67-.34-1.23-.9-1.57-1.58-.36-.67-.4-1.46-.37-2.21v-26.73c0-.56,0-1.13-.04-1.68-.04-2.21-1.49-4.33-3.55-5.15-1.02-.45-2.13-.45-3.27-.47h-25.76v2.83h.01Z"/>
      </g>
      <path class="st8" d="M396.5,424.41c-4.83-1.62-9.29-4.91-13.23-8.16-5.52-4.58-10.54-9.76-15.22-15.18-10.08-11.68-19.07-24.87-25.09-39.13-2.73-6.48-4.99-13.5-5.05-20.59,0-1.7-2.18-2.16-3.08-.84-3.46,5.14-6.94,10.26-10.41,15.4l2.85,1.66c3.42-5.21,6.94-10.35,10.36-15.55l-2.26.59c4.41,2.74,8.31,6.15,12.26,9.49,1.62,1.36,3.96-.96,2.33-2.33-4.17-3.52-8.29-7.13-12.94-10.01-.78-.48-1.78-.13-2.26.59-3.42,5.21-6.94,10.35-10.36,15.55-1.18,1.78,1.67,3.41,2.85,1.66,3.46-5.14,6.94-10.26,10.41-15.4l-3.08-.84c.04,6.52,1.85,12.97,4.18,19.02,2.81,7.27,6.47,14.21,10.57,20.82,8.23,13.27,18.26,25.93,30.11,36.15,4.79,4.12,10.09,8.22,16.15,10.25,2.01.68,2.88-2.51.88-3.18h.02Z"/>
    </g>
    <g>
      <g>
        <g>
          <g>
            <path class="st12" d="M558.92,927.82c-1.44-8.49-2.86-17-4.25-25.5-2.77-17.01-5.41-34.03-7.93-51.07-2.06-13.9-4.03-27.82-5.92-41.75-.97-7.11-1.95-14.22-2.83-21.34-.03-.26-.07-.54-.1-.81l-21.47-8.76c-28.51,5.14-57.25,11.14-85.93,14.33-5.74.96-10.45.48-9.25,7.3,5.09,28.92,10.09,57.82,14.77,86.79,2.1,12.97,4.16,25.94,6.18,38.92,1.01,6.49,2.01,12.98,3,19.47.53,3.47.13,13.97,3.51,16.02.8.48,1.83.41,2.77.31,33.85-3.51,67.41-8.84,101.01-14.06,1.96-.31,3.99-.64,5.57-1.8.84-.62,1.44-1.38,1.88-2.22,2.25-4.45-.32-11.62-1.03-15.82h.01Z"/>
            <g>
              <path class="st1" d="M458.51,945.37c28.45-4.12,57.1-7.58,85.4-12.54"/>
              <path class="st1" d="M457.21,936.47c28.45-4.12,57.1-7.58,85.4-12.54"/>
              <path class="st1" d="M455.92,927.57c28.45-4.12,57.1-7.58,85.4-12.54"/>
              <path class="st1" d="M454.64,918.67c28.45-4.12,57.1-7.58,85.4-12.54"/>
              <path class="st1" d="M453.35,909.77c28.45-4.12,57.1-7.58,85.4-12.54"/>
              <path class="st1" d="M452.06,900.87c28.45-4.12,57.1-7.58,85.4-12.54"/>
              <path class="st1" d="M450.76,891.97c28.45-4.12,57.1-7.58,85.4-12.54"/>
              <path class="st1" d="M449.48,883.07c28.45-4.12,57.1-7.58,85.4-12.54"/>
              <path class="st1" d="M447.98,873.56c28.45-4.12,57.1-7.58,85.4-12.54"/>
              <path class="st1" d="M446.47,864.04c28.45-4.12,57.1-7.58,85.4-12.54"/>
              <path class="st1" d="M444.97,854.53c28.45-4.12,57.1-7.58,85.4-12.54"/>
              <path class="st1" d="M439.92,817.07c9.36-1.09,18.67-2.65,28-4.07"/>
              <path class="st1" d="M438.63,808.19c12.22-1.45,24.4-3.25,36.52-5.4"/>
            </g>
          </g>
          <path class="st9" d="M516.31,778.66c.43-1.03,18.04,3.53,21.32,8.32,3.23,4.72-31.33,16.11-21.32-8.32Z"/>
        </g>
        <g>
          <rect class="st9" x="212.44" y="883.76" width="273.51" height="64.62" rx="17.82" ry="17.82"/>
          <g>
            <path class="st6" d="M244.47,909.03c-.46,0-.84-.14-1.14-.42-.31-.29-.46-.65-.46-1.11s.15-.83.46-1.1.69-.41,1.14-.41h11.73c.46,0,.84.14,1.14.42s.46.65.46,1.11-.15.83-.46,1.1-.69.41-1.14.41c0,0-11.73,0-11.73,0ZM250.31,924.48c-.49,0-.9-.15-1.21-.46s-.47-.69-.47-1.14v-15.31h3.43v15.31c0,.46-.17.84-.48,1.14s-.75.46-1.25.46h-.01Z"/>
            <path class="st6" d="M269.24,910.09c.46,0,.84.15,1.13.45.3.3.45.68.45,1.17v11.17c0,.46-.15.84-.45,1.14-.3.31-.68.46-1.13.46s-.84-.15-1.13-.46c-.3-.31-.45-.69-.45-1.14v-1.3l.58.24c0,.23-.12.51-.37.84-.24.33-.58.65-1,.97s-.92.58-1.5.8c-.57.22-1.19.33-1.86.33-1.21,0-2.31-.31-3.3-.93-.99-.63-1.76-1.48-2.33-2.58-.57-1.1-.86-2.37-.86-3.78s.29-2.72.86-3.82,1.34-1.96,2.31-2.58c.97-.63,2.05-.93,3.22-.93.76,0,1.45.11,2.09.34s1.19.52,1.65.87.83.7,1.08,1.07c.25.36.38.66.38.91l-.95.34v-1.92c0-.46.15-.84.45-1.14.3-.31.68-.46,1.13-.46v-.02h-.01ZM263.91,921.84c.77,0,1.45-.2,2.03-.58.58-.38,1.03-.91,1.36-1.58.33-.67.48-1.42.48-2.24s-.17-1.61-.48-2.27-.78-1.2-1.36-1.58-1.25-.58-2.03-.58-1.43.2-2,.58c-.58.38-1.03.91-1.36,1.58s-.48,1.43-.48,2.27.17,1.57.48,2.24c.33.67.78,1.2,1.36,1.58s1.25.58,2,.58Z"/>
            <path class="st6" d="M276.09,924.48c-.46,0-.84-.15-1.13-.46-.3-.31-.45-.69-.45-1.14v-16.31c0-.46.15-.84.45-1.14.3-.31.68-.46,1.13-.46s.84.15,1.13.46c.3.31.45.69.45,1.14v16.31c0,.46-.15.84-.45,1.14-.3.31-.68.46-1.13.46ZM284.5,910.35c.41,0,.76.17,1.06.51.3.33.45.66.45.98,0,.42-.21.81-.64,1.19l-7.94,7.32-.13-3.64,6.05-5.83c.33-.33.73-.51,1.17-.51h-.01ZM284.89,924.45c-.46,0-.85-.18-1.17-.53l-4.88-5.17,2.4-2.22,4.75,5.17c.33.35.51.75.51,1.19s-.18.84-.54,1.12-.72.44-1.07.44h0Z"/>
            <path class="st6" d="M295.34,924.74c-1.5,0-2.79-.31-3.89-.93-1.1-.63-1.95-1.47-2.53-2.55s-.88-2.29-.88-3.64c0-1.58.32-2.94.97-4.05s1.48-1.98,2.52-2.57,2.13-.9,3.3-.9c.9,0,1.75.19,2.55.55.8.37,1.51.88,2.12,1.52s1.1,1.39,1.46,2.23.54,1.74.54,2.7c-.02.42-.19.77-.51,1.03s-.68.4-1.11.4h-10.09l-.79-2.64h9.69l-.58.53v-.72c-.03-.51-.22-.97-.54-1.38-.33-.41-.73-.73-1.21-.97-.48-.24-1-.35-1.54-.35s-1.02.07-1.47.21-.86.37-1.19.72c-.33.33-.59.78-.79,1.34-.2.56-.29,1.28-.29,2.13,0,.95.2,1.76.59,2.42.4.66.9,1.17,1.53,1.51.63.34,1.29.52,1.99.52.65,0,1.17-.05,1.56-.15s.7-.23.94-.38c.24-.15.45-.28.65-.38.32-.15.62-.24.9-.24.39,0,.7.13.97.4.25.26.39.57.39.92,0,.47-.24.9-.74,1.3-.46.38-1.1.73-1.92,1.01s-1.68.44-2.56.44h-.03Z"/>
            <path class="st6" d="M305.49,917.96c-.46,0-.84-.15-1.14-.45-.31-.3-.46-.68-.46-1.13s.15-.84.46-1.12.69-.44,1.14-.44h4.6c.46,0,.84.15,1.14.46.31.31.46.69.46,1.14s-.15.8-.46,1.1c-.31.29-.69.44-1.14.44h-4.6Z"/>
            <path class="st6" d="M322.14,910.09c1.26,0,2.23.27,2.89.81.66.55,1.11,1.28,1.36,2.18.24.9.37,1.91.37,3.03v6.75c0,.46-.15.84-.45,1.14-.3.31-.68.46-1.13.46s-.84-.15-1.13-.46c-.3-.31-.45-.69-.45-1.14v-6.75c0-.58-.07-1.1-.21-1.57s-.4-.84-.77-1.12-.9-.42-1.58-.42-1.24.14-1.72.42c-.47.29-.84.66-1.07,1.12-.24.46-.35.99-.35,1.57v6.75c0,.46-.15.84-.45,1.14-.3.31-.68.46-1.13.46s-.84-.15-1.13-.46-.45-.69-.45-1.14v-16.31c0-.46.15-.84.45-1.14s.68-.46,1.13-.46.84.15,1.13.46c.3.31.45.69.45,1.14v6.55l-.4-.08c.15-.3.37-.62.66-.97s.63-.66,1.03-.97c.41-.3.86-.54,1.34-.73s1.03-.28,1.61-.28h-.01Z"/>
            <path class="st6" d="M343.9,917.43c0,1.44-.32,2.72-.97,3.82-.64,1.1-1.51,1.96-2.59,2.57-1.08.62-2.29.92-3.63.92s-2.55-.31-3.63-.92-1.95-1.47-2.59-2.57-.97-2.38-.97-3.82.32-2.72.97-3.82,1.51-1.96,2.59-2.58c1.08-.63,2.29-.93,3.63-.93s2.55.31,3.63.93c1.08.63,1.95,1.48,2.59,2.58s.97,2.38.97,3.82ZM340.73,917.43c0-.9-.18-1.67-.54-2.33s-.85-1.18-1.45-1.54c-.61-.37-1.28-.55-2.02-.55s-1.41.19-2.02.55c-.61.37-1.09.88-1.45,1.54-.36.66-.54,1.44-.54,2.33s.18,1.65.54,2.31.85,1.18,1.45,1.54c.61.37,1.28.55,2.02.55s1.41-.19,2.02-.55,1.09-.88,1.45-1.54c.36-.66.54-1.43.54-2.31Z"/>
            <path class="st6" d="M354.08,910.09c1.41,0,2.44.34,3.11,1.01.67.68,1.11,1.55,1.32,2.63l-.45-.24.21-.42c.21-.41.54-.84.98-1.31s.97-.86,1.59-1.19c.63-.33,1.32-.48,2.1-.48,1.26,0,2.23.27,2.89.81s1.11,1.28,1.36,2.18c.24.9.37,1.91.37,3.03v6.75c0,.46-.15.84-.45,1.14-.3.31-.68.46-1.13.46s-.84-.15-1.13-.46c-.3-.31-.45-.69-.45-1.14v-6.75c0-.58-.07-1.1-.21-1.57s-.4-.84-.77-1.12-.9-.42-1.58-.42-1.24.14-1.72.42c-.47.29-.84.66-1.07,1.12s-.35.99-.35,1.57v6.75c0,.46-.15.84-.45,1.14-.3.31-.68.46-1.13.46s-.84-.15-1.13-.46c-.3-.31-.45-.69-.45-1.14v-6.75c0-.58-.07-1.1-.21-1.57s-.4-.84-.77-1.12-.9-.42-1.58-.42-1.24.14-1.72.42c-.47.29-.84.66-1.07,1.12-.24.46-.35.99-.35,1.57v6.75c0,.46-.15.84-.45,1.14-.3.31-.68.46-1.13.46s-.84-.15-1.13-.46-.45-.69-.45-1.14v-10.9c0-.46.15-.84.45-1.14s.68-.46,1.13-.46.84.15,1.13.46c.3.31.45.69.45,1.14v1.13l-.4-.08c.15-.3.37-.62.66-.97s.63-.66,1.03-.97c.41-.3.86-.54,1.34-.73s1.03-.28,1.61-.28h-.01Z"/>
            <path class="st6" d="M377.66,924.74c-1.5,0-2.79-.31-3.89-.93-1.1-.63-1.95-1.47-2.53-2.55s-.88-2.29-.88-3.64c0-1.58.32-2.94.97-4.05s1.49-1.98,2.52-2.57,2.13-.9,3.3-.9c.9,0,1.75.19,2.55.55.8.37,1.51.88,2.12,1.52s1.1,1.39,1.46,2.23.54,1.74.54,2.7c-.02.42-.19.77-.51,1.03s-.68.4-1.11.4h-10.09l-.79-2.64h9.69l-.58.53v-.72c-.03-.51-.22-.97-.54-1.38-.33-.41-.73-.73-1.21-.97-.48-.24-1-.35-1.54-.35s-1.02.07-1.47.21-.86.37-1.19.72c-.33.33-.59.78-.79,1.34-.2.56-.29,1.28-.29,2.13,0,.95.2,1.76.59,2.42.4.66.9,1.17,1.53,1.51.63.34,1.29.52,1.99.52.65,0,1.17-.05,1.56-.15s.7-.23.94-.38c.24-.15.45-.28.65-.38.32-.15.62-.24.9-.24.39,0,.7.13.97.4.25.26.39.57.39.92,0,.47-.24.9-.74,1.3-.46.38-1.1.73-1.92,1.01s-1.68.44-2.56.44h-.03Z"/>
            <path class="st6" d="M394.14,910.62h6.26c.42,0,.77.14,1.06.42s.42.64.42,1.06-.14.75-.42,1.01-.64.41-1.06.41h-6.26c-.42,0-.77-.14-1.06-.42s-.42-.64-.42-1.06.14-.75.42-1.01.64-.41,1.06-.41ZM396.96,907.32c.46,0,.84.15,1.12.46s.44.69.44,1.14v11.75c0,.24.04.45.14.6.1.15.23.27.4.34s.35.11.54.11c.21,0,.41-.04.58-.12s.37-.12.61-.12.47.11.67.34c.2.23.31.55.31.95,0,.5-.26.9-.8,1.21-.54.32-1.11.47-1.73.47-.37,0-.78-.03-1.23-.09-.45-.07-.87-.21-1.26-.45s-.73-.6-.99-1.1c-.26-.5-.4-1.17-.4-2.03v-11.88c0-.46.15-.84.46-1.14.31-.31.69-.46,1.14-.46v.02h0Z"/>
            <path class="st6" d="M418.35,917.43c0,1.44-.32,2.72-.97,3.82-.64,1.1-1.51,1.96-2.59,2.57-1.08.62-2.29.92-3.63.92s-2.55-.31-3.63-.92-1.95-1.47-2.59-2.57-.97-2.38-.97-3.82.32-2.72.97-3.82,1.51-1.96,2.59-2.58c1.08-.63,2.29-.93,3.63-.93s2.55.31,3.63.93c1.08.63,1.95,1.48,2.59,2.58s.97,2.38.97,3.82ZM415.18,917.43c0-.9-.18-1.67-.54-2.33s-.85-1.18-1.45-1.54c-.61-.37-1.28-.55-2.02-.55s-1.41.19-2.02.55c-.61.37-1.09.88-1.45,1.54-.36.66-.54,1.44-.54,2.33s.18,1.65.54,2.31.85,1.18,1.45,1.54c.61.37,1.28.55,2.02.55s1.41-.19,2.02-.55,1.09-.88,1.45-1.54c.36-.66.54-1.43.54-2.31Z"/>
            <path class="st6" d="M434.81,917.43c0,1.44-.32,2.72-.97,3.82-.64,1.1-1.51,1.96-2.59,2.57-1.08.62-2.29.92-3.63.92s-2.55-.31-3.63-.92-1.95-1.47-2.59-2.57-.97-2.38-.97-3.82.32-2.72.97-3.82,1.51-1.96,2.59-2.58c1.08-.63,2.29-.93,3.63-.93s2.55.31,3.63.93c1.08.63,1.95,1.48,2.59,2.58s.97,2.38.97,3.82ZM431.65,917.43c0-.9-.18-1.67-.54-2.33s-.85-1.18-1.45-1.54c-.61-.37-1.28-.55-2.02-.55s-1.41.19-2.02.55c-.61.37-1.09.88-1.45,1.54-.36.66-.54,1.44-.54,2.33s.18,1.65.54,2.31.85,1.18,1.45,1.54c.61.37,1.28.55,2.02.55s1.41-.19,2.02-.55,1.09-.88,1.45-1.54c.36-.66.54-1.43.54-2.31Z"/>
            <path class="st6" d="M441.02,922.86c0,.46-.15.84-.46,1.14s-.69.46-1.14.46-.81-.15-1.11-.46c-.3-.31-.45-.69-.45-1.14v-16.31c0-.46.15-.84.46-1.14s.69-.46,1.14-.46.84.15,1.12.46c.29.31.44.69.44,1.14v16.31h0Z"/>
            <path class="st6" d="M443.9,922.28c-.18-.24-.25-.56-.24-.95.02-.38.24-.73.68-1,.29-.18.58-.25.9-.22.32.02.63.19.92.48.51.51,1.05.9,1.61,1.19.56.29,1.26.42,2.11.42.26-.02.55-.05.87-.12s.59-.2.84-.42.35-.56.35-1.01c0-.38-.13-.69-.4-.92s-.62-.42-1.05-.58c-.43-.15-.91-.31-1.44-.45-.55-.15-1.1-.33-1.67-.53s-1.1-.44-1.57-.75c-.47-.31-.86-.72-1.17-1.23-.3-.51-.45-1.15-.45-1.92,0-.88.24-1.63.74-2.24s1.13-1.09,1.91-1.43,1.61-.51,2.46-.51c.55,0,1.12.07,1.72.2s1.17.34,1.72.64c.55.29,1,.67,1.38,1.14.2.26.31.58.34.95.03.37-.13.7-.51,1-.26.21-.57.31-.92.27-.35-.02-.64-.14-.87-.35-.3-.38-.7-.69-1.2-.92s-1.08-.34-1.73-.34c-.26,0-.55.03-.86.09-.31.07-.57.2-.8.4-.23.2-.34.53-.34.97,0,.41.13.73.4.97.26.24.62.43,1.07.58s.92.3,1.44.44c.53.14,1.07.31,1.61.51.55.2,1.05.45,1.51.77s.83.73,1.11,1.23.42,1.14.42,1.91c0,.9-.26,1.66-.79,2.3s-1.19,1.11-1.98,1.44-1.61.48-2.43.48c-1.03,0-2.08-.18-3.11-.54s-1.9-1-2.59-1.91l.02-.02h0Z"/>
          </g>
        </g>
      </g>
      <path class="st8" d="M687.86,758.43c.39,5.22-.89,10.52-2.38,15.49-2.05,6.83-4.85,13.41-8.03,19.79-6.93,13.93-15.64,27.4-26.56,38.53-4.97,5.07-10.57,9.83-17.16,12.65-1.3.55-.92,2.75.4,3.01,6.07,1.21,12.14,2.43,18.23,3.64l.88-3.18c-6.13-1.13-12.23-2.4-18.36-3.54l1.15,2.03c.85-5.27,2.53-10.32,4.12-15.39.64-2.04-2.55-2.9-3.18-.88-1.6,5.07-3.28,10.13-4.12,15.39-.13.83.2,1.85,1.15,2.03,6.13,1.13,12.23,2.4,18.36,3.54,2.07.38,2.97-2.76.88-3.18-6.07-1.21-12.14-2.43-18.23-3.64l.4,3.01c5.94-2.54,11.13-6.7,15.76-11.13,5.62-5.38,10.57-11.46,15.09-17.8,9.05-12.69,16.77-26.8,21.67-41.64,1.96-5.93,3.71-12.43,3.25-18.74-.15-2.1-3.45-2.12-3.3,0h-.02,0Z"/>
    </g>
  </g>
</svg>