<?xml version="1.0" encoding="UTF-8"?>
<svg id="Layer_1" xmlns="http://www.w3.org/2000/svg" version="1.1" viewBox="0 0 1129.06 817.02">
  <!-- Generator: Adobe Illustrator 29.7.1, SVG Export Plug-In . SVG Version: 2.1.1 Build 8)  -->
  <defs>
    <style>
      .st0 { fill: #523cac; }
      .st1 { fill: #adc716; }
      .st2 { fill: #fda902; }
      .st3 { fill: #dd2080; }
      
      @keyframes sparkle {
        0%, 100% { opacity: 1; transform: scale(1) rotate(0deg); filter: brightness(1); }
        50% { opacity: 0.9; transform: scale(1.3) rotate(15deg); filter: brightness(1.5); }
      }
      
      @keyframes popWave {
        0%, 100% { transform: scale(1); filter: brightness(1); }
        50% { transform: scale(1.15); filter: brightness(1.2); }
      }
      
      .star-animate {
        animation: sparkle 3s infinite ease-in-out;
        transform-origin: center;
        transform-box: fill-box;
      }
      
      .square-animate {
        animation: popWave 2s infinite ease-in-out;
        transform-origin: center;
        transform-box: fill-box;
      }

      /* Sequential delay for squares to create a wave effect */
      .square-animate:nth-child(1) { animation-delay: 0.1s; }
      .square-animate:nth-child(2) { animation-delay: 0.3s; }
      .square-animate:nth-child(3) { animation-delay: 0.5s; }
      .square-animate:nth-child(4) { animation-delay: 0.7s; }
      .square-animate:nth-child(5) { animation-delay: 0.9s; }
      .square-animate:nth-child(6) { animation-delay: 1.1s; }
    </style>
  </defs>
  <rect class="st3" x="32.87" y="177.02" width="533.74" height="391.5" rx="54.18" ry="54.18" transform="translate(672.51 73.04) rotate(90)"/>
  <path class="st2" d="M272.24,21.94h67.79c15.61,0,28.28,12.67,28.28,28.28v240.25c0,15.61-12.67,28.28-28.28,28.28h-67.79c-22.67,0-41.08-18.41-41.08-41.08V63.02c0-22.67,18.41-41.08,41.08-41.08Z" transform="translate(470.07 -129.4) rotate(90)"/>
  <rect class="st1" x="658.26" y="105.9" width="391.5" height="533.74" rx="54.18" ry="54.18"/>
  <g>
    <circle class="st3" cx="221.9" cy="113.14" r="6.34"/>
    <rect class="st3" x="219.71" y="88.8" width="4.38" height="22.38" rx="2.19" ry="2.19"/>
    <circle class="st3" cx="273.79" cy="113.14" r="6.34"/>
    <rect class="st3" x="271.6" y="88.8" width="4.38" height="22.38" rx="2.19" ry="2.19"/>
    <circle class="st3" cx="325.68" cy="113.14" r="6.34"/>
    <rect class="st3" x="323.49" y="88.8" width="4.38" height="22.38" rx="2.19" ry="2.19"/>
    <circle class="st3" cx="377.58" cy="113.14" r="6.34"/>
    <rect class="st3" x="375.39" y="88.8" width="4.38" height="22.38" rx="2.19" ry="2.19"/>
  </g>
  <g>
    <rect class="st3 square-animate" x="186.42" y="151.61" width="24.27" height="24.27" rx="5.59" ry="5.59"/>
    <rect class="st3 square-animate" x="221.89" y="151.61" width="24.27" height="24.27" rx="5.59" ry="5.59"/>
    <rect class="st3 square-animate" x="257.35" y="151.61" width="24.27" height="24.27" rx="5.59" ry="5.59"/>
    <rect class="st3 square-animate" x="292.81" y="151.61" width="24.27" height="24.27" rx="5.59" ry="5.59"/>
    <rect class="st3 square-animate" x="328.28" y="151.61" width="24.27" height="24.27" rx="5.59" ry="5.59"/>
    <rect class="st3 square-animate" x="399.21" y="151.61" width="24.27" height="24.27" rx="5.59" ry="5.59"/>
    <path class="st3 star-animate" d="M366.21,166.51l-5.29-5.28c-1.35-1.35-.55-3.66,1.34-3.88l7.42-.88c.76-.09,1.42-.55,1.77-1.23l3.38-6.66c.86-1.7,3.31-1.65,4.11.08l3.13,6.79c.32.69.96,1.18,1.72,1.3l7.38,1.16c1.88.3,2.6,2.63,1.2,3.93l-5.49,5.07c-.56.52-.82,1.28-.7,2.04l1.18,7.38c.3,1.88-1.7,3.28-3.37,2.35l-6.52-3.65c-.67-.37-1.47-.39-2.15-.04l-6.65,3.4c-1.7.87-3.65-.61-3.28-2.48l1.46-7.33c.15-.75-.09-1.52-.63-2.06Z"/>
  </g>
  <g>
    <path class="st0" d="M826.87,21.57h67.06c15.61,0,28.28,12.67,28.28,28.28v240.25c0,15.61-12.67,28.28-28.28,28.28h-67.06c-22.67,0-41.08-18.41-41.08-41.08V62.65c0-22.67,18.41-41.08,41.08-41.08Z" transform="translate(1023.98 -684.03) rotate(90)"/>
    <g>
      <circle class="st1" cx="776.16" cy="113.14" r="6.34"/>
      <rect class="st1" x="773.97" y="88.8" width="4.38" height="22.38" rx="2.19" ry="2.19"/>
      <circle class="st1" cx="828.06" cy="113.14" r="6.34"/>
      <rect class="st1" x="825.87" y="88.8" width="4.38" height="22.38" rx="2.19" ry="2.19"/>
      <circle class="st1" cx="879.95" cy="113.14" r="6.34"/>
      <rect class="st1" x="877.76" y="88.8" width="4.38" height="22.38" rx="2.19" ry="2.19"/>
      <circle class="st1" cx="931.84" cy="113.14" r="6.34"/>
      <rect class="st1" x="929.65" y="88.8" width="4.38" height="22.38" rx="2.19" ry="2.19"/>
    </g>
    <g>
      <g>
        <rect class="st1 square-animate" x="735.47" y="151.61" width="24.27" height="24.27" rx="5.59" ry="5.59"/>
        <rect class="st1 square-animate" x="806.4" y="151.61" width="24.27" height="24.27" rx="5.59" ry="5.59"/>
        <rect class="st1 square-animate" x="877.33" y="151.61" width="24.27" height="24.27" rx="5.59" ry="5.59"/>
        <rect class="st1 square-animate" x="913.58" y="151.61" width="24.27" height="24.27" rx="5.59" ry="5.59"/>
        <rect class="st1 square-animate" x="948.26" y="151.61" width="24.27" height="24.27" rx="5.59" ry="5.59"/>
        <path class="st1 star-animate" d="M772.61,167.11l-5.29-5.28c-1.35-1.35-.55-3.66,1.34-3.88l7.42-.88c.76-.09,1.42-.55,1.77-1.23l3.38-6.66c.86-1.7,3.31-1.65,4.11.08l3.13,6.79c.32.69.96,1.18,1.72,1.3l7.38,1.16c1.88.3,2.6,2.63,1.2,3.93l-5.49,5.07c-.56.52-.82,1.28-.7,2.04l1.18,7.38c.3,1.88-1.7,3.28-3.37,2.35l-6.52-3.65c-.67-.37-1.47-.39-2.15-.04l-6.65,3.4c-1.7.87-3.65-.61-3.28-2.48l1.46-7.33c.15-.75-.09-1.52-.63-2.06Z"/>
        <path class="st1 star-animate" d="M843.54,167.11l-5.29-5.28c-1.35-1.35-.55-3.66,1.34-3.88l7.42-.88c.76-.09,1.42-.55,1.77-1.23l3.38-6.66c.86-1.7,3.31-1.65,4.11.08l3.13,6.79c.32.69.96,1.18,1.72,1.3l7.38,1.16c1.88.3,2.6,2.63,1.2,3.93l-5.49,5.07c-.56.52-.82,1.28-.7,2.04l1.18,7.38c.3,1.88-1.7,3.28-3.37,2.35l-6.52-3.65c-.67-.37-1.47-.39-2.15-.04l-6.65,3.4c-1.7.87-3.65-.61-3.28-2.48l1.46-7.33c.15-.75-.09-1.52-.63-2.06Z"/>
      </g>
      <g>
        <rect class="st1 square-animate" x="770.94" y="187.6" width="24.27" height="24.27" rx="5.59" ry="5.59"/>
        <rect class="st1 square-animate" x="806.4" y="187.6" width="24.27" height="24.27" rx="5.59" ry="5.59"/>
        <rect class="st1 square-animate" x="841.87" y="187.6" width="24.27" height="24.27" rx="5.59" ry="5.59"/>
        <rect class="st1 square-animate" x="913.58" y="187.6" width="24.27" height="24.27" rx="5.59" ry="5.59"/>
        <rect class="st1 square-animate" x="948.26" y="187.6" width="24.27" height="24.27" rx="5.59" ry="5.59"/>
        <path class="st1 star-animate" d="M737.15,203.1l-5.29-5.28c-1.35-1.35-.55-3.66,1.34-3.88l7.42-.88c.76-.09,1.42-.55,1.77-1.23l3.38-6.66c.86-1.7,3.31-1.65,4.11.08l3.13,6.79c.32.69.96,1.18,1.72,1.3l7.38,1.16c1.88.3,2.6,2.63,1.2,3.93l-5.49,5.07c-.56.52-.82,1.28-.7,2.04l1.18,7.38c.3,1.88-1.7,3.28-3.37,2.35l-6.52-3.65c-.67-.37-1.47-.39-2.15-.04l-6.65,3.4c-1.7.87-3.65-.61-3.28-2.48l1.46-7.33c.15-.75-.09-1.52-.63-2.06Z"/>
        <path class="st1 star-animate" d="M879.01,203.1l-5.29-5.28c-1.35-1.35-.55-3.66,1.34-3.88l7.42-.88c.76-.09,1.42-.55,1.77-1.23l3.38-6.66c.86-1.7,3.31-1.65,4.11.08l3.13,6.79c.32.69.96,1.18,1.72,1.3l7.38,1.16c1.88.3,2.6,2.63,1.2,3.93l-5.49,5.07c-.56.52-.82,1.28-.7,2.04l1.18,7.38c.3,1.88-1.7,3.28-3.37,2.35l-6.52-3.65c-.67-.37-1.47-.39-2.15-.04l-6.65,3.4c-1.7.87-3.65-.61-3.28-2.48l1.46-7.33c.15-.75-.09-1.52-.63-2.06Z"/>
      </g>
    </g>
  </g>
</svg>